# Created with Anim8or 1.00
# Object "corridor1_cd":

mtllib corridor1_cd.mtl

# Shape "mesh01":
g mesh01
# No. points 8:
v -15.1397 -27.6549 -150.266
v -15.1397 -27.6549 150.505
v -15.1397 27.8968 -150.266
v -15.1397 27.8969 150.505
v 14.9425 -27.6549 -150.266
v 14.9425 -27.6549 150.505
v 14.9425 27.8968 -150.266
v 14.9425 27.8969 150.505

# No. normals 20:
vn -1 0 0
vn 1 0 0
vn 0 -1 0
vn 0 1 0
vn -1 0 0
vn 0 -1 0
vn -1 0 0
vn 0 -1 0
vn -1 0 0
vn 0 1 0
vn -1 0 0
vn 0 1 0
vn 1 0 0
vn 0 -1 0
vn 1 0 0
vn 0 -1 0
vn 1 0 0
vn 0 1 0
vn 1 0 0
vn 0 1 0

# No. texture coordinates 8:
vt 0 0
vt 0 0
vt 0 1
vt 0 1
vt 1 0
vt 1 0
vt 1 1
vt 1 1

# No. faces 4:

usemtl ___default___

f 2/2/7 4/4/11 3/3/9 1/1/5
f 7/7/17 8/8/19 6/6/15 5/5/13
f 5/5/14 6/6/16 2/2/8 1/1/6
f 4//12 8//20 7//18 3//10

# End of Object "corridor1_cd"
