# Wavefront OBJ file
# Creator: Ultimate Unwrap3D Pro (x64) v3.50.66
# Website: http://www.unwrap3d.com
# Time: Sat May 20 00:08:34 2023
# num_vertices: 49
# num_vertex_normals: 49
# num_uvs: 66
# num_faces: 48
# num_groups: 1

mtllib dome_mapped.mtl

v 1553.119995 0.000000 1549.949951
v 1435.050049 839.440979 1431.880005
v 1098.810059 1551.089966 1095.650024
v 595.606018 2026.589966 592.440979
v 2.030800 2193.570068 -1.133800
v 2120.850098 0.000000 566.603027
v 1959.569946 839.440979 523.385986
v 1500.260010 1551.089966 400.316986
v 812.869019 2026.589966 216.130005
v 2120.850098 0.000000 -568.869995
v 1959.569946 839.440979 -525.653992
v 1500.260010 1551.089966 -402.584015
v 812.869019 2026.589966 -218.397003
v 1553.119995 0.000000 -1552.219971
v 1435.050049 839.440979 -1434.150024
v 1098.810059 1551.089966 -1097.920044
v 595.606018 2026.589966 -594.708008
v 569.768005 0.000000 -2119.959961
v 526.551025 839.440979 -1958.670044
v 403.480988 1551.089966 -1499.369995
v 219.294006 2026.589966 -811.971985
v -565.705994 0.000000 -2119.959961
v -522.489014 839.440979 -1958.670044
v -399.420013 1551.089966 -1499.369995
v -215.233002 2026.589966 -811.971985
v -1549.050049 0.000000 -1552.219971
v -1430.989990 839.440979 -1434.150024
v -1094.750000 1551.089966 -1097.920044
v -591.544006 2026.589966 -594.708008
v -2116.790039 0.000000 -568.869995
v -1955.510010 839.440979 -525.653992
v -1496.199951 1551.089966 -402.584015
v -808.807007 2026.589966 -218.397003
v -2116.790039 0.000000 566.603027
v -1955.510010 839.440979 523.385986
v -1496.199951 1551.089966 400.316986
v -808.807007 2026.589966 216.130005
v -1549.050049 0.000000 1549.949951
v -1430.989990 839.440979 1431.880005
v -1094.750000 1551.089966 1095.650024
v -591.544006 2026.589966 592.440979
v -565.705994 0.000000 2117.689941
v -522.489014 839.440979 1956.400024
v -399.420013 1551.089966 1497.099976
v -215.233002 2026.589966 809.703979
v 569.768005 0.000000 2117.689941
v 526.551025 839.440979 1956.400024
v 403.480988 1551.089966 1497.099976
v 219.294006 2026.589966 809.703979
# num_vertices: 49

vn 0.693520 0.195088 0.693521
vn 0.653035 0.383525 0.653035
vn 0.499339 0.708040 0.499339
vn 0.269975 0.924244 0.269975
vn -0.000000 1.000000 0.000000
vn 0.947367 0.195085 0.253846
vn 0.892062 0.383525 0.239027
vn 0.682109 0.708041 0.182770
vn 0.368793 0.924244 0.098818
vn 0.947366 0.195088 -0.253846
vn 0.892062 0.383526 -0.239027
vn 0.682110 0.708041 -0.182770
vn 0.368793 0.924244 -0.098818
vn 0.693519 0.195093 -0.693520
vn 0.653035 0.383526 -0.653034
vn 0.499340 0.708040 -0.499339
vn 0.269975 0.924244 -0.269974
vn 0.253845 0.195095 -0.947365
vn 0.239027 0.383525 -0.892062
vn 0.182771 0.708039 -0.682111
vn 0.098817 0.924245 -0.368792
vn -0.253845 0.195090 -0.947366
vn -0.239027 0.383524 -0.892062
vn -0.182771 0.708040 -0.682110
vn -0.098818 0.924245 -0.368791
vn -0.693520 0.195085 -0.693521
vn -0.653035 0.383524 -0.653035
vn -0.499339 0.708041 -0.499338
vn -0.269975 0.924244 -0.269974
vn -0.947367 0.195084 -0.253846
vn -0.892062 0.383525 -0.239027
vn -0.682109 0.708041 -0.182770
vn -0.368793 0.924244 -0.098818
vn -0.947367 0.195083 0.253847
vn -0.892063 0.383523 0.239028
vn -0.682109 0.708041 0.182770
vn -0.368793 0.924244 0.098818
vn -0.693519 0.195088 0.693521
vn -0.653035 0.383524 0.653035
vn -0.499340 0.708040 0.499339
vn -0.269975 0.924244 0.269975
vn -0.253844 0.195095 0.947365
vn -0.239027 0.383525 0.892062
vn -0.182771 0.708039 0.682111
vn -0.098817 0.924244 0.368792
vn 0.253845 0.195093 0.947365
vn 0.239027 0.383525 0.892062
vn 0.182771 0.708039 0.682111
vn 0.098817 0.924244 0.368793
# num_vertex_normals: 49

vt 1.000000 0.620000
vt 0.000000 0.620000
vt 1.000000 0.745000
vt 0.000000 0.745000
vt 1.000000 0.870000
vt 0.000000 0.870000
vt 1.000000 0.995000
vt 0.000000 0.995000
vt 0.628465 0.041826
vt 0.747545 0.250597
vt 0.083330 0.620000
vt 0.083330 0.745000
vt 0.083330 0.870000
vt 0.083330 0.995000
vt 0.746331 0.010256
vt 0.166670 0.620000
vt 0.166670 0.745000
vt 0.166670 0.870000
vt 0.166670 0.995000
vt 0.864510 0.040634
vt 0.250000 0.620000
vt 0.250000 0.745000
vt 0.250000 0.870000
vt 0.250000 0.995000
vt 0.952541 0.125129
vt 0.333330 0.620000
vt 0.333330 0.745000
vt 0.333330 0.870000
vt 0.333330 0.995000
vt 0.987735 0.241964
vt 0.416670 0.620000
vt 0.416670 0.745000
vt 0.416670 0.870000
vt 0.416670 0.995000
vt 0.961019 0.361025
vt 0.500000 0.620000
vt 0.500000 0.745000
vt 0.500000 0.870000
vt 0.500000 0.995000
vt 0.879280 0.451622
vt 0.583330 0.620000
vt 0.583330 0.745000
vt 0.583330 0.870000
vt 0.583330 0.995000
vt 0.763587 0.490405
vt 0.666670 0.620000
vt 0.666670 0.745000
vt 0.666670 0.870000
vt 0.666670 0.995000
vt 0.643759 0.467377
vt 0.750000 0.620000
vt 0.750000 0.745000
vt 0.750000 0.870000
vt 0.750000 0.995000
vt 0.550681 0.388474
vt 0.833330 0.620000
vt 0.833330 0.745000
vt 0.833330 0.870000
vt 0.833330 0.995000
vt 0.508345 0.274033
vt 0.916670 0.620000
vt 0.916670 0.745000
vt 0.916670 0.870000
vt 0.916670 0.995000
vt 0.527663 0.153551
vt 0.541291 0.127207
# num_uvs: 66

g mesh01
usemtl ___default___
f 7/12/7 2/4/2 1/2/1 6/11/6 
f 11/17/11 7/12/7 6/11/6 10/16/10 
f 15/22/15 11/17/11 10/16/10 14/21/14 
f 19/27/19 15/22/15 14/21/14 18/26/18 
f 23/32/23 19/27/19 18/26/18 22/31/22 
f 27/37/27 23/32/23 22/31/22 26/36/26 
f 31/42/31 27/37/27 26/36/26 30/41/30 
f 35/47/35 31/42/31 30/41/30 34/46/34 
f 39/52/39 35/47/35 34/46/34 38/51/38 
f 43/57/43 39/52/39 38/51/38 42/56/42 
f 47/62/47 43/57/43 42/56/42 46/61/46 
f 2/3/2 47/62/47 46/61/46 1/1/1 
f 8/13/8 3/6/3 2/4/2 7/12/7 
f 12/18/12 8/13/8 7/12/7 11/17/11 
f 16/23/16 12/18/12 11/17/11 15/22/15 
f 20/28/20 16/23/16 15/22/15 19/27/19 
f 24/33/24 20/28/20 19/27/19 23/32/23 
f 28/38/28 24/33/24 23/32/23 27/37/27 
f 32/43/32 28/38/28 27/37/27 31/42/31 
f 36/48/36 32/43/32 31/42/31 35/47/35 
f 40/53/40 36/48/36 35/47/35 39/52/39 
f 44/58/44 40/53/40 39/52/39 43/57/43 
f 48/63/48 44/58/44 43/57/43 47/62/47 
f 3/5/3 48/63/48 47/62/47 2/3/2 
f 9/14/9 4/8/4 3/6/3 8/13/8 
f 13/19/13 9/14/9 8/13/8 12/18/12 
f 17/24/17 13/19/13 12/18/12 16/23/16 
f 21/29/21 17/24/17 16/23/16 20/28/20 
f 25/34/25 21/29/21 20/28/20 24/33/24 
f 29/39/29 25/34/25 24/33/24 28/38/28 
f 33/44/33 29/39/29 28/38/28 32/43/32 
f 37/49/37 33/44/33 32/43/32 36/48/36 
f 41/54/41 37/49/37 36/48/36 40/53/40 
f 45/59/45 41/54/41 40/53/40 44/58/44 
f 49/64/49 45/59/45 44/58/44 48/63/48 
f 4/7/4 49/64/49 48/63/48 3/5/3 
f 5/10/5 4/9/4 9/15/9 
f 5/10/5 9/15/9 13/20/13 
f 5/10/5 13/20/13 17/25/17 
f 5/10/5 17/25/17 21/30/21 
f 5/10/5 21/30/21 25/35/25 
f 5/10/5 25/35/25 29/40/29 
f 5/10/5 29/40/29 33/45/33 
f 5/10/5 33/45/33 37/50/37 
f 5/10/5 37/50/37 41/55/41 
f 5/10/5 41/55/41 45/60/45 
f 5/10/5 45/60/45 49/65/49 
f 5/10/5 49/66/49 4/9/4 
# num_faces: 48

