# Created with Anim8or 1.00
# Object "house4":

mtllib house4.mtl

# Shape "mesh01":
g mesh01
# No. points 80:
v -476.15 6.57325 -702.695
v -476.15 6.57292 702.695
v -476.15 258.071 -702.695
v -476.15 258.071 702.695
v -476.15 509.568 -702.695
v -476.15 509.568 702.695
v -476.15 761.066 -702.695
v -476.15 761.066 702.695
v -158.717 6.57338 -702.695
v -158.717 6.573 702.695
v -158.717 258.071 -702.695
v -158.717 258.071 702.695
v -158.717 509.568 -702.695
v -158.717 509.568 702.695
v -158.717 761.066 -702.695
v -158.717 761.066 702.695
v 158.717 6.57346 -702.695
v 158.717 6.57308 702.695
v 158.717 258.071 -702.695
v 158.718 258.071 702.695
v 158.717 509.568 -702.695
v 158.718 509.568 702.695
v 158.717 761.066 -702.695
v 158.718 761.066 702.695
v 476.15 6.5736 -702.695
v 476.15 6.57321 702.695
v 476.15 258.071 -702.695
v 476.15 258.071 702.695
v 476.15 509.568 -702.695
v 476.15 509.569 702.695
v 476.151 761.066 -702.695
v 476.151 761.066 702.695
v -476.15 6.57316 -234.233
v 476.15 6.57351 -234.231
v -476.15 6.57307 234.231
v 476.15 6.57336 234.231
v -476.15 258.071 -234.233
v 476.15 258.071 -234.231
v -476.15 258.071 234.231
v 476.15 258.071 234.231
v -476.15 509.568 -234.233
v 476.15 509.568 -234.231
v -476.15 509.568 234.231
v 476.15 509.568 234.231
v -476.15 761.066 -234.233
v 476.151 761.066 -234.231
v -476.15 761.066 234.231
v 476.151 761.066 234.231
v -535.277 764.556 -753.712
v -535.277 764.556 753.712
v -279.246 959.215 -753.712
v -279.246 959.215 753.712
v -19.7465 1153.87 -753.712
v -19.7465 1153.87 753.712
v 537.668 764.556 -753.712
v 537.668 764.556 753.712
v 281.637 959.215 -753.712
v 281.637 959.215 753.712
v 22.1382 1153.87 -753.712
v 22.1382 1153.87 753.712
v -535.277 764.556 -251.239
v 537.668 764.556 -251.239
v -535.277 764.556 251.239
v 537.668 764.556 251.239
v -279.246 959.215 -251.239
v 281.637 959.215 -251.239
v -279.246 959.215 251.239
v 281.637 959.215 251.239
v -19.7465 1153.87 -251.239
v 22.1382 1153.87 -251.239
v -19.7465 1153.87 251.239
v 22.1382 1153.87 251.239
v -485.043 761.947 -715.159
v 487.435 761.947 -715.159
v -485.043 761.947 715.159
v 487.435 761.947 715.159
v -491.462 766.128 -238.387
v -491.462 766.128 238.386
v 493.854 766.128 -238.386
v 493.854 766.128 238.386

# No. normals 242:
vn 0 0 -1
vn 0 0 -1
vn 0 0 -1
vn 0 0 -1
vn 0 0 -1
vn 0 0 -1
vn 0 0 -1
vn 0 0 -1
vn 0 0 -1
vn 0 0 1
vn 0 0 1
vn 0 0 1
vn 0 0 1
vn 0 0 1
vn 0 0 1
vn 0 0 1
vn 0 0 1
vn 0 0 1
vn -1 0 0
vn -1 0 0
vn -1 0 0
vn -1 0 0
vn -1 0 0
vn -1 0 0
vn -1 0 0
vn -1 0 0
vn -1 0 0
vn 1 0 0
vn 1 0 0
vn 1 0 0
vn 1 0 0
vn 1 0 0
vn 1 0 0
vn 1 0 0
vn 1 0 0
vn 1 0 0
vn 0 0 -1
vn 0 0 -1
vn 0 0 1
vn 0 0 1
vn -0.60523 0.79605 0
vn -0.60523 0.79605 0
vn -0.60523 0.79605 0
vn -0.60006 0.79996 0
vn -0.60006 0.79996 0
vn -0.60006 0.79996 0
vn 0.60523 0.79605 0
vn 0.60523 0.79605 0
vn 0.60523 0.79605 0
vn 0.60006 0.79996 0
vn 0.60006 0.79996 0
vn 0.60006 0.79996 0
vn 0 1 0
vn 0 1 0
vn 0 1 0
vn 0 -0.99772 -0.06753
vn 0 -0.99772 0.06753
vn 0.03314 -0.999408 0.00921
vn 0.03584 -0.999358 0
vn 0.03314 -0.999408 -0.00921
vn -0.03314 -0.999408 0.00921
vn -0.03584 -0.999358 0
vn -0.03314 -0.999408 -0.00921
vn 0 0 -1
vn -1 0 0
vn 0 0 1
vn -1 0 0
vn 0 0 -1
vn -1 0 0
vn 0 0 1
vn -1 0 0
vn 0 0 -1
vn -1 0 0
vn 0 0 1
vn -1 0 0
vn 0 0 -1
vn -1 0 0
vn 0 0 1
vn -1 0 0
vn 0 0 -1
vn 0 0 1
vn 0 0 -1
vn 0 0 1
vn 0 0 -1
vn 0 0 1
vn 0 0 -1
vn 0 0 1
vn 0 0 -1
vn 0 0 1
vn 0 0 -1
vn 0 0 1
vn 0 0 -1
vn 0 0 1
vn 0 0 -1
vn 0 0 1
vn 0 0 -1
vn 1 0 0
vn 0 0 1
vn 1 0 0
vn 0 0 -1
vn 1 0 0
vn 0 0 1
vn 1 0 0
vn 0 0 -1
vn 1 0 0
vn 0 0 1
vn 1 0 0
vn 0 0 -1
vn 1 0 0
vn 0 0 1
vn 1 0 0
vn -1 0 0
vn 1 0 0
vn -1 0 0
vn 1 0 0
vn -1 0 0
vn 1 0 0
vn -1 0 0
vn 1 0 0
vn -1 0 0
vn 1 0 0
vn -1 0 0
vn 1 0 0
vn -1 0 0
vn 1 0 0
vn -1 0 0
vn 1 0 0
vn 0 0 -1
vn 0.01658 -0.999436 -0.02918
vn -0.60523 0.79605 0
vn 0 0 1
vn 0.01658 -0.999436 0.02918
vn -0.60523 0.79605 0
vn 0 0 -1
vn -0.60265 0.79801 0
vn 0 0 1
vn -0.60265 0.79801 0
vn 0 0 -1
vn -0.31626 0.94867 0
vn 0 0 1
vn -0.31626 0.94867 0
vn 0 0 -1
vn -0.01658 -0.999436 -0.02918
vn 0.60523 0.79605 0
vn 0 0 1
vn -0.01658 -0.999436 0.02918
vn 0.60523 0.79605 0
vn 0 0 -1
vn 0.60265 0.79801 0
vn 0 0 1
vn 0.60265 0.79801 0
vn 0 0 -1
vn 0.31626 0.94867 0
vn 0 0 1
vn 0.31626 0.94867 0
vn -0.60523 0.79605 0
vn 0.03449 -0.999394 0.00460
vn 0.60523 0.79605 0
vn -0.03449 -0.999394 0.00460
vn -0.60523 0.79605 0
vn 0.03449 -0.999394 -0.00460
vn 0.60523 0.79605 0
vn -0.03449 -0.999394 -0.00460
vn -0.60265 0.79801 0
vn 0.60265 0.79801 0
vn -0.60265 0.79801 0
vn 0.60265 0.79801 0
vn -0.31626 0.94867 0
vn 0.31626 0.94867 0
vn -0.31626 0.94867 0
vn 0.31626 0.94867 0
vn 0.01658 -0.999436 -0.02918
vn -0.01658 -0.999436 -0.02918
vn 0.01658 -0.999436 0.02918
vn -0.01658 -0.999436 0.02918
vn 0.03449 -0.999394 0.00460
vn 0.03449 -0.999394 -0.00460
vn -0.03449 -0.999394 0.00460
vn -0.03449 -0.999394 -0.00460
vn 0 0 -1
vn 0 0 -1
vn 0 0 -1
vn 0 0 -1
vn 0 0 -1
vn 0 0 -1
vn 0 0 -1
vn 0 0 -1
vn 0 0 -1
vn 0 0 1
vn 0 0 1
vn 0 0 1
vn 0 0 1
vn 0 0 1
vn 0 0 1
vn 0 0 1
vn 0 0 1
vn 0 0 1
vn -1 0 0
vn -1 0 0
vn -1 0 0
vn -1 0 0
vn -1 0 0
vn -1 0 0
vn -1 0 0
vn -1 0 0
vn -1 0 0
vn 1 0 0
vn 1 0 0
vn 1 0 0
vn 1 0 0
vn 1 0 0
vn 1 0 0
vn 1 0 0
vn 1 0 0
vn 1 0 0
vn 0 0 -1
vn 0 0 -1
vn 0 0 1
vn 0 0 1
vn -0.60523 0.79605 0
vn -0.60523 0.79605 0
vn -0.60523 0.79605 0
vn -0.60006 0.79996 0
vn -0.60006 0.79996 0
vn -0.60006 0.79996 0
vn 0.60523 0.79605 0
vn 0.60523 0.79605 0
vn 0.60523 0.79605 0
vn 0.60006 0.79996 0
vn 0.60006 0.79996 0
vn 0.60006 0.79996 0
vn 0 1 0
vn 0 1 0
vn 0 1 0
vn 0 -0.99772 -0.06753
vn 0 -0.99772 0.06753
vn 0.03314 -0.999408 0.00921
vn 0.03584 -0.999358 0
vn 0.03314 -0.999408 -0.00921
vn -0.03314 -0.999408 0.00921
vn -0.03584 -0.999358 0
vn -0.03314 -0.999408 -0.00921

# No. texture coordinates 124:
vt 0.18592 0.88050
vt 0.12895 0.88048
vt 0.12932 0.83132
vt 0.18385 0.83043
vt 0.18556 0.92411
vt 0.12864 0.92351
vt 0.18495 0.98153
vt 0.12783 0.98196
vt 0.07096 0.87994
vt 0.07083 0.83226
vt 0.06920 0.92535
vt 0.06985 0.98060
vt 0.01522 0.88095
vt 0.01412 0.83184
vt 0.01495 0.92525
vt 0.01553 0.98101
vt 0.56937 0.83718
vt 0.56999 0.88829
vt 0.51632 0.88855
vt 0.51625 0.83703
vt 0.57073 0.93182
vt 0.51835 0.93355
vt 0.57010 0.98576
vt 0.51676 0.98575
vt 0.63431 0.83640
vt 0.63512 0.88865
vt 0.63556 0.93084
vt 0.63525 0.98596
vt 0.68187 0.83487
vt 0.68393 0.88752
vt 0.68362 0.93223
vt 0.68575 0.98595
vt 0.30773 0.83232
vt 0.30662 0.88512
vt 0.23338 0.88566
vt 0.23347 0.83164
vt 0.38419 0.83216
vt 0.38174 0.88601
vt 0.45822 0.83233
vt 0.45768 0.88423
vt 0.30502 0.93218
vt 0.23273 0.93209
vt 0.38119 0.93421
vt 0.45626 0.93200
vt 0.30358 0.97793
vt 0.23332 0.97930
vt 0.38070 0.97887
vt 0.45693 0.97941
vt 0.94757 0.88393
vt 0.88103 0.88570
vt 0.87987 0.82740
vt 0.94860 0.82732
vt 0.80581 0.88604
vt 0.80715 0.82876
vt 0.73104 0.88629
vt 0.73192 0.82853
vt 0.94852 0.93533
vt 0.88013 0.93519
vt 0.80365 0.93556
vt 0.73080 0.93730
vt 0.94941 0.98848
vt 0.87957 0.98960
vt 0.80442 0.98834
vt 0.73113 0.98774
vt 0.40227 0.59967
vt 0.15150 0.60241
vt 0.03326 0.46680
vt 0.49870 0.46646
vt 0.29548 0.72794
vt 0.27200 0.72680
vt 0.49944 0.46764
vt 0.40055 0.60018
vt 0.15080 0.59870
vt 0.03646 0.46679
vt 0.29545 0.72557
vt 0.27032 0.72687
vt 0.49612 0.37385
vt 0.49435 0.20271
vt 0.69012 0.19910
vt 0.69391 0.37405
vt 0.28125 0.37473
vt 0.27839 0.20232
vt 0.07805 0.37368
vt 0.08112 0.20121
vt 0.49094 0.02292
vt 0.68723 0.02271
vt 0.27352 0.01925
vt 0.08337 0.01666
vt 0.07741 0.20571
vt 0.27929 0.20532
vt 0.28042 0.37661
vt 0.07556 0.37492
vt 0.49433 0.20318
vt 0.49327 0.37507
vt 0.69078 0.20124
vt 0.69345 0.37227
vt 0.08016 0.01925
vt 0.27454 0.01798
vt 0.49224 0.02067
vt 0.69125 0.02215
vt 0.02275 0.40404
vt 0.12169 0.40325
vt 0.12102 0.42753
vt 0.02218 0.42673
vt 0.26560 0.40076
vt 0.26474 0.42603
vt 0.34911 0.40299
vt 0.35051 0.42615
vt 0.93155 0.17167
vt 0.95366 0.17147
vt 0.95240 0.30419
vt 0.93292 0.30353
vt 0.74222 0.30504
vt 0.72074 0.30549
vt 0.72105 0.17047
vt 0.74371 0.16965
vt 0.95082 0.46367
vt 0.93347 0.44379
vt 0.72129 0.46452
vt 0.74133 0.44470
vt 0.92897 0.03824
vt 0.95354 0.01824
vt 0.74522 0.03898
vt 0.71803 0.01958

# No. faces 63:

usemtl ___default___.001

f 3/1/68 11/2/82 9/3/80 1/4/64
f 5/5/72 13/6/84 11/2/82 3/1/68
f 7/7/76 15/8/86 13/6/84 5/5/72
f 11/2/82 19/9/90 17/10/88 9/3/80
f 13/6/84 21/11/92 19/9/90 11/2/82
f 15/8/86 23/12/94 21/11/92 13/6/84
f 19/9/90 27/13/100 25/14/96 17/10/88
f 21/11/92 29/15/104 27/13/100 19/9/90
f 23/12/94 31/16/108 29/15/104 21/11/92
f 10/17/81 12/18/83 4/19/70 2/20/66
f 12/18/83 14/21/85 6/22/74 4/19/70
f 14/21/85 16/23/87 8/24/78 6/22/74
f 18/25/89 20/26/91 12/18/83 10/17/81
f 20/26/91 22/27/93 14/21/85 12/18/83
f 22/27/93 24/28/95 16/23/87 14/21/85
f 26/29/98 28/30/102 20/26/91 18/25/89
f 28/30/102 30/31/106 22/27/93 20/26/91
f 30/31/106 32/32/110 24/28/95 22/27/93
f 33/33/112 37/34/116 3/35/69 1/36/65
f 35/37/114 39/38/118 37/34/116 33/33/112
f 2/39/67 4/40/71 39/38/118 35/37/114
f 37/34/116 41/41/120 5/42/73 3/35/69
f 39/38/118 43/43/122 41/41/120 37/34/116
f 4/40/71 6/44/75 43/43/122 39/38/118
f 41/41/120 45/45/124 7/46/77 5/42/73
f 43/43/122 47/47/126 45/45/124 41/41/120
f 6/44/75 8/48/79 47/47/126 43/43/122
f 27/49/101 38/50/117 34/51/113 25/52/97
f 38/50/117 40/53/119 36/54/115 34/51/113
f 40/53/119 28/55/103 26/56/99 36/54/115
f 29/57/105 42/58/121 38/50/117 27/49/101
f 42/58/121 44/59/123 40/53/119 38/50/117
f 44/59/123 30/60/107 28/55/103 40/53/119
f 31/61/109 46/62/125 42/58/121 29/57/105
f 46/62/125 48/63/127 44/59/123 42/58/121
f 48/63/127 32/64/111 30/60/107 44/59/123
f 51/65/134 57/66/148 55/67/142 49/68/128
f 53/69/138 59/70/152 57/66/148 51/65/134
f 56/71/145 58/72/150 52/73/136 50/74/131
f 58/72/150 60/75/154 54/76/140 52/73/136
f 61/77/156 65/78/164 51/79/135 49/80/130
f 63/81/160 67/82/166 65/78/164 61/77/156
f 50/83/133 52/84/137 67/82/166 63/81/160
f 65/78/164 69/85/168 53/86/139 51/79/135
f 67/82/166 71/87/170 69/85/168 65/78/164
f 52/84/137 54/88/141 71/87/170 67/82/166
f 57/89/149 66/90/165 62/91/158 55/92/144
f 66/90/165 68/93/167 64/94/162 62/91/158
f 68/93/167 58/95/151 56/96/147 64/94/162
f 59/97/153 70/98/169 66/90/165 57/89/149
f 70/98/169 72/99/171 68/93/167 66/90/165
f 72/99/171 60/100/155 58/95/151 68/93/167
f 60/101/155 72/102/171 71/103/170 54/104/141
f 71/103/170 72/102/171 70/105/169 69/106/168
f 69/106/168 70/105/169 59/107/153 53/108/139
f 55/109/143 74/110/173 73/111/172 49/112/129
f 50/113/132 75/114/174 76/115/175 56/116/146
f 49/112/129 73/111/172 77/117/176 61/118/157
f 61/118/157 77/117/176 78/119/177 63/120/161
f 63/120/161 78/119/177 75/114/174 50/113/132
f 62/121/159 79/122/178 74/110/173 55/109/143
f 64/123/163 80/124/179 79/122/178 62/121/159
f 56/116/146 76/115/175 80/124/179 64/123/163

# End of Object "house4"
