# Blender 3.6.0
# www.blender.org
mtllib house.mtl
o house
v 382.657013 4.594613 168.820999
v 382.657013 4.594588 -166.940002
v 382.657013 387.532990 168.820969
v 382.657013 387.532990 -166.940033
v -406.850006 4.594583 168.820999
v -406.850006 4.594558 -166.940002
v -406.850006 387.532990 168.820969
v -406.850006 387.532990 -166.940033
v 382.657013 530.234985 24.926760
v -406.850006 530.234985 24.926861
v -406.850006 530.234985 -17.099840
v 382.657013 530.234985 -17.099939
v 398.164001 348.348022 243.248962
v 398.164001 348.347961 -243.249023
v 384.739990 567.177979 11.764757
v 384.739990 567.177979 -11.764943
v -417.641998 348.348022 243.248962
v -417.641998 348.347961 -243.249023
v -417.641998 567.177979 11.764757
v -417.641998 567.177979 -11.764843
v -417.641998 520.273010 61.385860
v 384.739990 520.273010 61.385761
v 384.739990 520.273010 -61.385937
v -417.641998 520.273010 -61.385937
v -417.641998 520.273010 -17.099939
v 398.164001 348.347992 -198.893036
v -417.641998 348.347992 -198.893036
v 384.739990 520.273010 -17.100040
v -417.641998 520.273010 17.387461
v -417.641998 348.348022 205.196976
v 398.164001 348.348022 205.196976
v 384.739990 520.273010 17.387461
v 496.079010 4.339576 77.509102
v 496.079010 4.339564 -78.155502
v 496.079010 641.763977 53.515049
v 496.079010 641.763977 -53.515251
v 389.045013 4.339576 77.509102
v 389.045013 4.339564 -78.155502
v 389.045013 641.763977 53.515049
v 389.045013 641.763977 -53.515251
v 389.045013 282.615997 53.515076
v 496.079010 282.615997 53.515076
v 496.079010 282.615997 -53.515224
v 389.045013 282.615997 -53.515224
v 496.079010 256.453003 77.509079
v 389.045013 256.453003 77.509079
v 389.045013 256.453003 -78.155525
v 496.079010 256.453003 -78.155525
v 384.739990 498.855988 80.634163
v -417.641998 498.855988 80.634163
v 384.739990 460.151001 80.634163
v -417.641998 460.151001 80.634163
v -417.641998 502.687988 -79.906639
v 384.739990 502.687988 -79.906738
v 384.739990 460.789001 -79.906738
v -417.641998 460.789001 -79.906738
v 396.748993 492.467010 87.800262
v -417.641998 492.467010 89.130661
v 396.963013 454.450012 87.800270
v -417.641998 454.449005 89.130669
v -417.641998 494.539001 -88.465836
v 396.250000 494.539001 -86.470436
v 396.572998 453.317993 -86.470428
v -417.641998 453.317993 -88.465828
v 382.657013 387.532990 74.190468
v 382.657013 4.594606 74.190498
v -406.850006 4.594576 74.190697
v -406.850006 387.532990 74.190567
v 382.656006 481.472992 74.190460
v -406.850006 481.472992 74.190659
v 382.657013 488.171997 -61.266239
v -406.850006 488.171997 -61.266140
v 382.657013 387.532990 -61.266232
v 382.657013 4.594595 -61.266201
v -406.850006 4.594535 -61.265999
v -406.850006 387.532990 -61.266029
v -32.478901 4.594603 168.820999
v -32.478901 387.532990 168.820969
v -32.479000 387.532990 -166.940033
v -32.479000 4.594578 -166.940002
v 212.298004 387.532990 168.820969
v 212.298004 4.594603 168.820999
v 212.298004 4.594578 -166.940002
v 212.298004 387.532990 -166.940033
v -406.850006 295.618011 168.820984
v 382.657013 295.618011 168.820984
v 382.657013 295.618011 -166.940018
v -406.850006 295.618011 -166.940018
v 382.657013 295.618011 74.190475
v -406.850006 295.618011 74.190575
v 382.657013 295.618011 -61.266224
v -406.850006 295.618011 -61.266022
v -32.478901 295.618011 168.820984
v -32.479000 295.618011 -166.940018
v 212.298004 295.618011 168.820984
v 212.298004 295.618011 -166.940018
v 382.657013 162.587006 74.190483
v 382.657013 162.587021 168.820984
v -406.850006 162.587021 168.820984
v -406.850006 162.587006 74.190582
v 382.657013 162.587006 -61.266212
v 382.657013 162.586990 -166.940018
v -406.850006 162.587006 -61.266010
v -406.850006 162.586990 -166.940018
v -32.478901 162.587021 168.820984
v -32.479000 162.586990 -166.940018
v 212.298004 162.587021 168.820984
v 212.298004 162.586990 -166.940018
v -378.806000 567.177979 11.764757
v -378.806000 567.177979 -11.764843
v -378.806000 348.348022 243.248962
v -378.806000 520.273010 61.385860
v -378.806000 348.347961 -243.249023
v -378.806000 520.273010 -61.385937
v -378.806000 348.347992 -198.893036
v -378.806000 348.348022 205.196976
v -378.806000 498.855988 80.634163
v -378.806000 502.687988 -79.906738
v -378.806000 492.467010 89.067162
v -378.806000 494.539001 -88.370636
v -265.738007 567.177979 -11.764843
v -265.738007 567.177979 11.764757
v -265.738007 520.273010 61.385860
v -265.738007 520.273010 -61.385937
v -265.738007 348.347992 -198.893036
v -265.738007 348.347961 -243.249023
v -265.738007 348.348022 243.248962
v -265.738007 348.348022 205.196976
v -265.738007 498.855988 80.634163
v -265.738007 502.687988 -79.906738
v -265.738007 492.467010 88.882462
v -265.738007 494.539001 -88.093437
v -37.807201 567.177979 -11.764943
v -37.807201 567.177979 11.764757
v -37.807201 520.273010 61.385860
v -37.807201 520.273010 -61.385937
v -37.807201 348.347992 -198.893036
v -37.807201 348.347961 -243.249023
v -37.807201 348.348022 243.248962
v -37.807201 348.348022 205.196976
v -37.807201 498.855988 80.634163
v -37.807201 502.687988 -79.906738
v -37.807201 492.467010 88.510162
v -37.807201 494.539001 -87.534637
v 166.792007 567.177979 -11.764943
v 166.792007 567.177979 11.764757
v 166.792007 520.273010 61.385761
v 166.792007 520.273010 -61.385937
v 166.792007 348.347992 -198.893036
v 166.792007 348.347961 -243.249023
v 166.792007 348.348022 243.248962
v 166.792007 348.348022 205.196976
v 166.792007 498.855988 80.634163
v 166.792007 502.687988 -79.906738
v 166.792007 492.467010 88.175865
v 166.792007 494.539001 -87.032936
vn -1.0000 -0.0000 -0.0000
vn 1.0000 -0.0000 -0.0000
vn -0.0000 1.0000 -0.0000
vn -0.0000 0.3626 0.9319
vn -0.0000 -0.0000 1.0000
vn -0.0000 0.3688 -0.9295
vn -0.0000 -0.0000 -1.0000
vn 0.5057 -0.0000 -0.8627
vn 0.5058 -0.0000 -0.8627
vn 1.0000 0.0098 -0.0000
vn 0.4851 -0.0000 0.8745
vn 0.9999 0.0152 -0.0000
vn 0.9999 0.0151 -0.0000
vn -0.0000 0.9292 -0.3696
vn -0.0000 0.9292 0.3696
vn -0.0000 0.9292 0.3697
vn -0.0000 0.6982 0.7159
vn -0.0000 0.7259 -0.6878
vn -0.0000 0.9292 -0.3697
vn -0.0000 -1.0000 -0.0000
vn -0.0000 0.7373 0.6756
vn -0.0000 0.7367 0.6762
vn -0.0000 0.7238 -0.6900
vn -0.0000 0.7249 -0.6889
vn -0.0000 0.7259 -0.6877
vn 0.0005 0.7373 0.6756
vn -0.0000 0.7659 0.6429
vn -0.0000 0.7654 0.6436
vn 0.0001 0.7304 0.6830
vn 0.0001 0.7305 0.6829
vn -0.0000 0.7247 -0.6891
vn -0.0000 0.7256 -0.6881
vn -0.0000 0.7237 -0.6901
vn -0.0001 0.7271 -0.6865
vn -0.0001 0.7270 -0.6867
vn -0.0000 0.7260 -0.6877
vn -0.0000 0.7343 0.6789
vn -0.0000 0.7199 -0.6941
vn 0.0005 0.7367 0.6762
vn -0.0000 0.7632 0.6462
vn -0.0000 0.7305 0.6829
vn 0.0001 0.7307 0.6826
vn -0.0000 0.7211 -0.6929
vn 0.0002 0.7275 -0.6861
vn 0.0001 0.7271 -0.6865
vn -0.0000 0.7247 -0.6890
vn -0.0000 0.7211 -0.6928
vn -0.0000 0.7286 0.6849
vn -0.0000 0.7108 -0.7034
vn 0.0005 0.7343 0.6789
vn -0.0000 0.7581 0.6521
vn -0.0000 0.7581 0.6522
vn -0.0000 0.7307 0.6827
vn 0.0001 0.7314 0.6820
vn -0.0000 0.7125 -0.7017
vn -0.0000 0.7284 -0.6851
vn -0.0000 0.7275 -0.6861
vn -0.0000 0.7169 0.6972
vn 0.0003 0.7169 0.6972
vn -0.0000 0.7090 0.7052
vn 0.0005 0.6917 -0.7222
vn -0.0000 0.7108 -0.7033
vn 0.0009 0.6785 -0.7346
vn 0.0005 0.7286 0.6849
vn 0.0005 0.7475 0.6642
vn 0.0011 0.7404 0.6722
vn 0.0005 0.7090 0.7052
vn 0.0005 0.7169 0.6972
vn 0.0006 0.7475 0.6642
vn -0.0000 0.7314 0.6819
vn 0.0006 0.7325 0.6808
vn 0.0006 0.7326 0.6807
vn 0.0011 0.7334 0.6799
vn 0.0009 0.6943 -0.7197
vn 0.0010 0.6785 -0.7346
vn 0.0018 0.6818 -0.7315
vn 0.0010 0.6943 -0.7197
vn 0.0008 0.7303 -0.6832
vn 0.0008 0.6943 -0.7197
vn 0.0014 0.6818 -0.7315
vn 0.0017 0.7314 -0.6819
vn 0.0008 0.7301 -0.6833
vt 0.402830 0.529020
vt 0.402830 0.511990
vt 0.402830 0.490270
vt 0.402830 0.514770
vt 0.402830 0.526390
vt 0.402830 0.550890
vt 0.000000 0.529020
vt 0.000000 0.550890
vt 0.000000 0.526390
vt 0.000000 0.514770
vt 0.000000 0.490270
vt 0.000000 0.511990
vt 0.895230 0.156480
vt 0.948080 0.156480
vt 0.948080 0.209330
vt 0.895230 0.209330
vt 0.052850 0.779130
vt 0.052850 0.956470
vt 0.000000 0.956470
vt 0.000000 0.779130
vt 0.184610 0.779130
vt 0.184610 0.956470
vt 0.131760 0.956470
vt 0.131760 0.779130
vt 0.118570 0.779130
vt 0.118570 0.956470
vt 0.065720 0.956470
vt 0.065720 0.779130
vt 0.250650 0.779130
vt 0.250650 0.956470
vt 0.197810 0.956470
vt 0.197810 0.779130
vt 0.052850 0.766210
vt 0.000000 0.766210
vt 0.000000 0.641720
vt 0.052850 0.641720
vt 0.184610 0.766210
vt 0.131760 0.766210
vt 0.131760 0.641720
vt 0.184610 0.641720
vt 0.130740 0.766210
vt 0.053870 0.766210
vt 0.053870 0.641720
vt 0.130740 0.641720
vt 0.792690 0.165710
vt 0.840340 0.209330
vt 0.818610 0.209330
vt 0.792680 0.184820
vt 0.663910 0.184820
vt 0.637980 0.209330
vt 0.616260 0.209330
vt 0.663910 0.165710
vt 0.436660 0.186710
vt 0.412740 0.209330
vt 0.390870 0.209330
vt 0.436660 0.166020
vt 0.569440 0.166020
vt 0.615230 0.209330
vt 0.593360 0.209330
vt 0.569440 0.186710
vt 0.789610 0.162890
vt 0.789350 0.181670
vt 0.728810 0.124440
vt 0.747600 0.124440
vt 0.667240 0.181670
vt 0.666980 0.162890
vt 0.708990 0.124440
vt 0.727780 0.124440
vt 0.440920 0.182690
vt 0.440570 0.162340
vt 0.480640 0.124440
vt 0.502540 0.124440
vt 0.565540 0.162340
vt 0.565180 0.182690
vt 0.503570 0.124440
vt 0.525470 0.124440
vt 0.471500 0.926820
vt 0.430350 0.886000
vt 0.471500 0.886000
vt 0.388170 0.886000
vt 0.429320 0.886000
vt 0.388170 0.926820
vt 0.541520 0.886000
vt 0.596140 0.886000
vt 0.543960 0.935700
vt 0.315710 0.935700
vt 0.263530 0.886000
vt 0.318150 0.886000
vt 0.471500 0.840610
vt 0.430350 0.840610
vt 0.429320 0.840610
vt 0.388170 0.840610
vt 0.541520 0.840610
vt 0.596140 0.840610
vt 0.318150 0.840610
vt 0.263530 0.840610
vt 0.588720 0.595300
vt 0.588720 0.640690
vt 0.403860 0.640690
vt 0.403860 0.595300
vt 0.389850 0.354050
vt 0.389850 0.399440
vt 0.204990 0.399440
vt 0.204990 0.354050
vt 0.709580 0.595300
vt 0.709580 0.640690
vt 0.793700 0.595300
vt 0.793700 0.640690
vt 0.084120 0.399440
vt 0.084120 0.354050
vt 0.000000 0.399440
vt 0.000000 0.354050
vt 0.471500 0.774920
vt 0.430350 0.774920
vt 0.430350 0.696910
vt 0.471500 0.696910
vt 0.429320 0.774920
vt 0.388170 0.774920
vt 0.388170 0.696910
vt 0.429320 0.696910
vt 0.541520 0.774920
vt 0.541520 0.696910
vt 0.596140 0.774920
vt 0.596140 0.696910
vt 0.318150 0.774920
vt 0.318150 0.696910
vt 0.263530 0.774920
vt 0.263530 0.696910
vt 0.588720 0.529610
vt 0.403860 0.529610
vt 0.403860 0.451600
vt 0.588720 0.451600
vt 0.389850 0.288360
vt 0.204990 0.288360
vt 0.204990 0.210350
vt 0.389850 0.210350
vt 0.709580 0.529610
vt 0.709580 0.451600
vt 0.793700 0.529610
vt 0.793700 0.451600
vt 0.084120 0.288360
vt 0.084120 0.210350
vt 0.000000 0.288360
vt 0.000000 0.210350
vt 0.980500 0.830550
vt 1.000000 0.830550
vt 1.000000 0.842160
vt 0.980500 0.842160
vt 1.000000 0.866670
vt 0.980500 0.866670
vt 0.980500 0.806040
vt 1.000000 0.806040
vt 0.383650 0.618790
vt 0.402830 0.618790
vt 0.402830 0.640690
vt 0.383650 0.640690
vt 0.383650 0.400470
vt 0.402830 0.400470
vt 0.402830 0.419260
vt 0.383650 0.419260
vt 1.000000 0.892600
vt 0.980500 0.892600
vt 0.980500 0.782120
vt 1.000000 0.782120
vt 1.000000 0.895930
vt 0.980790 0.895930
vt 1.000000 0.956470
vt 0.980820 0.956470
vt 0.980780 0.777860
vt 1.000000 0.777860
vt 0.980820 0.716240
vt 1.000000 0.716240
vt 0.923740 0.830550
vt 0.923740 0.842160
vt 0.923740 0.866670
vt 0.923740 0.806040
vt 0.327820 0.618790
vt 0.327820 0.640690
vt 0.327820 0.400470
vt 0.327820 0.419260
vt 0.923740 0.892600
vt 0.923740 0.782120
vt 0.924860 0.895930
vt 0.924990 0.956470
vt 0.924820 0.777860
vt 0.924990 0.716240
vt 0.809310 0.830550
vt 0.809310 0.842160
vt 0.809310 0.866670
vt 0.809310 0.806040
vt 0.215270 0.618790
vt 0.215270 0.640690
vt 0.215270 0.400470
vt 0.215270 0.419260
vt 0.809310 0.892600
vt 0.809310 0.782120
vt 0.812120 0.895930
vt 0.812440 0.956470
vt 0.812000 0.777860
vt 0.812440 0.716240
vt 0.706590 0.830550
vt 0.706590 0.842160
vt 0.597170 0.842160
vt 0.597170 0.830550
vt 0.706590 0.866670
vt 0.597170 0.866670
vt 0.706590 0.806040
vt 0.597170 0.806040
vt 0.114250 0.618790
vt 0.114250 0.640690
vt 0.000000 0.640690
vt 0.000000 0.618790
vt 0.114250 0.400470
vt 0.114250 0.419260
vt 0.000000 0.419260
vt 0.000000 0.400470
vt 0.706590 0.892600
vt 0.597170 0.892600
vt 0.706590 0.782120
vt 0.597170 0.782120
vt 0.710920 0.895930
vt 0.597170 0.895930
vt 0.711420 0.956470
vt 0.597170 0.956470
vt 0.710740 0.777860
vt 0.597170 0.777860
vt 0.711420 0.716240
vt 0.597170 0.716240
vt 0.341690 0.951664
vt 0.323258 0.934051
vt 0.379883 0.931345
vt 0.359257 0.951693
vt 0.323328 0.891984
vt 0.379949 0.892078
vt 0.476818 0.929596
vt 0.534846 0.932316
vt 0.515975 0.950382
vt 0.497973 0.950428
vt 0.534736 0.889209
vt 0.476715 0.889358
s 0
usemtl ___default___.001
f 25/1/1 29/2/1 21/3/1 19/4/1 20/5/1 24/6/1
f 28/7/2 23/8/2 16/9/2 15/10/2 22/11/2 32/12/2
f 36/13/3 40/14/3 39/15/3 35/16/3
f 42/17/4 35/18/5 39/19/5 41/20/4
f 44/21/6 40/22/7 36/23/7 43/24/6
f 43/25/2 36/26/2 35/27/2 42/28/2
f 41/29/1 39/30/1 40/31/1 44/32/1
f 45/33/4 42/17/4 41/20/4 46/34/4
f 46/34/4 37/35/5 33/36/5 45/33/4
f 47/37/6 44/21/6 43/24/6 48/38/6
f 48/38/6 34/39/7 38/40/7 47/37/6
f 48/41/2 43/25/2 42/28/2 45/42/2
f 45/42/2 33/43/2 34/44/2 48/41/2
f 51/45/2 32/46/2 22/47/2 49/48/2
f 50/49/1 21/50/1 29/51/1 52/52/1
f 54/53/2 23/54/2 28/55/2 55/56/2
f 56/57/1 25/58/1 24/59/1 53/60/1
f 59/61/8 51/45/9 49/48/8 57/62/9
f 57/62/10 13/63/10 31/64/10 59/61/10
f 58/65/1 50/49/1 52/52/1 60/66/1
f 60/66/1 30/67/1 17/68/1 58/65/1
f 62/69/11 54/53/11 55/56/11 63/70/11
f 63/70/12 26/71/13 14/72/12 62/69/13
f 64/73/1 56/57/1 53/60/1 61/74/1
f 61/74/1 18/75/1 27/76/1 64/73/1
f 69/77/2 3/78/2 65/79/2
f 68/80/1 7/81/1 70/82/1
f 73/83/2 4/84/2 71/85/2
f 72/86/1 8/87/1 76/88/1
f 89/89/2 65/79/2 3/78/2 86/90/2
f 85/91/1 7/81/1 68/80/1 90/92/1
f 91/93/2 73/83/2 65/79/2 89/89/2
f 87/94/2 4/84/2 73/83/2 91/93/2
f 90/92/1 68/80/1 76/88/1 92/95/1
f 92/95/1 76/88/1 8/87/1 88/96/1
f 93/97/5 78/98/5 7/99/5 85/100/5
f 88/101/7 8/102/7 79/103/7 94/104/7
f 95/105/5 81/106/5 78/98/5 93/97/5
f 86/107/5 3/108/5 81/106/5 95/105/5
f 94/104/7 79/103/7 84/109/7 96/110/7
f 96/110/7 84/109/7 4/111/7 87/112/7
f 97/113/2 89/89/2 86/90/2 98/114/2
f 98/114/2 1/115/2 66/116/2 97/113/2
f 99/117/1 85/91/1 90/92/1 100/118/1
f 100/118/1 67/119/1 5/120/1 99/117/1
f 101/121/2 91/93/2 89/89/2 97/113/2
f 97/113/2 66/116/2 74/122/2 101/121/2
f 102/123/2 87/94/2 91/93/2 101/121/2
f 101/121/2 74/122/2 2/124/2 102/123/2
f 100/118/1 90/92/1 92/95/1 103/125/1
f 103/125/1 75/126/1 67/119/1 100/118/1
f 103/125/1 92/95/1 88/96/1 104/127/1
f 104/127/1 6/128/1 75/126/1 103/125/1
f 105/129/5 93/97/5 85/100/5 99/130/5
f 99/130/5 5/131/5 77/132/5 105/129/5
f 104/133/7 88/101/7 94/104/7 106/134/7
f 106/134/7 80/135/7 6/136/7 104/133/7
f 107/137/5 95/105/5 93/97/5 105/129/5
f 105/129/5 77/132/5 82/138/5 107/137/5
f 98/139/5 86/107/5 95/105/5 107/137/5
f 107/137/5 82/138/5 1/140/5 98/139/5
f 106/134/7 94/104/7 96/110/7 108/141/7
f 108/141/7 83/142/7 80/135/7 106/134/7
f 108/141/7 96/110/7 87/112/7 102/143/7
f 102/143/7 2/144/7 83/142/7 108/141/7
f 110/145/14 20/146/14 19/147/15 109/148/15
f 109/148/16 19/147/16 21/149/17 112/150/17
f 114/151/18 24/152/18 20/146/19 110/145/19
f 115/153/20 27/154/20 18/155/20 113/156/20
f 111/157/20 17/158/20 30/159/20 116/160/20
f 112/150/17 21/149/17 50/161/21 117/162/22
f 118/163/23 53/164/24 24/152/25 114/151/25
f 117/162/22 50/161/26 58/165/27 119/166/28
f 119/166/28 58/165/27 17/167/29 111/168/30
f 120/169/31 61/170/32 53/164/31 118/163/33
f 113/171/34 18/172/35 61/170/32 120/169/31
f 121/173/14 110/145/14 109/148/15 122/174/15
f 122/174/16 109/148/16 112/150/17 123/175/17
f 124/176/36 114/151/36 110/145/19 121/173/19
f 125/177/20 115/153/20 113/156/20 126/178/20
f 127/179/20 111/157/20 116/160/20 128/180/20
f 123/175/17 112/150/17 117/162/22 129/181/37
f 130/182/38 118/163/23 114/151/25 124/176/25
f 129/181/37 117/162/39 119/166/28 131/183/40
f 131/183/40 119/166/28 111/168/41 127/184/42
f 132/185/43 120/169/31 118/163/33 130/182/38
f 126/186/44 113/171/45 120/169/46 132/185/47
f 133/187/14 121/173/14 122/174/15 134/188/15
f 134/188/16 122/174/16 123/175/17 135/189/17
f 136/190/36 124/176/36 121/173/19 133/187/19
f 137/191/20 125/177/20 126/178/20 138/192/20
f 139/193/20 127/179/20 128/180/20 140/194/20
f 135/189/17 123/175/17 129/181/37 141/195/48
f 142/196/49 130/182/38 124/176/25 136/190/25
f 141/195/48 129/181/50 131/183/40 143/197/51
f 143/197/52 131/183/40 127/184/53 139/198/54
f 144/199/55 132/185/43 130/182/38 142/196/49
f 138/200/56 126/186/57 132/185/47 144/199/55
f 145/201/14 133/187/14 134/188/15 146/202/15
f 146/202/15 15/203/15 16/204/14 145/201/14
f 146/202/16 134/188/16 135/189/17 147/205/17
f 147/205/17 22/206/17 15/203/16 146/202/16
f 148/207/36 136/190/36 133/187/19 145/201/19
f 145/201/19 16/204/19 23/208/36 148/207/36
f 149/209/20 137/191/20 138/192/20 150/210/20
f 150/210/20 14/211/20 26/212/20 149/209/20
f 151/213/20 139/193/20 140/194/20 152/214/20
f 152/214/20 31/215/20 13/216/20 151/213/20
f 147/205/17 135/189/17 141/195/48 153/217/58
f 153/217/59 49/218/60 22/206/17 147/205/17
f 154/219/61 142/196/62 136/190/25 148/207/25
f 148/207/36 23/208/36 54/220/63 154/219/61
f 153/217/59 141/195/64 143/197/52 155/221/65
f 155/221/65 57/222/66 49/218/67 153/217/68
f 155/221/69 143/197/51 139/198/70 151/223/71
f 151/223/72 13/224/73 57/222/66 155/221/65
f 156/225/74 144/199/55 142/196/49 154/219/61
f 154/219/61 54/220/75 62/226/76 156/225/77
f 150/227/78 138/200/56 144/199/55 156/225/79
f 156/225/74 62/226/80 14/228/81 150/227/82
f 11/229/1 72/230/1 70/231/1 10/232/1
f 70/231/1 72/230/1 76/233/1 68/234/1
f 69/235/2 71/236/2 12/237/2 9/238/2
f 73/239/2 71/236/2 69/235/2 65/240/2
