# Blender 3.6.0
# www.blender.org
mtllib house3.mtl
o house1
v -62.112720 1.708902 -91.664909
v -62.112720 1.708828 91.664909
v -62.112720 42.385345 -91.664909
v -62.112720 42.385361 91.664909
v -62.112720 83.061852 -91.664917
v -62.112720 83.061867 91.664902
v -62.112720 123.738358 -91.664917
v -62.112720 123.738251 91.664902
v -20.704281 1.708902 -91.664909
v -20.704281 1.708828 91.664909
v -20.704281 42.385345 -91.664909
v -20.704281 42.385361 91.664909
v -20.704281 83.061852 -91.664917
v -20.704281 83.061867 91.664902
v -20.704281 123.738358 -91.664917
v -20.704281 123.738251 91.664902
v 20.704157 1.708902 -91.664909
v 20.704281 1.708828 91.664909
v 20.704157 42.385345 -91.664909
v 20.704281 42.385361 91.664909
v 20.704157 83.061852 -91.664917
v 20.704281 83.061867 91.664902
v 20.704157 123.738358 -91.664917
v 20.704281 123.738251 91.664902
v 62.112720 1.708902 -91.664909
v 62.112720 1.708828 91.664909
v 62.112720 42.385345 -91.664909
v 62.112720 42.385361 91.664909
v 62.112720 83.061852 -91.664917
v 62.112720 83.061867 91.664902
v 62.112720 123.738358 -91.664917
v 62.112720 123.738251 91.664902
v -62.112720 1.708881 -30.555056
v 62.112720 1.708881 -30.554928
v -62.112720 1.708861 30.554928
v 62.112720 1.708861 30.554928
v -62.112720 42.385349 -30.555059
v 62.112720 42.385349 -30.554932
v -62.112720 42.385357 30.554924
v 62.112720 42.385357 30.554924
v -62.112720 83.061859 -30.555061
v 62.112720 83.061859 -30.554934
v -62.112720 83.061859 30.554922
v 62.112720 83.061859 30.554922
v -62.112720 123.738365 -30.555065
v 62.112720 123.738365 -30.554937
v -62.112720 123.738365 30.554918
v 62.112720 123.738365 30.554918
v -69.825638 124.302773 -98.320442
v -69.825638 124.302788 98.320427
v -36.427124 155.786240 -98.320450
v -36.427124 155.786240 98.320419
v -2.575953 187.268982 -98.320450
v -2.575953 187.268982 98.320419
v 70.137505 124.302773 -98.320442
v 70.137505 124.302650 98.320427
v 36.738865 155.786240 -98.320450
v 36.738865 155.786240 98.320419
v 2.887807 187.268982 -98.320450
v 2.887807 187.268982 98.320419
v -69.825638 124.302780 -32.773525
v 70.137505 124.302780 -32.773525
v -69.825638 124.302780 32.773510
v 70.137505 124.302780 32.773510
v -36.427124 155.786240 -32.773529
v 36.738865 155.786240 -32.773529
v -36.427124 155.786240 32.773506
v 36.738865 155.786240 32.773506
v -2.575953 187.268982 -32.773533
v 2.887807 187.268982 -32.773533
v -2.575953 187.268982 32.773502
v 2.887807 187.268982 32.773502
v -63.272774 123.880943 -93.290886
v 63.584641 123.881065 -93.290886
v -63.272774 123.880959 93.290871
v 63.584641 123.880959 93.290871
v -64.110130 124.556702 -31.096926
v -64.110130 124.556702 31.096907
v 64.421997 124.556702 -31.096926
v 64.421997 124.556702 31.096907
vn -0.0000 -0.0000 -1.0000
vn -0.0000 -0.0000 1.0000
vn -1.0000 -0.0000 -0.0000
vn 1.0000 -0.0000 -0.0000
vn -0.6859 0.7277 -0.0000
vn -0.6835 0.7300 -0.0000
vn -0.6835 0.7299 -0.0000
vn -0.3659 0.9307 -0.0000
vn 0.6835 0.7300 -0.0000
vn 0.6859 0.7277 -0.0000
vn 0.3659 0.9307 -0.0000
vn 0.6835 0.7299 -0.0000
vn -0.0206 -0.9991 -0.0361
vn 0.0206 -0.9991 -0.0361
vn 0.0206 -0.9991 0.0361
vn -0.0206 -0.9991 0.0361
vn 0.0205 -0.9991 -0.0361
vn 0.0427 -0.9991 0.0057
vn 0.0427 -0.9991 -0.0057
vn 0.0205 -0.9991 0.0361
vn -0.0427 -0.9991 0.0057
vn -0.0205 -0.9991 -0.0361
vn -0.0427 -0.9991 -0.0057
vn -0.0205 -0.9991 0.0361
vt 0.185917 0.880498
vt 0.128948 0.880484
vt 0.129320 0.831323
vt 0.183850 0.830429
vt 0.185557 0.924114
vt 0.128640 0.923505
vt 0.184946 0.981533
vt 0.127827 0.981956
vt 0.070961 0.879939
vt 0.070828 0.832260
vt 0.069195 0.925346
vt 0.069853 0.980596
vt 0.015225 0.880949
vt 0.014118 0.831842
vt 0.014954 0.925253
vt 0.015525 0.981010
vt 0.569375 0.837181
vt 0.569989 0.888287
vt 0.516325 0.888548
vt 0.516247 0.837026
vt 0.570731 0.931820
vt 0.518346 0.933547
vt 0.570103 0.985765
vt 0.516756 0.985748
vt 0.634314 0.836405
vt 0.635124 0.888648
vt 0.635559 0.930844
vt 0.635247 0.985964
vt 0.681875 0.834868
vt 0.683927 0.887521
vt 0.683625 0.932229
vt 0.685751 0.985952
vt 0.307733 0.832315
vt 0.306618 0.885123
vt 0.233378 0.885665
vt 0.233470 0.831640
vt 0.384193 0.832163
vt 0.381742 0.886010
vt 0.458223 0.832328
vt 0.457685 0.884234
vt 0.305019 0.932178
vt 0.232732 0.932092
vt 0.381188 0.934212
vt 0.456262 0.932005
vt 0.303577 0.977925
vt 0.233319 0.979299
vt 0.380699 0.978865
vt 0.456925 0.979409
vt 0.947572 0.883927
vt 0.881031 0.885705
vt 0.879870 0.827401
vt 0.948601 0.827321
vt 0.805813 0.886037
vt 0.807149 0.828765
vt 0.731043 0.886288
vt 0.731916 0.828525
vt 0.948516 0.935328
vt 0.880131 0.935187
vt 0.803647 0.935558
vt 0.730801 0.937301
vt 0.949413 0.988480
vt 0.879572 0.989597
vt 0.804419 0.988340
vt 0.731134 0.987736
vt 0.402273 0.599672
vt 0.151497 0.602406
vt 0.033260 0.466800
vt 0.498696 0.466460
vt 0.295482 0.727937
vt 0.272003 0.726800
vt 0.499436 0.467643
vt 0.400545 0.600178
vt 0.150801 0.598703
vt 0.036456 0.466786
vt 0.295451 0.725571
vt 0.270323 0.726868
vt 0.496122 0.373847
vt 0.494346 0.202712
vt 0.690122 0.199099
vt 0.693913 0.374048
vt 0.281252 0.374732
vt 0.278393 0.202324
vt 0.078050 0.373676
vt 0.081125 0.201205
vt 0.490942 0.022919
vt 0.687229 0.022706
vt 0.273522 0.019251
vt 0.083370 0.016662
vt 0.077413 0.205710
vt 0.279290 0.205319
vt 0.280418 0.376613
vt 0.075556 0.374917
vt 0.494330 0.203178
vt 0.493271 0.375066
vt 0.690778 0.201244
vt 0.693452 0.372273
vt 0.080159 0.019251
vt 0.274536 0.017980
vt 0.492238 0.020670
vt 0.691253 0.022154
vt 0.022745 0.404045
vt 0.121687 0.403249
vt 0.121021 0.427526
vt 0.022183 0.426731
vt 0.265604 0.400758
vt 0.264745 0.426029
vt 0.349108 0.402988
vt 0.350514 0.426151
vt 0.931546 0.171669
vt 0.953657 0.171474
vt 0.952402 0.304191
vt 0.932918 0.303534
vt 0.742218 0.305040
vt 0.720741 0.305486
vt 0.721055 0.170466
vt 0.743711 0.169650
vt 0.950818 0.463670
vt 0.933473 0.443792
vt 0.721289 0.464523
vt 0.741331 0.444703
vt 0.928972 0.038244
vt 0.953541 0.018238
vt 0.745217 0.038981
vt 0.718031 0.019580
s 0
usemtl ___default___.001
f 3/1/1 11/2/1 9/3/1 1/4/1
f 5/5/1 13/6/1 11/2/1 3/1/1
f 7/7/1 15/8/1 13/6/1 5/5/1
f 11/2/1 19/9/1 17/10/1 9/3/1
f 13/6/1 21/11/1 19/9/1 11/2/1
f 15/8/1 23/12/1 21/11/1 13/6/1
f 19/9/1 27/13/1 25/14/1 17/10/1
f 21/11/1 29/15/1 27/13/1 19/9/1
f 23/12/1 31/16/1 29/15/1 21/11/1
f 10/17/2 12/18/2 4/19/2 2/20/2
f 12/18/2 14/21/2 6/22/2 4/19/2
f 14/21/2 16/23/2 8/24/2 6/22/2
f 18/25/2 20/26/2 12/18/2 10/17/2
f 20/26/2 22/27/2 14/21/2 12/18/2
f 22/27/2 24/28/2 16/23/2 14/21/2
f 26/29/2 28/30/2 20/26/2 18/25/2
f 28/30/2 30/31/2 22/27/2 20/26/2
f 30/31/2 32/32/2 24/28/2 22/27/2
f 33/33/3 37/34/3 3/35/3 1/36/3
f 35/37/3 39/38/3 37/34/3 33/33/3
f 2/39/3 4/40/3 39/38/3 35/37/3
f 37/34/3 41/41/3 5/42/3 3/35/3
f 39/38/3 43/43/3 41/41/3 37/34/3
f 4/40/3 6/44/3 43/43/3 39/38/3
f 41/41/3 45/45/3 7/46/3 5/42/3
f 43/43/3 47/47/3 45/45/3 41/41/3
f 6/44/3 8/48/3 47/47/3 43/43/3
f 27/49/4 38/50/4 34/51/4 25/52/4
f 38/50/4 40/53/4 36/54/4 34/51/4
f 40/53/4 28/55/4 26/56/4 36/54/4
f 29/57/4 42/58/4 38/50/4 27/49/4
f 42/58/4 44/59/4 40/53/4 38/50/4
f 44/59/4 30/60/4 28/55/4 40/53/4
f 31/61/4 46/62/4 42/58/4 29/57/4
f 46/62/4 48/63/4 44/59/4 42/58/4
f 48/63/4 32/64/4 30/60/4 44/59/4
f 51/65/1 57/66/1 55/67/1 49/68/1
f 53/69/1 59/70/1 57/66/1 51/65/1
f 56/71/2 58/72/2 52/73/2 50/74/2
f 58/72/2 60/75/2 54/76/2 52/73/2
f 61/77/5 65/78/6 51/79/6 49/80/5
f 63/81/5 67/82/6 65/78/6 61/77/5
f 50/83/5 52/84/6 67/82/6 63/81/5
f 65/78/7 69/85/8 53/86/8 51/79/7
f 67/82/6 71/87/8 69/85/8 65/78/6
f 52/84/7 54/88/8 71/87/8 67/82/7
f 57/89/9 66/90/9 62/91/10 55/92/10
f 66/90/9 68/93/9 64/94/10 62/91/10
f 68/93/9 58/95/9 56/96/10 64/94/10
f 59/97/11 70/98/11 66/90/9 57/89/9
f 70/98/11 72/99/11 68/93/12 66/90/12
f 72/99/11 60/100/11 58/95/9 68/93/9
f 60/101/11 72/102/11 71/103/8 54/104/8
f 71/103/8 72/102/11 70/105/11 69/106/8
f 69/106/8 70/105/11 59/107/11 53/108/8
f 55/109/13 74/110/13 73/111/14 49/112/14
f 50/113/15 75/114/15 76/115/16 56/116/16
f 49/112/17 73/111/17 77/117/18 61/118/18
f 61/118/18 77/117/18 78/119/19 63/120/19
f 63/120/19 78/119/19 75/114/20 50/113/20
f 62/121/21 79/122/21 74/110/13 55/109/22
f 64/123/23 80/124/23 79/122/21 62/121/21
f 56/116/24 76/115/24 80/124/23 64/123/23
