# Created with Anim8or 1.00
# Object "object01":

mtllib plain3.mtl

# Shape "mesh01":
g mesh01
# No. points 25:
v -199.117 0.07023 -198.995
v -199.117 0.07023 198.995
v -99.6199 0.07023 -198.995
v -99.6199 0.07023 198.995
v -0.12238 0.07023 -198.995
v -0.12238 0.07023 198.995
v 99.3751 0.07023 -198.995
v 99.3751 0.07023 198.995
v 198.873 0.07023 -198.995
v 198.873 0.07023 198.995
v -199.117 0.07023 -99.4975
v 198.873 0.07023 -99.4975
v -199.117 0.07023 -0.00002
v 198.873 0.07023 -0.00002
v -199.117 0.07023 99.4975
v 198.873 0.07023 99.4975
v -99.6199 0.07023 -99.4975
v -99.6199 0.07023 -0.00002
v -99.6199 0.07023 99.4975
v -0.12238 0.07023 -99.4975
v -0.12238 0.07023 -0.00002
v -0.12238 0.07023 99.4975
v 99.3751 0.07023 -99.4975
v 99.3751 0.07023 -0.00002
v 99.3751 0.07023 99.4975

# No. normals 41:
vn 0 -1 0
vn 0 -1 0
vn 0 -1 0
vn 0 -1 0
vn 0 -1 0
vn 0 -1 0
vn 0 -1 0
vn 0 -1 0
vn 0 -1 0
vn 0 -1 0
vn 0 -1 0
vn 0 -1 0
vn 0 -1 0
vn 0 -1 0
vn 0 -1 0
vn 0 -1 0
vn 0 -1 0
vn 0 -1 0
vn 0 -1 0
vn 0 -1 0
vn 0 -1 0
vn 0 -1 0
vn 0 -1 0
vn 0 -1 0
vn 0 -1 0
vn 0 -1 0
vn 0 -1 0
vn 0 -1 0
vn 0 -1 0
vn 0 -1 0
vn 0 -1 0
vn 0 -1 0
vn 0 -1 0
vn 0 -1 0
vn 0 -1 0
vn 0 -1 0
vn 0 -1 0
vn 0 -1 0
vn 0 -1 0
vn 0 -1 0
vn 0 -1 0

# No. texture coordinates 25:
vt 0 0
vt 0 0
vt 0.25000 0
vt 0.25000 0
vt 0.50000 0
vt 0.50000 0
vt 0.75000 0
vt 0.75000 0
vt 1 0
vt 1 0
vt 0 0
vt 1 0
vt 0 0
vt 1 0
vt 0 0
vt 1 0
vt 0.25000 0
vt 0.25000 0
vt 0.25000 0
vt 0.50000 0
vt 0.50000 0
vt 0.50000 0
vt 0.75000 0
vt 0.75000 0
vt 0.75000 0

# No. faces 16:

usemtl ___default___

f 3/3/19 17/17/33 11/11/27 1/1/17
f 17/17/33 18/18/34 13/13/29 11/11/27
f 18/18/34 19/19/35 15/15/31 13/13/29
f 19/19/35 4/4/20 2/2/18 15/15/31
f 5/5/21 20/20/36 17/17/33 3/3/19
f 20/20/36 21/21/37 18/18/34 17/17/33
f 21/21/37 22/22/38 19/19/35 18/18/34
f 22/22/38 6/6/22 4/4/20 19/19/35
f 7/7/23 23/23/39 20/20/36 5/5/21
f 23/23/39 24/24/40 21/21/37 20/20/36
f 24/24/40 25/25/41 22/22/38 21/21/37
f 25/25/41 8/8/24 6/6/22 22/22/38
f 9/9/25 12/12/28 23/23/39 7/7/23
f 12/12/28 14/14/30 24/24/40 23/23/39
f 14/14/30 16/16/32 25/25/41 24/24/40
f 16/16/32 10/10/26 8/8/24 25/25/41

# End of Object "object01"
