# Created with Anim8or 1.00
# Object "wall":

mtllib plain4.mtl

# Shape "mesh01":
g mesh01
# No. points 18:
v -194.675 0.74733 -198.146
v -194.675 0.74731 198.146
v -194.675 117.795 -198.146
v -194.675 117.795 198.146
v -194.675 0.74733 -99.8814
v -194.675 117.795 -99.8814
v -194.675 0.74732 0.51910
v -194.675 117.795 0.51910
v -194.675 0.74731 100.141
v -194.675 117.795 100.141
v -194.675 117.795 -149.693
v -194.675 0.74733 -149.693
v -194.675 117.795 -49.292
v -194.675 0.74732 -49.292
v -194.675 117.795 49.9411
v -194.675 0.74732 49.9411
v -194.675 0.74731 151.12
v -194.675 117.795 151.12

# No. normals 26:
vn 1 0 0
vn 1 0 0
vn 1 0 0
vn 1 0 0
vn 1 0 0
vn 1 0 0
vn 1 0 0
vn 1 0 0
vn 1 0 0
vn 1 0 0
vn 1 0 0
vn 1 0 0
vn 1 0 0
vn 1 0 0
vn 1 0 0
vn 1 0 0
vn 1 0 0
vn 1 0 0
vn 1 0 0
vn 1 0 0
vn 1 0 0
vn 1 0 0
vn 1 0 0
vn 1 0 0
vn 1 0 0
vn 1 0 0

# No. texture coordinates 18:
vt 1 0
vt 1 0
vt 1 1
vt 1 1
vt 1 0
vt 1 1
vt 1 0
vt 1 1
vt 1 0
vt 1 1
vt 1 1
vt 1 0
vt 1 1
vt 1 0
vt 1 1
vt 1 0
vt 1 0
vt 1 1

# No. faces 8:

usemtl ___default___

f 11/11/19 6/6/14 5/5/13 12/12/20
f 12/12/20 1/1/9 3/3/11 11/11/19
f 13/13/21 8/8/16 7/7/15 14/14/22
f 14/14/22 5/5/13 6/6/14 13/13/21
f 15/15/23 10/10/18 9/9/17 16/16/24
f 16/16/24 7/7/15 8/8/16 15/15/23
f 17/17/25 9/9/17 10/10/18 18/18/26
f 18/18/26 4/4/12 2/2/10 17/17/25

# End of Object "wall"
