# Created with Anim8or 1.00
# Object "object01":

mtllib squid_mapped.mtl

# Shape "mesh01":
g mesh01
# No. points 124:
v -1.05699 -2.62811 -0.00002
v 17.6516 5.12124 -0.00001
v 25.4009 23.8298 -0.00001
v 17.6516 42.5384 -0.00002
v -1.05699 50.2877 -0.00002
v 8.2973 5.12124 -16.2021
v 12.172 23.8298 -22.9132
v 8.2973 42.5384 -16.2021
v -10.4113 5.12123 -16.2021
v -14.2859 23.8298 -22.9132
v -10.4113 42.5384 -16.2021
v -19.7656 5.12123 -0.00002
v -27.5149 23.8298 -0.00003
v -19.7656 42.5384 -0.00003
v -10.4113 5.12123 16.2021
v -14.2859 23.8298 22.9132
v -10.4113 42.5384 16.2021
v 8.2973 5.12124 16.2021
v 12.172 23.8298 22.9132
v 8.2973 42.5384 16.2021
v -15.2671 5.12123 7.79161
v 13.1531 5.12124 7.79162
v -21.2373 23.8298 10.873
v 19.1234 23.8298 10.873
v 12.7068 5.12124 -8.56463
v -14.8208 5.12123 -8.56464
v 17.9587 23.8298 -12.8903
v -20.0727 23.8298 -12.8903
v 28.1619 -2.95026 25.5968
v 25.8436 -2.95026 29.6123
v 27.6935 5.98207 32.8165
v 31.0124 5.98207 27.068
v 36.9545 -28.9996 35.6349
v 35.7251 -28.9996 37.7643
v 36.7061 -24.2629 39.4634
v 38.466 -24.2629 36.4151
v 50.7122 -39.0477 46.618
v 50.3238 -39.0477 47.2907
v 50.6337 -37.5513 47.8275
v 51.1897 -37.5513 46.8645
v 34.0915 6.81801 13.3759
v 36.6288 6.81801 8.98118
v 33.4966 -0.74376 8.98118
v 31.6784 -0.74376 12.1305
v 41.6987 -21.3601 15.4924
v 43.0289 -21.3601 13.1884
v 41.3868 -25.3245 13.1884
v 40.4335 -25.3245 14.8395
v 58.814 -33.8622 21.042
v 59.6155 -33.8622 19.6536
v 58.626 -36.251 19.6536
v 58.0517 -36.251 20.6485
v 29.3578 -2.62435 -6.31098
v 31.4307 -2.62435 -2.72054
v 34.6794 5.2186 -2.72054
v 31.5595 5.2186 -8.12437
v 41.2078 -26.0026 -5.05001
v 42.2413 -26.0026 -3.25982
v 43.8611 -22.0921 -3.25982
v 42.3055 -22.0921 -5.95417
v 55.8474 -37.392 -5.22808
v 56.3221 -37.392 -4.40588
v 57.0661 -35.596 -4.40588
v 56.3516 -35.596 -5.64334
v 33.7316 5.08855 -23.6354
v 31.261 5.08855 -27.9145
v 29.6068 -2.89888 -25.0493
v 31.4893 -2.89888 -21.7886
v 39.0911 -24.8585 -29.6903
v 37.876 -24.8585 -31.7949
v 37.0624 -28.7869 -30.3857
v 37.9883 -28.7869 -28.782
v 52.6025 -37.9302 -40.0672
v 52.1438 -37.9302 -40.8615
v 51.8368 -39.4129 -40.3296
v 52.1862 -39.4129 -39.7243
v -31.9351 5.29011 26.3556
v -28.9333 5.29011 31.555
v -27.26 -2.78897 28.6569
v -29.3569 -2.78897 25.0249
v -38.9599 -27.9618 36.1292
v -37.4355 -27.9618 38.7694
v -36.5859 -32.0643 37.2977
v -37.6507 -32.0643 35.4535
v -53.9421 -40.243 45.9298
v -53.3548 -40.243 46.947
v -53.0275 -41.8236 46.38
v -53.4377 -41.8236 45.6695
v -34.4714 -2.81381 12.3618
v -36.2204 -2.81381 9.33236
v -39.2335 4.46025 9.33236
v -36.7927 4.46026 13.5599
v -41.1279 -29.2172 17.1205
v -41.946 -29.2172 15.7035
v -43.3554 -25.8148 15.7035
v -42.2137 -25.8148 17.6809
v -57.8951 -38.9694 20.8789
v -58.2242 -38.9694 20.3087
v -58.7913 -37.6005 20.3087
v -58.3319 -37.6005 21.1043
v -38.3667 4.81924 -9.0347
v -41.3271 4.81924 -3.90716
v -38.2445 -2.62271 -3.90716
v -36.2776 -2.62271 -7.31402
v -47.5638 -25.7836 -8.95842
v -48.958 -25.7836 -6.54359
v -47.5063 -29.2884 -6.54359
v -46.5799 -29.2884 -8.14806
v -63.5918 -37.5852 -9.74543
v -64.3244 -37.5852 -8.47652
v -63.5615 -39.4269 -8.47652
v -63.0748 -39.4269 -9.31961
v -33.059 -4.07652 -28.4286
v -31.3524 -4.07652 -31.3846
v -32.852 3.16442 -33.982
v -35.0917 3.16442 -30.1028
v -40.1047 -28.6824 -40.8918
v -39.212 -28.6824 -42.438
v -39.9964 -24.8949 -43.7967
v -41.1679 -24.8949 -41.7675
v -53.8986 -37.8145 -49.8038
v -53.506 -37.8145 -50.4838
v -53.851 -36.1488 -51.0813
v -54.3662 -36.1488 -50.1889

# No. normals 428:
vn 0 -0.90212 -0.43148
vn 0 -0.90212 0.43148
vn 0 -0.33765 -0.94127
vn 0 -0.33765 0.94127
vn 0 0.33765 -0.94127
vn 0 0.33765 0.94127
vn 0.37367 0.90212 -0.21574
vn 0 0.90212 -0.43148
vn -0.37367 0.90212 -0.21574
vn -0.37367 0.90212 0.21574
vn 0 0.90212 0.43148
vn 0.37367 0.90212 0.21574
vn -0.37367 -0.90212 0.21574
vn 0.37367 -0.90212 0.21574
vn -0.81516 0.33765 0.47064
vn 0.81516 0.33765 0.47064
vn 0.37367 -0.90212 -0.21574
vn -0.37367 -0.90212 -0.21574
vn 0.81516 0.33765 -0.47064
vn -0.81516 0.33765 -0.47064
vn 0.73075 -0.12259 -0.67155
vn -0.29948 -0.93830 -0.17291
vn -0.64076 -0.13820 0.75520
vn 0.60308 0.71768 0.34819
vn 0.64016 -0.07842 -0.76423
vn -0.77922 -0.43637 -0.44988
vn -0.75088 -0.07967 0.65561
vn 0.81275 0.34531 0.46924
vn 0.59640 -0.05847 -0.80055
vn -0.43297 -0.86605 -0.24998
vn -0.61138 -0.15197 0.77661
vn 0.54835 0.77400 0.31659
vn 0.81517 -0.33765 0.47063
vn -0.25092 -0.07883 0.96479
vn 0.66457 0.64119 0.38369
vn 0.43389 -0.17972 -0.88286
vn -0.26546 -0.95186 -0.15326
vn -0.37686 -0.03221 0.92571
vn 0.83580 0.26188 0.48255
vn 0.22575 -0.09351 -0.96969
vn -0.81390 -0.34168 -0.46991
vn -0.33878 -0.04666 0.93971
vn 0.50158 0.81520 0.28959
vn 0.28279 -0.11713 -0.95200
vn -0.44644 -0.85689 -0.25775
vn 0.81517 -0.33765 0.47063
vn 0.02391 -0.23157 -0.97252
vn -0.43599 -0.86403 0.25172
vn 0.15780 -0.06536 0.98531
vn 0.77309 0.45067 -0.44635
vn -0.21670 -0.16177 -0.96274
vn -0.80073 -0.38094 0.46230
vn 0.02630 -0.01090 0.999595
vn 0.82927 0.28825 -0.47878
vn -0.15311 -0.18161 -0.97138
vn -0.57650 -0.74623 0.33284
vn 0.06083 -0.02520 0.99783
vn 0.64715 0.66453 -0.37363
vn 0.81516 -0.33765 -0.47064
vn 0.58245 0.02436 0.81250
vn 0.60764 0.71253 -0.35082
vn -0.44349 -0.21984 -0.86890
vn -0.28650 -0.94369 0.16541
vn 0.68580 -0.02434 0.72739
vn 0.83895 0.24808 -0.48437
vn -0.74958 -0.08044 -0.65701
vn -0.81677 -0.33243 0.47156
vn 0.61495 0.00968 0.78851
vn 0.53005 0.79082 -0.30603
vn -0.62277 -0.14671 -0.76853
vn -0.44452 -0.85822 0.25664
vn 0.81517 -0.33765 -0.47063
vn -0.73866 -0.12667 -0.66207
vn -0.63820 0.67597 0.36847
vn 0.63085 -0.14292 0.76263
vn 0.30759 -0.93480 -0.17759
vn -0.65179 -0.08385 -0.75375
vn -0.82242 0.31331 0.47483
vn 0.77782 -0.06322 0.62530
vn 0.79747 -0.38994 -0.46042
vn -0.53009 -0.02959 -0.84742
vn -0.49041 0.82422 0.28314
vn 0.55429 -0.17695 0.81329
vn 0.39934 -0.88734 -0.23056
vn -0.81516 -0.33765 0.47064
vn 0.26026 -0.07549 0.96258
vn 0.33500 -0.92215 -0.19341
vn -0.42083 -0.17432 -0.89023
vn -0.68789 0.60752 0.39715
vn 0.51677 0.02396 0.85579
vn 0.82755 -0.29475 -0.47779
vn -0.35330 -0.14634 -0.92399
vn -0.84524 0.21777 0.48800
vn 0.25979 -0.07566 0.96270
vn 0.44264 -0.85951 -0.25555
vn -0.22013 -0.09118 -0.97120
vn -0.52054 0.79920 0.30053
vn -0.81517 -0.33765 0.47063
vn 0.02229 -0.21927 -0.97541
vn -0.69882 0.59065 -0.40346
vn -0.17683 -0.07325 0.98151
vn 0.34295 -0.91825 0.19800
vn 0.36388 -0.11166 -0.92473
vn -0.83836 0.25075 -0.48403
vn -0.12857 -0.05325 0.99027
vn 0.81735 -0.33054 0.47189
vn 0.17610 -0.17456 -0.96877
vn -0.55183 0.77070 -0.31860
vn -0.09493 -0.03932 0.99471
vn 0.48784 -0.82624 0.28166
vn -0.81516 -0.33765 -0.47064
vn -0.72544 -0.04484 0.68683
vn 0.29155 -0.94163 0.16832
vn 0.62211 -0.14701 -0.76901
vn -0.59850 0.72278 -0.34554
vn -0.79021 -0.08139 0.60741
vn 0.77421 -0.44810 0.44699
vn 0.83758 -0.02234 -0.54585
vn -0.80536 0.36770 -0.46497
vn -0.55851 0.03483 0.82876
vn 0.42128 -0.87371 0.24323
vn 0.56458 -0.17260 -0.80713
vn -0.50581 0.81172 -0.29202
vn -0.81516 -0.33766 -0.47064
vn 0 -1 0
vn 0.17197 -0.98358 -0.05470
vn 0.15780 -0.06536 0.98531
vn -0.43599 -0.86403 0.25172
vn 0.43389 -0.17972 -0.88286
vn 0.75145 0.49708 0.43385
vn 0.79564 0.39491 -0.45936
vn 0.15780 -0.06536 0.98531
vn 0.43389 -0.17972 -0.88286
vn 0.69212 0.72178 0
vn 0 1 0
vn -0.08824 -0.81857 -0.56759
vn -0.15864 -0.07864 -0.98420
vn 0.72969 0.53859 -0.42128
vn 0.34606 0.72178 -0.59940
vn 0.07539 -0.69461 -0.71542
vn 0.29155 -0.94163 0.16832
vn 0.22809 -0.05390 -0.97215
vn -0.72624 0.54477 -0.41929
vn -0.34606 0.72178 -0.59940
vn -0.38268 -0.92388 0
vn 0.34295 -0.91825 0.19800
vn -0.17683 -0.07325 0.98151
vn -0.42083 -0.17432 -0.89023
vn 0.33500 -0.92215 -0.19341
vn -0.76056 0.47827 0.43911
vn -0.17683 -0.07325 0.98151
vn -0.76488 0.46899 -0.44160
vn -0.42083 -0.17432 -0.89023
vn -0.69212 0.72178 0
vn 0.07820 -0.69479 0.71495
vn 0.30759 -0.93480 -0.17759
vn 0.23166 -0.05248 0.97138
vn -0.74130 0.51700 0.42799
vn -0.34606 0.72178 0.59940
vn -0.08141 -0.69500 0.71438
vn -0.29948 -0.93830 -0.17291
vn -0.23575 -0.05085 0.97048
vn 0.72796 0.54169 0.42029
vn 0.34606 0.72178 0.59940
vn -0.37367 -0.90212 0.21574
vn 0.33500 -0.92215 -0.19341
vn 0.26026 -0.07549 0.96258
vn 0.30759 -0.93480 -0.17759
vn -0.73866 -0.12667 -0.66207
vn 0.05824 -0.99774 0.03362
vn -0.25092 -0.07883 0.96479
vn -0.29948 -0.93830 -0.17291
vn 0.73075 -0.12259 -0.67155
vn -0.72423 0.54832 0.41814
vn 0.26026 -0.07549 0.96258
vn -0.73866 -0.12667 -0.66207
vn 0.70767 0.57642 0.40858
vn -0.25092 -0.07883 0.96479
vn 0.73075 -0.12259 -0.67155
vn 0.04716 -0.99852 -0.02723
vn 0.58245 0.02436 0.81250
vn -0.43599 -0.86403 0.25172
vn 0.02391 -0.23157 -0.97252
vn -0.37367 -0.90212 -0.21574
vn 0.29155 -0.94163 0.16832
vn -0.72544 -0.04484 0.68683
vn 0.34295 -0.91825 0.19800
vn 0.02229 -0.21927 -0.97541
vn 0.74526 0.50937 -0.43027
vn 0.58245 0.02436 0.81250
vn 0.02391 -0.23157 -0.97252
vn -0.71718 0.56054 -0.41406
vn -0.72544 -0.04484 0.68683
vn 0.02229 -0.21927 -0.97541
vn 0.68707 -0.10074 -0.71958
vn -0.58149 -0.74105 -0.33573
vn -0.58149 -0.74105 -0.33573
vn -0.69805 -0.10928 0.70766
vn -0.69805 -0.10928 0.70766
vn 0.72605 0.54511 0.41918
vn 0.68707 -0.10074 -0.71958
vn 0.72605 0.54511 0.41918
vn 0.61856 -0.06847 -0.78275
vn -0.63401 -0.68121 -0.36605
vn -0.63401 -0.68121 -0.36605
vn -0.68450 -0.11639 0.71966
vn -0.68450 -0.11639 0.71966
vn 0.70542 0.58010 0.40727
vn 0.61856 -0.06847 -0.78275
vn 0.70542 0.58010 0.40727
vn 0.59640 -0.05847 -0.80055
vn 0.81517 -0.33765 0.47063
vn -0.43297 -0.86605 -0.24998
vn -0.43297 -0.86605 -0.24998
vn 0.81517 -0.33765 0.47063
vn -0.61138 -0.15197 0.77661
vn -0.61138 -0.15197 0.77661
vn 0.81517 -0.33765 0.47063
vn 0.54835 0.77400 0.31659
vn 0.59640 -0.05847 -0.80055
vn 0.81517 -0.33765 0.47063
vn 0.54835 0.77400 0.31659
vn -0.31466 -0.05566 0.94757
vn 0.76796 0.46223 0.44338
vn 0.76796 0.46223 0.44338
vn 0.33225 -0.13762 -0.93310
vn 0.33225 -0.13762 -0.93310
vn -0.81390 -0.34168 -0.46991
vn -0.26546 -0.95186 -0.15326
vn -0.31466 -0.05566 0.94757
vn -0.81390 -0.34168 -0.46991
vn -0.26546 -0.95186 -0.15326
vn -0.35790 -0.03944 0.93293
vn 0.71032 0.57207 0.41010
vn 0.71032 0.57207 0.41010
vn 0.25440 -0.10538 -0.96134
vn 0.25440 -0.10538 -0.96134
vn -0.66850 -0.63573 -0.38595
vn -0.35790 -0.03944 0.93293
vn -0.66850 -0.63573 -0.38595
vn -0.33878 -0.04666 0.93971
vn 0.81517 -0.33765 0.47063
vn 0.50158 0.81520 0.28959
vn 0.50158 0.81520 0.28959
vn 0.81517 -0.33765 0.47063
vn 0.28279 -0.11713 -0.95200
vn 0.28279 -0.11713 -0.95200
vn 0.81517 -0.33765 0.47063
vn -0.44644 -0.85689 -0.25775
vn -0.33878 -0.04666 0.93971
vn 0.81517 -0.33765 0.47063
vn -0.44644 -0.85689 -0.25775
vn -0.09716 -0.19823 -0.97533
vn -0.65279 -0.65714 0.37688
vn -0.65279 -0.65714 0.37688
vn 0.09229 -0.03823 0.99500
vn 0.09229 -0.03823 0.99500
vn 0.80426 0.37088 -0.46434
vn -0.09716 -0.19823 -0.97533
vn 0.80426 0.37088 -0.46434
vn -0.18501 -0.17179 -0.96761
vn -0.70655 -0.57826 0.40793
vn -0.70655 -0.57826 0.40793
vn 0.04358 -0.01805 0.99889
vn 0.04358 -0.01805 0.99889
vn 0.75597 0.48786 -0.43646
vn -0.18501 -0.17179 -0.96761
vn 0.75597 0.48786 -0.43646
vn -0.15311 -0.18161 -0.97138
vn 0.81516 -0.33765 -0.47064
vn -0.57650 -0.74623 0.33284
vn -0.57650 -0.74623 0.33284
vn 0.81516 -0.33765 -0.47064
vn 0.06083 -0.02520 0.99783
vn 0.06083 -0.02520 0.99783
vn 0.81516 -0.33765 -0.47064
vn 0.64715 0.66453 -0.37363
vn -0.15311 -0.18161 -0.97138
vn 0.81516 -0.33765 -0.47064
vn 0.64715 0.66453 -0.37363
vn 0.63574 0.00001 0.77191
vn 0.75074 0.49853 -0.43344
vn 0.75074 0.49853 -0.43344
vn -0.60868 -0.15320 -0.77849
vn -0.60868 -0.15320 -0.77849
vn -0.81677 -0.33243 0.47156
vn -0.28650 -0.94369 0.16541
vn 0.63574 0.00001 0.77191
vn -0.81677 -0.33243 0.47156
vn -0.28650 -0.94369 0.16541
vn 0.65118 -0.00733 0.75889
vn 0.72372 0.54921 -0.41784
vn 0.72372 0.54921 -0.41784
vn -0.68901 -0.11404 -0.71572
vn -0.68901 -0.11404 -0.71572
vn -0.67048 -0.63293 0.38710
vn 0.65118 -0.00733 0.75889
vn -0.67048 -0.63293 0.38710
vn 0.61495 0.00968 0.78851
vn 0.81517 -0.33765 -0.47063
vn 0.53005 0.79082 -0.30603
vn 0.53005 0.79082 -0.30603
vn 0.81517 -0.33765 -0.47063
vn -0.62277 -0.14671 -0.76853
vn -0.62277 -0.14671 -0.76853
vn 0.81517 -0.33765 -0.47063
vn -0.44452 -0.85822 0.25664
vn 0.61495 0.00968 0.78851
vn 0.81517 -0.33765 -0.47063
vn -0.44452 -0.85822 0.25664
vn -0.69677 -0.10550 -0.70949
vn -0.74700 0.50594 0.43129
vn -0.74700 0.50594 0.43129
vn 0.70849 -0.10368 0.69806
vn 0.70849 -0.10368 0.69806
vn 0.79747 -0.38994 -0.46042
vn 0.30759 -0.93480 -0.17759
vn -0.69677 -0.10550 -0.70949
vn 0.79747 -0.38994 -0.46042
vn 0.30759 -0.93480 -0.17759
vn -0.59291 -0.05691 -0.80326
vn -0.69269 0.60019 0.39993
vn -0.69269 0.60019 0.39993
vn 0.67439 -0.12158 0.72830
vn 0.67439 -0.12158 0.72830
vn 0.63599 -0.67874 -0.36719
vn -0.59291 -0.05691 -0.80326
vn 0.63599 -0.67874 -0.36719
vn -0.53009 -0.02959 -0.84742
vn -0.81516 -0.33765 0.47064
vn -0.49041 0.82422 0.28314
vn -0.49041 0.82422 0.28314
vn -0.81516 -0.33765 0.47064
vn 0.55429 -0.17695 0.81329
vn 0.55429 -0.17695 0.81329
vn -0.81516 -0.33765 0.47064
vn 0.39934 -0.88734 -0.23056
vn -0.53009 -0.02959 -0.84742
vn -0.81516 -0.33765 0.47064
vn 0.39934 -0.88734 -0.23056
vn 0.39281 -0.02605 0.91925
vn 0.82755 -0.29475 -0.47779
vn 0.33500 -0.92215 -0.19341
vn 0.33500 -0.92215 -0.19341
vn -0.38738 -0.16046 -0.90785
vn 0.82755 -0.29475 -0.47779
vn -0.38738 -0.16046 -0.90785
vn -0.78492 0.42253 0.45317
vn 0.39281 -0.02605 0.91925
vn -0.78492 0.42253 0.45317
vn 0.39259 -0.02614 0.91934
vn 0.68055 -0.61844 -0.39292
vn 0.68055 -0.61844 -0.39292
vn -0.28755 -0.11911 -0.95033
vn -0.28755 -0.11911 -0.95033
vn -0.72782 0.54194 0.42021
vn 0.39259 -0.02614 0.91934
vn -0.72782 0.54194 0.42021
vn 0.25979 -0.07566 0.96270
vn -0.81517 -0.33765 0.47063
vn 0.44264 -0.85951 -0.25555
vn 0.44264 -0.85951 -0.25555
vn -0.81517 -0.33765 0.47063
vn -0.22013 -0.09118 -0.97120
vn -0.22013 -0.09118 -0.97120
vn -0.81517 -0.33765 0.47063
vn -0.52054 0.79920 0.30053
vn 0.25979 -0.07566 0.96270
vn -0.81517 -0.33765 0.47063
vn -0.52054 0.79920 0.30053
vn 0.19632 -0.16824 -0.96600
vn -0.78255 0.42834 -0.45181
vn -0.78255 0.42834 -0.45181
vn -0.15275 -0.06327 0.98624
vn -0.15275 -0.06327 0.98624
vn 0.81735 -0.33054 0.47189
vn 0.34295 -0.91825 0.19800
vn 0.19632 -0.16824 -0.96600
vn 0.81735 -0.33054 0.47189
vn 0.34295 -0.91825 0.19800
vn 0.27139 -0.14385 -0.95166
vn -0.73065 0.53684 -0.42184
vn -0.73065 0.53684 -0.42184
vn -0.11176 -0.04629 0.99266
vn -0.11176 -0.04629 0.99266
vn 0.68699 -0.60888 0.39663
vn 0.27139 -0.14385 -0.95166
vn 0.68699 -0.60888 0.39663
vn 0.17610 -0.17456 -0.96877
vn -0.81516 -0.33765 -0.47064
vn -0.55183 0.77070 -0.31860
vn -0.55183 0.77070 -0.31860
vn -0.81516 -0.33765 -0.47064
vn -0.09493 -0.03932 0.99471
vn -0.09493 -0.03932 0.99471
vn -0.81516 -0.33765 -0.47064
vn 0.48784 -0.82624 0.28166
vn 0.17610 -0.17456 -0.96877
vn -0.81516 -0.33765 -0.47064
vn 0.48784 -0.82624 0.28166
vn -0.75895 -0.06321 0.64808
vn 0.57413 -0.74866 0.33148
vn 0.57413 -0.74866 0.33148
vn 0.74026 -0.08588 -0.66681
vn 0.74026 -0.08588 -0.66681
vn -0.71857 0.55816 -0.41487
vn -0.75895 -0.06321 0.64808
vn -0.71857 0.55816 -0.41487
vn -0.68437 -0.02362 0.72875
vn 0.62551 -0.69160 0.36114
vn 0.62551 -0.69160 0.36114
vn 0.71604 -0.09955 -0.69092
vn 0.71604 -0.09955 -0.69092
vn -0.68319 0.61454 -0.39444
vn -0.68437 -0.02362 0.72875
vn -0.68319 0.61454 -0.39444
vn -0.55851 0.03483 0.82876
vn -0.81516 -0.33766 -0.47064
vn 0.42128 -0.87371 0.24323
vn 0.42128 -0.87371 0.24323
vn -0.81516 -0.33766 -0.47064
vn 0.56458 -0.17260 -0.80713
vn 0.56458 -0.17260 -0.80713
vn -0.81516 -0.33766 -0.47064
vn -0.50581 0.81172 -0.29202
vn -0.55851 0.03483 0.82876
vn -0.81516 -0.33766 -0.47064
vn -0.50581 0.81172 -0.29202

# No. texture coordinates 41:
vt 0 0
vt 0 0.25000
vt 0 0.50000
vt 0 0.75000
vt 0 1
vt 0.16667 0
vt 0.16667 0.25000
vt 0.16667 0.50000
vt 0.16667 0.75000
vt 0.16667 1
vt 0.33333 0
vt 0.33333 0.25000
vt 0.33333 0.50000
vt 0.33333 0.75000
vt 0.33333 1
vt 0.50000 0
vt 0.50000 0.25000
vt 0.50000 0.50000
vt 0.50000 0.75000
vt 0.50000 1
vt 0.66667 0
vt 0.66667 0.25000
vt 0.66667 0.50000
vt 0.66667 0.75000
vt 0.66667 1
vt 0.83333 0
vt 0.83333 0.25000
vt 0.83333 0.50000
vt 0.83333 0.75000
vt 0.83333 1
vt 1 0.25000
vt 1 0.50000
vt 1 0.75000
vt 0.58015 0.25000
vt 0.91985 0.25000
vt 0.57909 0.50000
vt 0.92091 0.50000
vt 0.08810 0.25000
vt 0.41190 0.25000
vt 0.09376 0.50000
vt 0.40624 0.50000

# No. faces 124:

usemtl material01

f 9/12/140 6/7/136 1/6/125
f 18/27/160 15/22/155 1/21/125
f 10/13/142 7/8/137 6/7/136 9/12/140
f 19/28/162 16/23/157 15/22/155 18/27/160
f 11/14/144 8/9/139 7/8/137 10/13/142
f 20/29/164 17/24/159 16/23/157 19/28/162
f 5/5/135 4/4/134 8/9/139
f 5/10/135 8/9/139 11/14/144
f 5/15/135 11/14/144 14/19/154
f 5/20/135 14/19/154 17/24/159
f 5/25/135 17/24/159 20/29/164
f 5/30/135 20/29/164 4/33/134
f 12/17/145 1/16/125 15/22/155 21/34/165
f 18/27/160 1/26/125 2/31/126 22/35/170
f 16/23/158 17/24/159 14/19/154 13/18/150 23/36/174
f 3/32/130 4/33/134 20/29/164 19/28/163 24/37/177
f 2/2/126 1/1/125 6/7/136 25/38/180
f 9/12/140 1/11/125 12/17/145 26/39/184
f 7/8/138 8/9/139 4/4/134 3/3/131 27/40/189
f 13/18/152 14/19/154 11/14/144 10/13/143 28/41/192
f 32//201 29//195 22//173 24//179
f 29//196 30//197 18//161 22//172
f 30//198 31//199 19//162 18//160
f 31//200 32//202 24//177 19//163
f 36//209 33//203 29//195 32//201
f 33//204 34//205 30//197 29//196
f 34//206 35//207 31//199 30//198
f 35//208 36//210 32//202 31//200
f 40//220 37//211 33//203 36//209
f 37//213 38//214 34//205 33//204
f 38//216 39//217 35//207 34//206
f 39//219 40//222 36//210 35//208
f 40//221 39//218 38//215 37//212
f 44//230 41//223 24//178 22//171
f 41//224 42//225 3//130 24//177
f 42//226 43//227 2//129 3//133
f 43//229 44//232 22//170 2//126
f 48//239 45//233 41//223 44//230
f 45//234 46//235 42//225 41//224
f 46//236 47//237 43//227 42//226
f 47//238 48//240 44//231 43//228
f 52//250 49//241 45//233 48//239
f 49//243 50//244 46//235 45//234
f 50//246 51//247 47//237 46//236
f 51//249 52//252 48//240 47//238
f 52//251 51//248 50//245 49//242
f 56//259 53//253 25//183 27//191
f 53//254 54//255 2//128 25//182
f 54//256 55//257 3//132 2//127
f 55//258 56//260 27//189 3//131
f 60//267 57//261 53//253 56//259
f 57//262 58//263 54//255 53//254
f 58//264 59//265 55//257 54//256
f 59//266 60//268 56//260 55//258
f 64//278 61//269 57//261 60//267
f 61//271 62//272 58//263 57//262
f 62//274 63//275 59//265 58//264
f 63//277 64//280 60//268 59//266
f 64//279 63//276 62//273 61//270
f 68//288 65//281 27//190 25//181
f 65//282 66//283 7//138 27//189
f 66//284 67//285 6//136 7//137
f 67//287 68//290 25//180 6//136
f 72//297 69//291 65//281 68//288
f 69//292 70//293 66//283 65//282
f 70//294 71//295 67//285 66//284
f 71//296 72//298 68//289 67//286
f 76//308 73//299 69//291 72//297
f 73//301 74//302 70//293 69//292
f 74//304 75//305 71//295 70//294
f 75//307 76//310 72//298 71//296
f 76//309 75//306 74//303 73//300
f 80//318 77//311 23//176 21//169
f 77//312 78//313 16//158 23//174
f 78//314 79//315 15//155 16//157
f 79//317 80//320 21//168 15//156
f 84//327 81//321 77//311 80//318
f 81//322 82//323 78//313 77//312
f 82//324 83//325 79//315 78//314
f 83//326 84//328 80//319 79//316
f 88//338 85//329 81//321 84//327
f 85//331 86//332 82//323 81//322
f 86//334 87//335 83//325 82//324
f 87//337 88//340 84//328 83//326
f 88//339 87//336 86//333 85//330
f 92//349 89//341 21//167 23//175
f 89//343 90//344 12//149 21//166
f 90//345 91//347 13//153 12//148
f 91//348 92//350 23//174 13//150
f 96//357 93//351 89//341 92//349
f 93//352 94//353 90//346 89//342
f 94//354 95//355 91//347 90//345
f 95//356 96//358 92//350 91//348
f 100//368 97//359 93//351 96//357
f 97//361 98//362 94//353 93//352
f 98//364 99//365 95//355 94//354
f 99//367 100//370 96//358 95//356
f 100//369 99//366 98//363 97//360
f 104//378 101//371 28//194 26//188
f 101//372 102//373 13//152 28//192
f 102//374 103//375 12//147 13//151
f 103//377 104//380 26//187 12//146
f 108//387 105//381 101//371 104//378
f 105//382 106//383 102//373 101//372
f 106//384 107//385 103//375 102//374
f 107//386 108//388 104//379 103//376
f 112//398 109//389 105//381 108//387
f 109//391 110//392 106//383 105//382
f 110//394 111//395 107//385 106//384
f 111//397 112//400 108//388 107//386
f 112//399 111//396 110//393 109//390
f 116//407 113//401 26//186 28//193
f 113//402 114//403 9//141 26//185
f 114//404 115//405 10//142 9//140
f 115//406 116//408 28//192 10//143
f 120//415 117//409 113//401 116//407
f 117//410 118//411 114//403 113//402
f 118//412 119//413 115//405 114//404
f 119//414 120//416 116//408 115//406
f 124//426 121//417 117//409 120//415
f 121//419 122//420 118//411 117//410
f 122//422 123//423 119//413 118//412
f 123//425 124//428 120//416 119//414
f 124//427 123//424 122//421 121//418

# End of Object "object01"
