# Created with Anim8or 1.00
# Object "space_module00":

mtllib stairs1_cd.mtl

# Shape "mesh05":
g mesh05
# No. points 34:
v -117.396 -54.0906 -20.9877
v -117.396 -54.0906 20.9877
v -117.396 -14.3842 -20.9877
v -117.396 -14.3842 20.9877
v 20.4425 -54.0906 -20.9877
v 20.4425 -54.0906 20.9877
v 20.4425 55.3857 -20.9877
v 20.4425 55.3857 20.9877
v -35.7138 -54.0906 -20.9877
v -35.7138 55.3857 -20.9877
v -35.7138 55.3857 20.9877
v -35.7138 -54.0906 20.9877
v -159.371 -54.0906 -20.9877
v -159.371 -14.3842 -20.9877
v -159.371 -14.3842 20.9877
v -159.371 -54.0906 20.9877
v -117.396 -47.274 62.9022
v -117.396 -54.0906 70.523
v -159.371 -54.0906 70.523
v -159.371 -47.274 62.9022
v 20.4428 -14.3845 -20.988
v 20.4428 -14.3845 20.988
v -35.7142 -14.3845 -20.988
v -35.7142 -14.3845 20.988
v -76.9349 20.176 -20.9877
v -76.9349 -54.0906 -20.9877
v -76.9349 -54.0906 20.9877
v -76.9349 20.176 20.9877
v -76.9349 -14.3843 20.9878
v -76.9349 -14.3843 -20.9879
v 20.4428 20.1755 -20.988
v -35.7142 20.1755 -20.988
v -35.7142 20.1755 20.988
v 20.4428 20.1755 20.988

# No. normals 85:
vn 0 1 0
vn 0 0 -1
vn 0 1 0
vn -1 0 0
vn 0 0.78671 0.61732
vn 1 0 0
vn -1 0 0
vn 0 0.74534 0.66669
vn 0 -0.00001 -1
vn 0 -0.00001 1
vn 1 -0.00001 0
vn -0.64949 0.76037 0
vn -0.64949 0.76037 0
vn 0 0 1
vn 0 -0.00001 1
vn 0 0 -1
vn 0 -0.00001 -1
vn 0 0 -1
vn 0 0.00001 -1
vn 0 0 1
vn 0 0.00001 1
vn 1 0.00001 0
vn 1 0 0
vn 0 0 1
vn -0.00001 0 -1
vn 0 0 -1
vn 1 0 0
vn 0 0 1
vn 0 0 -1
vn -0.34614 0.93818 0
vn -0.24054 0.94333 0.22863
vn 0 0 1
vn 1 0 0
vn 0 -0.00001 -1
vn 1 -0.00001 0
vn 0 -0.00001 1
vn 1 -0.00001 0
vn 0 1 0
vn 1 0.00001 0
vn 0 0.00001 -1
vn 0 1 0
vn 1 0.00001 0
vn 0 0.00001 1
vn 0 -0.00001 -1
vn -0.34614 0.93818 0
vn 0 0.00001 -1
vn -0.34614 0.93818 0
vn 0 0.00001 1
vn 0 -0.00001 1
vn 0 0 -1
vn -1 0 0
vn 0 0 -1
vn -1 0 0
vn 0 1 0
vn 0 0.94517 0.32657
vn -1 0 0
vn -1 0 0
vn 0 0.76642 0.64234
vn 1 0 0
vn 1 0 0
vn 0 0.74534 0.66669
vn -1 0 0
vn 0 0.74534 0.66669
vn 0 0.76642 0.64234
vn -1 0 0
vn 0 0 -1
vn 1 0 0
vn 0 0 1
vn 1 0 0
vn 0 0 -1
vn 0 0 1
vn -0.64949 0.76037 0
vn -0.00001 0 -1
vn 0 0 -1
vn 0 0 1
vn -0.64949 0.76037 0
vn 0 0 1
vn 0 0 1
vn 0 0 -1
vn 0 0 -1
vn 1 0 0
vn 0 0 -1
vn 0 0 1
vn 0 0 1
vn 1 0 0

# No. texture coordinates 22:
vt 0 1
vt 0 1
vt 1 0
vt 1 0
vt 1 1
vt 1 1
vt 0.59259 0
vt 0.59259 1
vt 0.59259 1
vt 0.59259 0
vt 0.59259 1
vt 0.59259 1
vt 1 0.38475
vt 0.59259 0.38475
vt 1 0.38475
vt 0.59259 0.38475
vt 0.29354 1
vt 0.29354 1
vt 1 0.68997
vt 0.59259 0.68997
vt 0.59259 0.68997
vt 1 0.68997

# No. faces 25:

usemtl ___default___

f 11/12/47 8/6/41 7/5/38 10/11/45
f 13//50 14//52 3//29 1//26
f 14//54 15//55 4//31 3//30
f 16//57 15//56 14//53 13//51
f 20//64 17//58 4//31 15//55
f 17//59 18//60 2//27 4//33
f 19//62 20//65 15//56 16//57
f 20//64 19//63 18//61 17//58
f 21/13/66 5/3/34 9/7/44 23/14/70
f 24/16/71 12/10/49 6/4/36 22/15/68
f 21//67 22//69 6//37 5//35
f 28/17/76 11/12/47 10/11/45 25/18/72
f 25/18/72 3/1/30 4/2/31 28/17/76
f 29//78 4//32 2//28 27//75
f 27//75 12//49 24//71 29//78
f 26//74 1//26 3//29 30//79
f 30//79 23//70 9//44 26//74
f 31/19/80 21/13/66 23/14/70 32/20/82
f 32/20/82 10/8/46 7/5/40 31/19/80
f 33/21/83 24/16/71 22/15/68 34/22/84
f 34/22/84 8/6/43 11/9/48 33/21/83
f 31//81 7//39 8//42 34//85
f 34//85 22//69 21//67 31//81
f 33//83 28//77 29//78 24//71
f 30//79 25//73 32//82 23//70

# End of Object "space_module00"
