# Wavefront OBJ file
# Creator: Ultimate Unwrap3D Pro (x64) v3.50.66
# Website: http://www.unwrap3d.com
# Time: Wed May 31 04:02:33 2023
# num_vertices: 58
# num_vertex_normals: 58
# num_uvs: 204
# num_faces: 53
# num_groups: 1

mtllib stairs1.mtl

v -117.396004 -54.090599 -20.987700
v -117.396004 -54.090599 20.987700
v -117.396004 -14.384200 -20.987700
v -117.396004 -14.384200 20.987700
v 20.442499 -54.090599 -20.987700
v 20.442499 -54.090599 20.987700
v 20.442499 55.385700 -20.987700
v 20.442499 55.385700 20.987700
v -35.713799 -54.090599 -20.987700
v -35.713799 55.385700 -20.987700
v -35.713799 55.385700 20.987700
v -35.713799 -54.090599 20.987700
v -159.371002 -54.090599 -20.987700
v -159.371002 -14.384200 -20.987700
v -159.371002 -14.384200 20.987700
v -159.371002 -54.090599 20.987700
v -117.396004 -47.273998 62.902199
v -117.396004 -54.090599 70.523003
v -159.371002 -54.090599 70.523003
v -159.371002 -47.273998 62.902199
v -57.855499 36.473099 -20.987700
v -57.855499 -54.090599 -20.987700
v -57.855499 -54.090599 20.987700
v -57.855499 36.473099 20.987700
v -85.282204 13.046300 -20.987700
v -85.282204 -54.090599 -20.987700
v -85.282204 -54.090599 20.987700
v -85.282204 13.046300 20.987700
v -8.725920 -54.090599 -20.987700
v -8.725920 55.385700 -20.987700
v -8.725920 55.385700 20.987700
v -8.725920 -54.090599 20.987700
v -117.396004 -26.005400 -20.987700
v -35.713799 -26.005400 -20.987700
v 20.442499 -26.005400 -20.987700
v -117.396004 -26.005400 20.987700
v -35.713799 -26.005400 20.987700
v 20.442499 -26.005400 20.987700
v -159.371002 -26.005400 -20.987700
v -159.371002 -26.005400 20.987700
v -117.396004 -26.005400 35.797699
v -159.371002 -26.005400 35.797699
v -57.855499 -26.005400 -20.987700
v -57.855499 -26.005400 20.987700
v -85.282204 -26.005400 -20.987700
v -85.282204 -26.005400 20.987700
v -8.725920 -26.005400 -20.987700
v -8.725920 -26.005400 20.987700
v -76.803299 20.288500 -20.987700
v -76.803299 20.288500 20.987700
v -35.713799 20.288500 -20.987700
v -57.855499 20.288500 -20.987700
v -57.855499 20.288500 20.987700
v -35.713799 20.288500 20.987700
v -8.725920 20.288601 -20.987700
v 20.442499 20.288601 -20.987700
v -8.725920 20.288601 20.987700
v 20.442499 20.288601 20.987700
# num_vertices: 58

vn 0.000000 0.000000 -1.000000
vn 0.707107 0.000000 0.707107
vn -0.236831 0.641910 -0.729289
vn 0.115397 0.838555 0.532456
vn 0.707107 0.000000 -0.707107
vn 0.707107 0.000000 0.707107
vn 0.577350 0.577350 -0.577350
vn 0.577350 0.577350 0.577350
vn 0.000000 0.000000 -1.000000
vn -0.236831 0.641911 -0.729289
vn -0.236831 0.641911 0.729289
vn 0.000000 0.000000 1.000000
vn -0.707107 0.000000 -0.707107
vn -0.577350 0.577350 -0.577350
vn -0.726748 0.649244 0.224319
vn -1.000000 0.000000 0.000000
vn 0.707290 0.541802 0.454083
vn 0.707107 0.527034 0.471418
vn -0.707107 0.527034 0.471418
vn -0.707290 0.541802 0.454083
vn -0.459255 0.537666 -0.707107
vn 0.000000 0.000000 -1.000000
vn 0.000000 0.000000 1.000000
vn -0.459255 0.537666 0.707107
vn -0.459252 0.537669 -0.707107
vn 0.000000 0.000000 -1.000000
vn 0.000000 0.000000 1.000000
vn -0.459252 0.537669 0.707107
vn 0.000000 0.000000 -1.000000
vn 0.000000 0.707107 -0.707107
vn 0.000000 0.707107 0.707107
vn 0.000000 0.000000 1.000000
vn 0.000000 0.000000 -1.000000
vn 0.000000 0.000000 -1.000000
vn 0.707107 0.000000 -0.707107
vn 0.832050 0.000000 0.554700
vn 0.000000 0.000000 1.000000
vn 0.707107 0.000000 0.707107
vn -0.707107 0.000000 -0.707107
vn -1.000000 0.000000 0.000000
vn 0.707107 0.556288 0.436513
vn -0.707107 0.556288 0.436513
vn 0.000000 0.000000 -1.000000
vn 0.000000 0.000000 1.000000
vn 0.000000 0.000000 -1.000000
vn 0.000000 0.000000 1.000000
vn 0.000000 0.000000 -1.000000
vn 0.000000 0.000000 1.000000
vn -0.360267 0.421782 -0.832050
vn -0.360267 0.421782 0.832050
vn 0.000000 0.000000 -1.000000
vn 0.000000 0.000000 -1.000000
vn 0.000000 0.000000 1.000000
vn 0.000000 0.000000 1.000000
vn 0.000000 0.000000 -1.000000
vn 0.707107 0.000000 -0.707107
vn 0.000000 0.000000 1.000000
vn 0.707107 0.000000 0.707107
# num_vertex_normals: 58

vt 0.434552 0.562431
vt 0.434552 0.430434
vt 0.566548 0.430434
vt 0.566548 0.562431
vt 0.434552 0.298628
vt 0.434552 0.274663
vt 0.566548 0.274663
vt 0.566548 0.298628
vt 0.753781 0.430434
vt 0.823409 0.430434
vt 0.823409 0.562431
vt 0.753781 0.562431
vt 0.667534 0.562431
vt 0.566548 0.562431
vt 0.566548 0.430434
vt 0.667534 0.430434
vt 0.908276 0.562431
vt 0.823409 0.562431
vt 0.823409 0.430434
vt 0.908276 0.430434
vt 0.908276 0.430434
vt 1.000000 0.430434
vt 1.000000 0.562431
vt 0.908276 0.562431
vt 0.433452 0.651849
vt 0.433452 0.563532
vt 0.565448 0.563532
vt 0.565448 0.651849
vt 0.565448 0.651849
vt 0.565448 0.688394
vt 0.433452 0.688394
vt 0.433452 0.651849
vt 0.156871 0.180523
vt 0.156871 0.092205
vt 0.288868 0.092205
vt 0.288868 0.180523
vt 0.288868 0.180523
vt 0.288868 0.217067
vt 0.156871 0.217067
vt 0.156871 0.180523
vt 0.566548 0.383862
vt 0.566548 0.430434
vt 0.434552 0.430434
vt 0.434552 0.383862
vt 0.434552 0.383862
vt 0.434552 0.298628
vt 0.566548 0.298628
vt 0.566548 0.383862
vt 0.155770 0.180523
vt 0.155770 0.217067
vt 0.109198 0.180523
vt 0.335440 0.180523
vt 0.288868 0.217067
vt 0.288868 0.180523
vt 0.176591 0.651849
vt 0.176591 0.563532
vt 0.246219 0.563532
vt 0.246219 0.651849
vt 0.187233 0.306486
vt 0.187233 0.218168
vt 0.256861 0.218168
vt 0.256861 0.306486
vt 0.246219 0.651849
vt 0.246219 0.563532
vt 0.332465 0.563532
vt 0.332465 0.651849
vt 0.433452 0.651849
vt 0.433452 0.688394
vt 0.332465 0.774653
vt 0.332465 0.651849
vt 0.332465 0.651849
vt 0.332465 0.563532
vt 0.433452 0.563532
vt 0.433452 0.651849
vt 0.100986 0.306486
vt 0.100986 0.218168
vt 0.187233 0.218168
vt 0.187233 0.306486
vt 0.000000 0.306486
vt 0.000000 0.218168
vt 0.100986 0.218168
vt 0.100986 0.306486
vt 0.100986 0.306486
vt 0.100986 0.429289
vt 0.000000 0.343030
vt 0.000000 0.306486
vt 0.091724 0.651849
vt 0.091724 0.563532
vt 0.176591 0.563532
vt 0.176591 0.651849
vt 0.000000 0.651849
vt 0.000000 0.563532
vt 0.091724 0.563532
vt 0.091724 0.651849
vt 0.256861 0.306486
vt 0.256861 0.218168
vt 0.341728 0.218168
vt 0.341728 0.306486
vt 0.341728 0.306486
vt 0.341728 0.218168
vt 0.433452 0.218168
vt 0.433452 0.306486
vt 0.566548 0.651849
vt 0.566548 0.563532
vt 0.698546 0.563532
vt 0.698546 0.651849
vt 0.155770 0.180523
vt 0.109198 0.180523
vt 0.023965 0.113641
vt 0.155770 0.180523
vt 0.023965 0.113641
vt 0.000000 0.092205
vt 0.155770 0.092205
vt 0.335440 0.180523
vt 0.288868 0.180523
vt 0.420674 0.113641
vt 0.444639 0.092205
vt 0.420674 0.113641
vt 0.288868 0.180523
vt 0.288868 0.092205
vt 0.694198 0.562431
vt 0.667534 0.562431
vt 0.667534 0.430434
vt 0.694198 0.430434
vt 0.694198 0.430434
vt 0.753781 0.430434
vt 0.753781 0.562431
vt 0.694198 0.562431
vt 0.176591 0.797427
vt 0.176591 0.651849
vt 0.246219 0.651849
vt 0.246219 0.797427
vt 0.246219 0.797427
vt 0.246219 0.848321
vt 0.176591 0.907795
vt 0.176591 0.797427
vt 0.187233 0.452063
vt 0.187233 0.306486
vt 0.256861 0.306486
vt 0.256861 0.452063
vt 0.256861 0.452063
vt 0.256861 0.562431
vt 0.187233 0.502958
vt 0.187233 0.452063
vt 0.305802 0.797427
vt 0.246219 0.848321
vt 0.246219 0.797427
vt 0.187233 0.452063
vt 0.187233 0.502958
vt 0.127649 0.452063
vt 0.091724 0.797427
vt 0.091724 0.651849
vt 0.176591 0.651849
vt 0.176591 0.797427
vt 0.176591 0.797427
vt 0.176591 0.907795
vt 0.091724 0.907795
vt 0.091724 0.797427
vt 0.000000 0.797427
vt 0.000000 0.651849
vt 0.091724 0.651849
vt 0.091724 0.797427
vt 0.091724 0.797427
vt 0.091724 0.907795
vt 0.000000 0.907795
vt 0.000000 0.797427
vt 0.256861 0.452063
vt 0.256861 0.306486
vt 0.341728 0.306486
vt 0.341728 0.452064
vt 0.341728 0.452064
vt 0.341728 0.562431
vt 0.256861 0.562431
vt 0.256861 0.452063
vt 0.341728 0.452064
vt 0.341728 0.306486
vt 0.433452 0.306486
vt 0.433452 0.452064
vt 0.433452 0.452064
vt 0.433452 0.562431
vt 0.341728 0.562431
vt 0.341728 0.452064
vt 0.566548 0.797427
vt 0.566548 0.651849
vt 0.698546 0.651849
vt 0.698546 0.797427
vt 0.698546 0.797427
vt 0.698546 0.907795
vt 0.566548 0.907795
vt 0.566548 0.797427
vt 0.100986 0.306486
vt 0.127649 0.452063
vt 0.100986 0.429289
vt 0.187233 0.452063
vt 0.127649 0.452063
vt 0.100986 0.306486
vt 0.187233 0.306486
vt 0.305802 0.797427
vt 0.332465 0.651849
vt 0.332465 0.774653
vt 0.332465 0.651849
vt 0.305802 0.797427
vt 0.246219 0.797427
vt 0.246219 0.651849
# num_uvs: 204

g mesh01
usemtl ___default___
f 14/1/14 15/2/15 4/3/4 3/4/3 
f 20/5/20 19/6/19 18/7/18 17/8/17 
f 24/9/24 11/10/11 10/11/10 21/12/21 
f 25/13/25 3/14/3 4/15/4 28/16/28 
f 30/17/30 10/18/10 11/19/11 31/20/31 
f 31/21/31 8/22/8 7/23/7 30/24/30 
f 33/25/33 1/26/1 13/27/13 39/28/39 
f 39/29/39 14/30/14 3/31/3 33/32/33 
f 39/33/39 13/34/13 16/35/16 40/36/40 
f 40/37/40 15/38/15 14/39/14 39/40/39 
f 41/41/41 4/42/4 15/43/15 42/44/42 
f 42/45/42 20/46/20 17/47/17 41/48/41 
f 36/49/36 4/50/4 41/51/41 
f 42/52/42 15/53/15 40/54/40 
f 34/55/34 9/56/9 22/57/22 43/58/43 
f 44/59/44 23/60/23 12/61/12 37/62/37 
f 43/63/43 22/64/22 26/65/26 45/66/45 
f 33/67/33 3/68/3 25/69/25 45/70/45 
f 45/71/45 26/72/26 1/73/1 33/74/33 
f 46/75/46 27/76/27 23/77/23 44/78/44 
f 36/79/36 2/80/2 27/81/27 46/82/46 
f 46/83/46 28/84/28 4/85/4 36/86/36 
f 47/87/47 29/88/29 9/89/9 34/90/34 
f 35/91/35 5/92/5 29/93/29 47/94/47 
f 37/95/37 12/96/12 32/97/32 48/98/48 
f 48/99/48 32/100/32 6/101/6 38/102/38 
f 38/103/38 6/104/6 5/105/5 35/106/35 
f 36/107/36 41/108/41 17/109/17 
f 36/110/36 17/111/17 18/112/18 2/113/2 
f 42/114/42 40/115/40 20/116/20 
f 19/117/19 20/118/20 40/119/40 16/120/16 
f 49/121/49 25/122/25 28/123/28 50/124/50 
f 50/125/50 24/126/24 21/127/21 49/128/49 
f 51/129/51 34/130/34 43/131/43 52/132/52 
f 52/133/52 21/134/21 10/135/10 51/136/51 
f 53/137/53 44/138/44 37/139/37 54/140/54 
f 54/141/54 11/142/11 24/143/24 53/144/53 
f 49/145/49 21/146/21 52/147/52 
f 53/148/53 24/149/24 50/150/50 
f 55/151/55 47/152/47 34/153/34 51/154/51 
f 51/155/51 10/156/10 30/157/30 55/158/55 
f 56/159/56 35/160/35 47/161/47 55/162/55 
f 55/163/55 30/164/30 7/165/7 56/166/56 
f 54/167/54 37/168/37 48/169/48 57/170/57 
f 57/171/57 31/172/31 11/173/11 54/174/54 
f 57/175/57 48/176/48 38/177/38 58/178/58 
f 58/179/58 8/180/8 31/181/31 57/182/57 
f 58/183/58 38/184/38 35/185/35 56/186/56 
f 56/187/56 7/188/7 8/189/8 58/190/58 
f 46/191/46 50/192/50 28/193/28 
f 53/194/53 50/195/50 46/196/46 44/197/44 
f 49/198/49 45/199/45 25/200/25 
f 45/201/45 49/202/49 52/203/52 43/204/43 
# num_faces: 53

