# Created with Anim8or 1.00
# Object "terrain2":

mtllib terrain_cd.mtl

# Shape "mesh02":
g mesh02
# No. points 24:
v 1227.1 -148.959 -2117.7
v 719.71 -148.959 -2019.95
v 339.804 -148.959 -1601.62
v 220.283 -148.959 -769.243
v 437.982 -148.959 -205.786
v 834.963 -148.959 97.2854
v 1603.31 -148.959 97.2854
v 2013.1 -148.959 37.5249
v 2512.53 -148.959 -393.605
v 2546.68 -148.959 -1221.72
v 2264.95 -148.959 -1921.77
v 1611.85 -148.959 -2139.47
v 1227.1 1354.59 -2117.7
v 719.71 1354.59 -2019.95
v 339.804 1354.59 -1601.62
v 220.283 1354.59 -769.243
v 437.982 1354.59 -205.786
v 834.963 1354.59 97.2851
v 1603.31 1354.59 97.2851
v 2013.1 1354.59 37.5246
v 2512.53 1354.59 -393.605
v 2546.68 1354.59 -1221.72
v 2264.95 1354.59 -1921.77
v 1611.85 1354.59 -2139.47

# No. normals 40:
vn 0.05648 0 0.99840
vn 0.18918 0 0.98194
vn 0.74028 0 0.67230
vn 0.98985 0 0.14213
vn 0.93280 0 -0.36040
vn 0.60682 0 -0.79484
vn 0 0 -1
vn -0.14431 0 -0.98953
vn -0.65345 0 -0.75697
vn -0.999151 0 -0.04120
vn -0.92769 0 0.37334
vn -0.31623 0 0.94868
vn 0.12311 0 0.99239
vn 0.48984 0 0.87181
vn 0.90477 0 0.42590
vn 0.99362 0 -0.11280
vn 0.79987 0 -0.60018
vn 0.32028 0 -0.94732
vn -0.07234 0 -0.99738
vn -0.41548 0 -0.90960
vn -0.65345 0 -0.75697
vn -0.999151 0 -0.04120
vn -0.98547 0 0.16987
vn -0.92769 0 0.37334
vn -0.31623 0 0.94868
vn -0.13223 0 0.99122
vn 0.12311 0 0.99239
vn 0.48984 0 0.87181
vn 0.90477 0 0.42590
vn 0.99362 0 -0.11280
vn 0.79987 0 -0.60018
vn 0.32028 0 -0.94732
vn -0.07234 0 -0.99738
vn -0.41548 0 -0.90960
vn -0.65345 0 -0.75697
vn -0.999151 0 -0.04120
vn -0.98547 0 0.16987
vn -0.92769 0 0.37334
vn -0.31623 0 0.94868
vn -0.13223 0 0.99122

# No. texture coordinates 0:

# No. faces 12:

usemtl ___default___

f 12//26 24//40 13//27 1//13
f 13//27 14//28 2//14 1//13
f 14//28 15//29 3//15 2//14
f 15//29 16//30 4//16 3//15
f 16//30 17//31 5//17 4//16
f 17//31 18//32 6//18 5//17
f 18//32 19//33 7//19 6//18
f 19//33 20//34 8//20 7//19
f 20//34 21//35 9//21 8//20
f 21//36 22//37 10//23 9//22
f 22//37 23//38 11//24 10//23
f 23//39 24//40 12//26 11//25

# Shape "cube01":
g cube01
# No. points 8:
v -3546.49 -1565 -3559.34
v -3546.49 -1565 3562.14
v -3546.49 1565 -3559.34
v -3546.49 1565 3562.14
v 3575 -1565 -3559.34
v 3575 -1565 3562.14
v 3575 1565 -3559.34
v 3575 1565 3562.14

# No. normals 30:
vn 0 0 -1
vn 0 0 1
vn -1 0 0
vn 1 0 0
vn 0 1 0
vn 0 -1 0
vn 0 0 -1
vn 0 -1 0
vn -1 0 0
vn 0 0 1
vn 0 -1 0
vn -1 0 0
vn 0 0 -1
vn 0 1 0
vn -1 0 0
vn 0 0 1
vn 0 1 0
vn -1 0 0
vn 0 0 -1
vn 0 -1 0
vn 1 0 0
vn 0 0 1
vn 0 -1 0
vn 1 0 0
vn 0 0 -1
vn 0 1 0
vn 1 0 0
vn 0 0 1
vn 0 1 0
vn 1 0 0

# No. texture coordinates 8:
vt 0 0
vt 0 0
vt 0 1
vt 0 1
vt 1 0
vt 1 0
vt 1 1
vt 1 1

# No. faces 6:

usemtl ___default___

f 27/3/53 31/7/65 29/5/59 25/1/47
f 30/6/62 32/8/68 28/4/56 26/2/50
f 26/2/52 28/4/58 27/3/55 25/1/49
f 31/7/67 32/8/70 30/6/64 29/5/61
f 28/4/57 32/8/69 31/7/66 27/3/54
f 29/5/60 30/6/63 26/2/51 25/1/48

# End of Object "terrain2"
