# Created with Anim8or 1.00
# Object "object02":

mtllib test_maze.mtl

# Shape "mesh01":
g mesh01
# No. points 58:
v 98.791 0 -98.967
v -98.791 0 -98.967
v 98.791 0 98.967
v -98.791 0 98.967
v 98.791 185.884 -98.967
v 98.791 185.884 98.967
v -98.791 185.884 -98.967
v -98.791 185.884 98.967
v 98.791 -0.00001 -274.583
v -98.791 -0.00001 -274.583
v 98.791 185.884 -274.583
v -98.791 185.884 -274.583
v 98.791 -0.00001 -455.095
v -98.791 -0.00001 -455.095
v 98.791 185.884 -455.095
v -98.791 185.884 -455.095
v 98.7909 0 -638.44
v -98.7909 0 -638.44
v 98.7909 185.884 -638.44
v -98.7909 185.884 -638.44
v 98.7909 80.3642 -842.966
v -98.7909 80.3642 -842.966
v 98.7909 185.331 -842.966
v -98.7909 185.331 -842.966
v 98.791 80.5147 -1064.01
v -98.791 80.5147 -1064.01
v 98.791 185.335 -1064
v -98.791 185.335 -1064
v 98.791 80.5327 -1300.31
v -98.7909 80.5327 -1300.31
v -345.679 80.5147 -1064.01
v -345.679 80.5327 -1300.31
v -608.594 80.5147 -1098.65
v -717.463 80.5327 -1300.31
v 98.791 80.55 -1527.45
v -98.7909 80.55 -1527.45
v -345.679 80.55 -1527.45
v -717.462 80.55 -1527.45
v 98.7909 80.5686 -1909.98
v -98.7911 80.5686 -1961.94
v -345.679 80.5686 -1909.98
v -608.593 80.5686 -1771.41
v 341.767 80.5147 -1064.01
v 453.11 80.5327 -1300.31
v 453.11 80.55 -1527.45
v 341.767 80.5686 -1771.41
v 341.77 185.335 -1064
v 453.11 185.335 -1300.3
v -345.68 185.335 -1064
v -608.59 185.335 -1098.7
v -717.46 185.335 -1300.3
v 98.791 274.58 -1064.6
v 341.772 274.58 -1063.99
v 453.114 274.58 -1300.3
v -98.791 274.58 -1064.6
v -345.681 274.58 -1063.99
v -608.592 274.58 -1098.69
v -717.462 274.58 -1300.3

# No. normals 148:
vn 0 1 0
vn -1 0 0
vn 1 0 0
vn 0 1 0
vn -1 0 0
vn 1 0 0
vn 0 1 0
vn -1 0 0
vn 1 0 0
vn 0 1 0
vn -1 0 0
vn 1 0 0
vn 0 0.93073 0.36571
vn -1 0 0
vn 1 0 0
vn 0 1 0.00068
vn -1 0 0
vn 1 0 0
vn 0 1 0.00008
vn 0 1 0.00008
vn 0 1 0.00009
vn 0 1 0.00008
vn 0 1 0.00008
vn 0 1 0.00008
vn -0.00001 1 0.00005
vn 0.00001 1 0.00004
vn 0.00003 1 0.00005
vn 0 1 0.00008
vn 0 1 0.00008
vn 0 1 0.00008
vn 0 0.00009 -1
vn -0.90461 0.00003 -0.42625
vn 0 -1 0
vn 0 -1 0
vn 0 -1 0
vn 0 -1 0
vn 0 -0.999996 0.00270
vn 0 -1 -0.00002
vn 0 0.00009 -1
vn 0.13085 0.00009 -0.99140
vn 0.87989 0.00002 -0.47517
vn 0.00250 -0.00672 -0.999974
vn -0.90461 0.00005 -0.42623
vn 0 -0.00672 -0.999977
vn -0.00248 0.00013 -0.999997
vn 0.13087 0.00013 -0.99140
vn 0.87990 0.00003 -0.47516
vn 0 1 0
vn -1 0 0
vn 0 1 0
vn 1 0 0
vn 0 1 0
vn -1 0 0
vn 0 1 0
vn 1 0 0
vn -1 0 0
vn 0 -1 0
vn -1 0 0
vn 0 -1 0
vn 1 0 0
vn 0 -1 0
vn 1 0 0
vn 0 -1 0
vn 0 1 0
vn -1 0 0
vn 0 1 0
vn 1 0 0
vn -1 0 0
vn 0 -1 0
vn 1 0 0
vn 0 -1 0
vn 0 1 0
vn -1 0 0
vn 0 1 0
vn 1 0 0
vn -1 0 0
vn 0 -1 0
vn 1 0 0
vn 0 -1 0
vn 0 0.98253 0.18611
vn -1 0 0
vn 0 0.98253 0.18611
vn 1 0 0
vn -1 0 0
vn 0 -0.999999 0.00135
vn 1 0 0
vn 0 -0.999999 0.00135
vn 0 0.98247 0.18644
vn -1 0 0
vn 0 0.98247 0.18644
vn 1 0 0
vn -1 0 0
vn 0 -0.999999 0.00134
vn 1 0 0
vn 0 -0.999999 0.00134
vn 0 1 0.00028
vn 0 0.00009 -1
vn -1 0 0
vn 0 1 0.00028
vn 0 0.00009 -1
vn 1 0 0
vn -1 0 0
vn 0.00083 -0.00445 -0.99999
vn 0 -1 -0.00002
vn 1 0 0
vn -0.00083 -0.00217 -0.999997
vn 0 -1 -0.00002
vn 0 1 0.00008
vn 0 1 0.00008
vn 0 1 0.00008
vn 0.06557 0.00009 -0.99785
vn 0 1 0.00008
vn 0 1 0.00009
vn 0.87989 0.00002 -0.47517
vn 0.13085 0.00009 -0.99140
vn 0 1 0.00008
vn 0.87989 0.00002 -0.47517
vn 0 1 0.00007
vn 0 1 0.00006
vn 0.00001 1 0.00006
vn 0.00001 1 0.00006
vn -0.00001 1 0.00006
vn 0 1 0.00005
vn 0.00002 1 0.00005
vn 0.00003 1 0.00005
vn 0 1 0.00008
vn -0.90461 0.00003 -0.42625
vn 0 0.00009 -1
vn 0 1 0.00008
vn -0.90461 0.00003 -0.42625
vn 0 1 0.00008
vn 0 1 0.00008
vn 0.00125 -0.00332 -0.999994
vn -0.90461 0.00004 -0.42624
vn -0.90461 0.00004 -0.42624
vn 0.06495 0.00011 -0.99789
vn 0.13086 0.00011 -0.99140
vn 0.87990 0.00002 -0.47516
vn 0.87990 0.00002 -0.47516
vn 0.00125 -0.00672 -0.999977
vn 0.00250 -0.00672 -0.999974
vn -0.90461 0.00005 -0.42623
vn -0.90461 0.00005 -0.42623
vn -0.00124 -0.00330 -0.999994
vn 0.06434 0.00013 -0.99793
vn 0.13087 0.00013 -0.99140
vn 0.87990 0.00003 -0.47516
vn 0.87990 0.00003 -0.47516

# No. texture coordinates 44:
vt 1 1
vt 1 1
vt 1 1
vt 1 1
vt 1 1
vt 1 1
vt 1 1
vt 1 1
vt 1 1
vt 1 1
vt 1 1
vt 1 1
vt 1 1
vt 1 1
vt 1 1
vt 1 1
vt 1 1
vt 1 1
vt 1 1
vt 1 1
vt 1 1
vt 1 1
vt 1 1
vt 1 1
vt 1 1
vt 1 1
vt 1 1
vt 1 1
vt 1 1
vt 1 1
vt 1 1
vt 1 1
vt 1 1
vt 1 1
vt 1 1
vt 1 1
vt 1 1
vt 1 1
vt 1 1
vt 1 1
vt 1 1
vt 1 1
vt 1 1
vt 1 1

# No. faces 47:

usemtl ___default___

f 4/2/54 3/2/52 1/1/48 2/1/50
f 3/2/53 6/4/58 5/3/56 1/1/49
f 2/1/51 7/6/60 8/5/62 4/2/55
f 1/1/48 9/8/64 10/7/66 2/1/50
f 5/3/56 11/9/68 9/8/65 1/1/49
f 2/1/51 10/7/67 12/10/70 7/6/60
f 9/8/64 13/12/72 14/11/74 10/7/66
f 11/9/68 15/13/76 13/12/73 9/8/65
f 10/7/67 14/11/75 16/14/78 12/10/70
f 13/12/72 17/16/80 18/15/82 14/11/74
f 15/13/76 19/17/84 17/16/81 13/12/73
f 14/11/75 18/15/83 20/18/86 16/14/78
f 17/16/80 21/20/88 22/19/90 18/15/82
f 19/17/84 23/21/92 21/20/89 17/16/81
f 18/15/83 22/19/91 24/22/94 20/18/86
f 21/20/88 25/24/96 26/23/99 22/19/90
f 23/21/92 27/25/102 25/24/98 21/20/89
f 22/19/91 26/23/101 28/26/105 24/22/94
f 25/24/96 29/28/108 30/27/109 26/23/99
f 30/27/109 32/30/112 31/29/110 26/23/99
f 32/30/112 34/32/116 33/31/113 31/29/110
f 29/28/108 35/34/118 36/33/119 30/27/109
f 30/27/109 36/33/119 37/35/120 32/30/112
f 32/30/112 37/35/120 38/36/121 34/32/116
f 35/34/118 39/38/122 40/37/123 36/33/119
f 36/33/119 40/37/123 41/39/124 37/35/120
f 37/35/120 41/39/124 42/40/125 38/36/121
f 25/24/96 43/42/126 44/41/129 29/28/108
f 29/28/108 44/41/129 45/43/131 35/34/118
f 35/34/118 45/43/131 46/44/132 39/38/122
f 27//103 47//133 43//128 25//97
f 47//134 48//135 44//130 43//127
f 6//59 8//63 7//61 5//57
f 7//61 12//71 11//69 5//57
f 12//71 16//79 15//77 11//69
f 16//79 20//87 19//85 15//77
f 20//87 24//95 23//93 19//85
f 24//95 28//107 27//104 23//93
f 31//111 49//136 28//106 26//100
f 33//115 50//137 49//136 31//111
f 34//117 51//139 50//138 33//114
f 27//103 52//140 53//141 47//133
f 47//134 53//142 54//143 48//135
f 28//106 55//144 52//140 27//103
f 49//136 56//145 55//144 28//106
f 50//137 57//146 56//145 49//136
f 51//139 58//148 57//147 50//138

# End of Object "object02"
