# Created with Anim8or 1.00
# Object "test_maze_mapped":

mtllib test_maze_mapped2.mtl

# Shape "mesh01":
g mesh01
# No. points 101:
v 98.791 0 -98.967
v -98.791 0 -98.967
v 98.791 0 98.967
v -98.791 0 98.967
v 98.791 185.884 -98.967
v 98.791 185.884 98.967
v -98.791 185.884 -98.967
v -98.791 185.884 98.967
v 98.791 -0.00001 -274.583
v -98.791 -0.00001 -274.583
v 98.791 185.884 -274.583
v -98.791 185.884 -274.583
v 98.791 -0.00001 -455.095
v -98.791 -0.00001 -455.095
v 98.791 185.884 -455.095
v -98.791 185.884 -455.095
v 98.7909 0 -638.44
v -98.7909 0 -638.44
v 98.7909 185.884 -638.44
v -98.7909 185.884 -638.44
v 98.7909 80.3642 -842.966
v -98.7909 80.3642 -842.966
v 98.7909 185.331 -842.966
v -98.7909 185.331 -842.966
v 98.791 80.5147 -1064.01
v -98.791 80.5147 -1064.01
v 98.791 185.335 -1064
v -98.791 185.335 -1064
v 98.791 80.5327 -1300.31
v -98.7909 80.5327 -1300.31
v -345.679 80.5147 -1064.01
v -345.679 80.5327 -1300.31
v -608.594 80.5147 -1098.65
v -717.463 80.5327 -1300.31
v 98.791 80.55 -1527.45
v -98.7909 80.55 -1527.45
v -345.679 80.55 -1527.45
v -717.462 80.55 -1527.45
v 98.7909 80.5686 -1909.98
v -98.7911 80.5686 -1961.94
v -345.679 80.5686 -1909.98
v -608.593 80.5686 -1771.41
v 341.767 80.5147 -1064.01
v 453.11 80.5327 -1300.31
v 453.11 80.55 -1527.45
v 341.767 80.5686 -1771.41
v 341.77 185.335 -1064
v 453.11 185.335 -1300.3
v -345.68 185.335 -1064
v -608.59 185.335 -1098.7
v -717.46 185.335 -1300.3
v 98.791 274.58 -1064.6
v 341.772 274.58 -1063.99
v 453.114 274.58 -1300.3
v -98.791 274.58 -1064.6
v -345.681 274.58 -1063.99
v -608.592 274.58 -1098.69
v -717.462 274.58 -1300.3
v 98.791 0 2.16418
v -98.791 0 2.16418
v 98.791 185.884 2.16418
v -98.791 185.884 2.16418
v -98.791 -0.00001 -189.712
v 98.791 -0.00001 -189.712
v 98.791 185.884 -189.712
v -98.791 185.884 -189.712
v -98.791 -0.00001 -369.308
v 98.791 -0.00001 -369.308
v 98.791 185.884 -369.308
v -98.791 185.884 -369.308
v -98.791 0 -547.369
v 98.791 0 -547.369
v 98.791 185.884 -547.369
v -98.791 185.884 -547.369
v -98.7909 41.4188 -743.85
v 98.7909 41.4188 -743.85
v 98.7909 185.599 -743.85
v -98.7909 185.599 -743.85
v -98.791 80.4368 -949.542
v 98.791 80.4368 -949.542
v 98.791 185.333 -949.542
v -98.791 185.333 -949.542
v -98.791 80.5239 -1184.84
v 98.791 80.5238 -1183.96
v -345.679 80.524 -1185.95
v -656.477 80.5226 -1187.34
v 397.656 80.5237 -1182.62
v 397.662 185.335 -1182.62
v -656.46 185.335 -1187.34
v 397.667 274.58 -1182.62
v -656.465 274.58 -1187.34
v -98.7909 80.5414 -1414.39
v 98.791 80.5413 -1413.5
v -345.679 80.5415 -1415.49
v -717.462 80.5416 -1417.16
v 453.11 80.5412 -1411.91
v -98.791 80.5572 -1695.07
v 98.791 80.5581 -1694.19
v -345.679 80.5582 -1696.18
v -641.574 80.563 -1697.51
v 377.581 80.5626 -1692.94

# No. normals 257:
vn 0 0.00010 -1
vn 0 0.00010 -1
vn 0.13085 0.00010 -0.99140
vn 0.00251 -0.00672 -0.999974
vn 0 -0.00672 -0.999977
vn -0.00247 0.00011 -0.999997
vn 0.13085 0.00011 -0.99140
vn 0 1 0
vn 0 1 0
vn -1 0 0
vn -1 0 0
vn 1 0 0
vn 1 0 0
vn 0 -1 0
vn 0 -1 0
vn 0 1 0
vn 0 1 0
vn -1 0 0
vn -1 0 0
vn 1 0 0
vn 1 0 0
vn 0 -1 0
vn 0 -1 0
vn 0 1 0
vn 0 1 0
vn -1 0 0
vn -1 0 0
vn 1 0 0
vn 1 0 0
vn 0 -1 0
vn 0 -1 0
vn 0 1 0
vn 0 1 0
vn -1 0 0
vn -1 0 0
vn 1 0 0
vn 1 0 0
vn 0 -1 0
vn 0 -1 0
vn 0 0.93073 0.36571
vn 0 0.93073 0.36571
vn -1 0 0
vn -1 0 0
vn 1 0 0
vn 1 0 0
vn 0 -0.999996 0.00270
vn 0 -0.999996 0.00270
vn 0 1 0.00068
vn 0 1 0.00068
vn -1 0 0
vn -1 0 0
vn 1 0 0
vn 1 0 0
vn 0 -1 -0.00002
vn 0 -1 -0.00002
vn 0 1 0.00008
vn 0 1 0.00008
vn 0 1 0.00008
vn 0 1 0.00008
vn -0.00001 1 0.00008
vn 0 1 0.00008
vn 0 1 0.00008
vn 0 1 0.00008
vn -0.90461 0.00007 -0.42625
vn -0.90461 0.00004 -0.42625
vn 0.87989 -0.00026 -0.47517
vn 0.87996 0.00002 -0.47506
vn -0.90462 0.00004 -0.42623
vn -0.90461 0.00007 -0.42624
vn 0.87990 0.00007 -0.47515
vn 0.87990 0.00002 -0.47515
vn 0 1 0.00008
vn 0 1 0.00008
vn 0 1 0.00008
vn 0 1 0.00008
vn 0 1 0.00008
vn 0 1 0.00008
vn 0 1 0.00008
vn 0 1 0.00008
vn 0 1 0.00005
vn -0.00001 1 0.00005
vn 0 1 0.00005
vn 0.00001 1 0.00004
vn 0 1 0.00005
vn 0.00003 1 0.00005
vn -0.00003 1 0.00005
vn 0 1 0.00005
vn 0 1 0
vn -1 0 0
vn 0 1 0
vn 1 0 0
vn 0 1 0
vn -1 0 0
vn 0 1 0
vn 1 0 0
vn -1 0 0
vn 0 -1 0
vn -1 0 0
vn 0 -1 0
vn 1 0 0
vn 0 -1 0
vn 1 0 0
vn 0 -1 0
vn 0 1 0
vn -1 0 0
vn 0 1 0
vn 1 0 0
vn -1 0 0
vn 0 -1 0
vn 1 0 0
vn 0 -1 0
vn 0 1 0
vn -1 0 0
vn 0 1 0
vn 1 0 0
vn -1 0 0
vn 0 -1 0
vn 1 0 0
vn 0 -1 0
vn 0 0.98253 0.18611
vn -1 0 0
vn 0 0.98253 0.18611
vn 1 0 0
vn -1 0 0
vn 0 -0.999999 0.00135
vn 1 0 0
vn 0 -0.999999 0.00135
vn 0 0.98247 0.18644
vn -1 0 0
vn 0 0.98247 0.18644
vn 1 0 0
vn -1 0 0
vn 0 -0.999999 0.00134
vn 1 0 0
vn 0 -0.999999 0.00134
vn 0 0.00010 -1
vn 0 1 0.00028
vn -1 0 0
vn 0 0.00010 -1
vn 0 1 0.00028
vn 1 0 0
vn 0.00084 -0.00445 -0.99999
vn 0 -1 -0.00002
vn -1 0 0
vn -0.00082 -0.00217 -0.999997
vn 0 -1 -0.00002
vn 1 0 0
vn 0 1 0.00008
vn 0 1 0.00008
vn 0.06557 0.00010 -0.99785
vn -0.00001 1 0.00008
vn 0 1 0.00008
vn 0.13085 0.00010 -0.99140
vn 0.87989 -0.00026 -0.47517
vn -0.00001 1 0.00008
vn 0 1 0.00008
vn 0.87996 0.00002 -0.47506
vn 0 1 0.00006
vn 0 1 0.00006
vn 0 1 0.00006
vn 0 1 0.00006
vn -0.00002 1 0.00005
vn 0 1 0.00005
vn 0.00002 1 0.00005
vn 0.00003 1 0.00005
vn 0 0.00010 -1
vn -0.90461 0.00007 -0.42625
vn 0 1 0.00008
vn 0 1 0.00008
vn -0.90461 0.00004 -0.42625
vn 0 1 0.00006
vn -0.00003 1 0.00005
vn 0.00126 -0.00331 -0.999994
vn -0.90461 0.00007 -0.42624
vn -0.90461 0.00004 -0.42624
vn 0.06495 0.00010 -0.99789
vn 0.13085 0.00010 -0.99140
vn 0.87990 -0.00009 -0.47516
vn 0.87993 0.00002 -0.47510
vn 0.00126 -0.00672 -0.999977
vn 0.00251 -0.00672 -0.999974
vn -0.90461 0.00007 -0.42624
vn -0.90462 0.00004 -0.42623
vn -0.00124 -0.00331 -0.999994
vn 0.06433 0.00011 -0.99793
vn 0.13085 0.00011 -0.99140
vn 0.87990 0.00007 -0.47515
vn 0.87990 0.00002 -0.47515
vn 0 1 0
vn -1 0 0
vn 0 1 0
vn 1 0 0
vn -1 0 0
vn 0 -1 0
vn 1 0 0
vn 0 -1 0
vn 0 1 0
vn 1 0 0
vn 0 1 0
vn -1 0 0
vn -1 0 0
vn 0 -1 0
vn 1 0 0
vn 0 -1 0
vn 0 1 0
vn 1 0 0
vn 0 1 0
vn -1 0 0
vn -1 0 0
vn 0 -1 0
vn 1 0 0
vn 0 -1 0
vn 0 1 0
vn 1 0 0
vn 0 1 0
vn -1 0 0
vn -1 0 0
vn 0 -1 0
vn 1 0 0
vn 0 -1 0
vn 0 0.93073 0.36571
vn 1 0 0
vn 0 0.93073 0.36571
vn -1 0 0
vn -1 0 0
vn 0 -0.999996 0.00270
vn 1 0 0
vn 0 -0.999996 0.00270
vn 0 1 0.00068
vn 1 0 0
vn 0 1 0.00068
vn -1 0 0
vn -1 0 0
vn 0 -1 -0.00002
vn 1 0 0
vn 0 -1 -0.00002
vn 0 1 0.00008
vn 0 1 0.00008
vn 0 1 0.00008
vn -0.00001 1 0.00008
vn 0.87993 -0.00012 -0.47511
vn 0 1 0.00008
vn -0.90461 0.00005 -0.42625
vn -0.90461 0.00005 -0.42624
vn 0.87991 -0.00004 -0.47513
vn -0.90461 0.00005 -0.42623
vn 0.87990 0.00005 -0.47515
vn 0 1 0.00008
vn 0 1 0.00008
vn 0 1 0.00008
vn 0 1 0.00008
vn 0 1 0.00008
vn 0 1 0.00005
vn -0.00001 1 0.00005
vn 0.00001 1 0.00005
vn 0.00001 1 0.00005
vn -0.00001 1 0.00005

# No. texture coordinates 268:
vt 0.34818 0.15992
vt 0.42829 0.15992
vt 0.42829 0.24018
vt 0.34818 0.24018
vt 0.56888 0.00557
vt 0.56888 0.08095
vt 0.48862 0.08095
vt 0.48862 0.00557
vt 0.56307 0.08441
vt 0.56307 0.15978
vt 0.48281 0.15978
vt 0.48281 0.08441
vt 0.42829 0.24018
vt 0.42829 0.31139
vt 0.34818 0.31139
vt 0.34818 0.24018
vt 0.48862 0.08095
vt 0.41741 0.08095
vt 0.41741 0.00557
vt 0.48862 0.00557
vt 0.56307 0.08441
vt 0.63428 0.08441
vt 0.63428 0.15978
vt 0.56307 0.15978
vt 0.42829 0.31139
vt 0.42829 0.38458
vt 0.34818 0.38458
vt 0.34818 0.31139
vt 0.41741 0.08095
vt 0.34422 0.08095
vt 0.34422 0.00557
vt 0.41741 0.00557
vt 0.63428 0.08441
vt 0.70748 0.08441
vt 0.70748 0.15978
vt 0.63428 0.15978
vt 0.42829 0.38458
vt 0.42829 0.45892
vt 0.34818 0.45892
vt 0.34818 0.38458
vt 0.34422 0.08095
vt 0.26988 0.08095
vt 0.26988 0.00557
vt 0.34422 0.00557
vt 0.70748 0.08441
vt 0.78182 0.08441
vt 0.78182 0.15978
vt 0.70748 0.15978
vt 0.42829 0.45892
vt 0.42829 0.54185
vt 0.34818 0.54185
vt 0.34818 0.45892
vt 0.26988 0.08095
vt 0.18695 0.08072
vt 0.18695 0.03816
vt 0.26988 0.00557
vt 0.78182 0.08441
vt 0.86475 0.11699
vt 0.86475 0.15955
vt 0.78182 0.15978
vt 0.42829 0.54185
vt 0.42829 0.63148
vt 0.34818 0.63148
vt 0.34818 0.54185
vt 0.18695 0.08072
vt 0.09732 0.08072
vt 0.09732 0.03822
vt 0.18695 0.03816
vt 0.86475 0.11699
vt 0.95438 0.11705
vt 0.95437 0.15956
vt 0.86475 0.15955
vt 0.42829 0.63148
vt 0.42829 0.72730
vt 0.34818 0.72730
vt 0.34818 0.63148
vt 0.34818 0.72730
vt 0.24807 0.72730
vt 0.24807 0.63148
vt 0.34818 0.63148
vt 0.24807 0.72730
vt 0.09732 0.72730
vt 0.14146 0.64553
vt 0.24807 0.63148
vt 0.42829 0.72730
vt 0.42829 0.81940
vt 0.34818 0.81940
vt 0.34818 0.72730
vt 0.34818 0.72730
vt 0.34818 0.81940
vt 0.24807 0.81940
vt 0.24807 0.72730
vt 0.24807 0.72730
vt 0.24807 0.81940
vt 0.09732 0.81940
vt 0.09732 0.72730
vt 0.42829 0.81940
vt 0.42829 0.97451
vt 0.34818 0.99557
vt 0.34818 0.81940
vt 0.34818 0.81940
vt 0.34818 0.99557
vt 0.24807 0.97451
vt 0.24807 0.81940
vt 0.24807 0.81940
vt 0.24807 0.97451
vt 0.14146 0.91832
vt 0.09732 0.81940
vt 0.42829 0.63148
vt 0.52681 0.63148
vt 0.57196 0.72730
vt 0.42829 0.72730
vt 0.42829 0.72730
vt 0.57196 0.72730
vt 0.57196 0.81940
vt 0.42829 0.81940
vt 0.42829 0.81940
vt 0.57196 0.81940
vt 0.52681 0.91832
vt 0.42829 0.97451
vt 0.19584 0.12359
vt 0.09732 0.12359
vt 0.09732 0.08109
vt 0.19584 0.08109
vt 0.74818 0.95939
vt 0.65237 0.95939
vt 0.65236 0.91689
vt 0.74818 0.91689
vt 0.65222 0.99557
vt 0.57210 0.99557
vt 0.57210 0.91532
vt 0.65222 0.91532
vt 0.57210 0.91532
vt 0.57210 0.84411
vt 0.65222 0.84411
vt 0.65222 0.91532
vt 0.57210 0.84411
vt 0.57210 0.77091
vt 0.65222 0.77091
vt 0.65222 0.84411
vt 0.57210 0.77091
vt 0.57210 0.69657
vt 0.65222 0.69657
vt 0.65222 0.77091
vt 0.57210 0.69657
vt 0.57210 0.61364
vt 0.65222 0.61364
vt 0.65222 0.69657
vt 0.57210 0.61364
vt 0.57210 0.52402
vt 0.65222 0.52402
vt 0.65222 0.61364
vt 0.37607 0.08109
vt 0.37607 0.12359
vt 0.27596 0.12359
vt 0.27596 0.08109
vt 0.48267 0.08109
vt 0.48267 0.12359
vt 0.37607 0.12359
vt 0.37607 0.08109
vt 0.83010 0.91689
vt 0.83009 0.95939
vt 0.74835 0.95939
vt 0.74833 0.91689
vt 0.19584 0.12359
vt 0.19584 0.15978
vt 0.09732 0.15978
vt 0.09732 0.12359
vt 0.74818 0.95939
vt 0.74818 0.99557
vt 0.65237 0.99557
vt 0.65237 0.95939
vt 0.27596 0.12359
vt 0.27596 0.15978
vt 0.19584 0.15978
vt 0.19584 0.12359
vt 0.37607 0.12359
vt 0.37607 0.15978
vt 0.27596 0.15978
vt 0.27596 0.12359
vt 0.48267 0.12359
vt 0.48267 0.15978
vt 0.37607 0.15978
vt 0.37607 0.12359
vt 0.83009 0.95939
vt 0.83009 0.99557
vt 0.74834 0.99557
vt 0.74835 0.95939
vt 0.42829 0.19917
vt 0.34818 0.19917
vt 0.52963 0.08095
vt 0.52963 0.00557
vt 0.52207 0.15978
vt 0.52207 0.08441
vt 0.57210 0.95632
vt 0.65222 0.95632
vt 0.34818 0.27697
vt 0.42829 0.27697
vt 0.45183 0.00557
vt 0.45183 0.08095
vt 0.59987 0.15978
vt 0.59987 0.08441
vt 0.65222 0.87852
vt 0.57210 0.87852
vt 0.34818 0.34980
vt 0.42829 0.34980
vt 0.37901 0.00557
vt 0.37901 0.08095
vt 0.67269 0.15978
vt 0.67269 0.08441
vt 0.65222 0.80570
vt 0.57210 0.80570
vt 0.34818 0.42200
vt 0.42829 0.42200
vt 0.30681 0.00557
vt 0.30681 0.08095
vt 0.74489 0.15978
vt 0.74489 0.08441
vt 0.65222 0.73350
vt 0.57210 0.73350
vt 0.34818 0.50166
vt 0.42829 0.50166
vt 0.22714 0.02237
vt 0.22714 0.08083
vt 0.82456 0.15966
vt 0.82456 0.10120
vt 0.65222 0.65383
vt 0.57210 0.65383
vt 0.34818 0.58507
vt 0.42829 0.58507
vt 0.14373 0.03819
vt 0.14373 0.08072
vt 0.90796 0.15955
vt 0.90796 0.11702
vt 0.65222 0.57043
vt 0.57210 0.57043
vt 0.34818 0.68048
vt 0.42829 0.68012
vt 0.24807 0.68093
vt 0.34818 0.68048
vt 0.12205 0.68149
vt 0.24807 0.68093
vt 0.54948 0.67958
vt 0.42829 0.68012
vt 0.70008 0.91689
vt 0.70008 0.95939
vt 0.78429 0.95939
vt 0.78429 0.91689
vt 0.70008 0.99557
vt 0.70008 0.95939
vt 0.78429 0.99557
vt 0.78429 0.95939
vt 0.34818 0.77355
vt 0.42829 0.77319
vt 0.24807 0.77400
vt 0.34818 0.77355
vt 0.09732 0.77468
vt 0.24807 0.77400
vt 0.57196 0.77255
vt 0.42829 0.77319
vt 0.34818 0.88737
vt 0.42829 0.88701
vt 0.24807 0.88781
vt 0.34818 0.88737
vt 0.12809 0.88835
vt 0.24807 0.88781
vt 0.54134 0.88650
vt 0.42829 0.88701

# No. faces 87:

usemtl ___default___

f 27/121/142 47/122/173 43/123/166 25/124/136
f 31/153/150 49/154/176 28/155/145 26/156/139
f 33/157/153 50/158/177 49/159/176 31/160/150
f 27/165/142 52/166/180 53/167/181 47/168/173
f 28/173/145 55/174/184 52/175/180 27/176/142
f 49/177/176 56/178/185 55/179/184 28/180/145
f 50/181/177 57/182/186 56/183/185 49/184/176
f 59/189/189 1/3/88 2/4/90 60/190/191
f 60/190/191 4/1/94 3/2/92 59/189/189
f 61/191/193 5/7/96 1/8/89 59/192/190
f 59/192/190 3/5/93 6/6/98 61/191/193
f 62/193/195 8/11/102 4/12/95 60/194/192
f 60/194/192 2/9/91 7/10/100 62/193/195
f 62/195/196 7/131/101 5/132/97 61/196/194
f 61/196/194 6/129/99 8/130/103 62/195/196
f 63/197/197 2/16/90 1/13/88 64/198/199
f 64/198/199 9/14/104 10/15/106 63/197/197
f 64/199/200 1/20/89 5/17/96 65/200/201
f 65/200/201 11/18/108 9/19/105 64/199/200
f 66/201/203 7/24/100 2/21/91 63/202/198
f 63/202/198 10/22/107 12/23/110 66/201/203
f 65/203/202 5/136/97 7/133/101 66/204/204
f 66/204/204 12/134/111 11/135/109 65/203/202
f 67/205/205 10/28/106 9/25/104 68/206/207
f 68/206/207 13/26/112 14/27/114 67/205/205
f 68/207/208 9/32/105 11/29/108 69/208/209
f 69/208/209 15/30/116 13/31/113 68/207/208
f 70/209/211 12/36/110 10/33/107 67/210/206
f 67/210/206 14/34/115 16/35/118 70/209/211
f 69/211/210 11/140/109 12/137/111 70/212/212
f 70/212/212 16/138/119 15/139/117 69/211/210
f 71/213/213 14/40/114 13/37/112 72/214/215
f 72/214/215 17/38/120 18/39/122 71/213/213
f 72/215/216 13/44/113 15/41/116 73/216/217
f 73/216/217 19/42/124 17/43/121 72/215/216
f 74/217/219 16/48/118 14/45/115 71/218/214
f 71/218/214 18/46/123 20/47/126 74/217/219
f 73/219/218 15/144/117 16/141/119 74/220/220
f 74/220/220 20/142/127 19/143/125 73/219/218
f 75/221/221 18/52/122 17/49/120 76/222/223
f 76/222/223 21/50/128 22/51/130 75/221/221
f 76/223/224 17/56/121 19/53/124 77/224/225
f 77/224/225 23/54/132 21/55/129 76/223/224
f 78/225/227 20/60/126 18/57/123 75/226/222
f 75/226/222 22/58/131 24/59/134 78/225/227
f 77/227/226 19/148/125 20/145/127 78/228/228
f 78/228/228 24/146/135 23/147/133 77/227/226
f 79/229/229 22/64/130 21/61/128 80/230/231
f 80/230/231 25/62/137 26/63/140 79/229/229
f 80/231/232 21/68/129 23/65/132 81/232/233
f 81/232/233 27/66/144 25/67/138 80/231/232
f 82/233/235 24/72/134 22/69/131 79/234/230
f 79/234/230 26/70/141 28/71/147 82/233/235
f 81/235/234 23/152/133 24/149/135 82/236/236
f 82/236/236 28/150/146 27/151/143 81/235/234
f 83/237/237 26/76/140 25/73/137 84/238/238
f 84/238/238 29/74/148 30/75/149 83/237/237
f 85/239/239 31/79/151 26/80/140 83/240/237
f 83/240/237 30/77/149 32/78/152 85/239/239
f 86/241/240 33/83/155 31/84/151 85/242/239
f 85/242/239 32/81/152 34/82/156 86/241/240
f 87/243/242 44/111/169 29/112/148 84/244/238
f 84/244/238 25/109/137 43/110/168 87/243/242
f 87/245/243 43/128/167 47/125/174 88/246/244
f 88/246/244 48/126/175 44/127/170 87/245/243
f 89/247/245 50/163/178 33/164/154 86/248/241
f 86/248/241 34/161/157 51/162/179 89/247/245
f 90/249/246 54/171/183 48/172/175 88/250/244
f 88/250/244 47/169/174 53/170/182 90/249/246
f 91/251/247 57/187/187 50/188/178 89/252/245
f 89/252/245 51/185/179 58/186/188 91/251/247
f 92/253/248 30/88/149 29/85/148 93/254/249
f 93/254/249 35/86/158 36/87/159 92/253/248
f 94/255/250 32/92/152 30/89/149 92/256/248
f 92/256/248 36/90/159 37/91/160 94/255/250
f 95/257/251 34/96/156 32/93/152 94/258/250
f 94/258/250 37/94/160 38/95/161 95/257/251
f 96/259/252 45/115/171 35/116/158 93/260/249
f 93/260/249 29/113/148 44/114/169 96/259/252
f 97/261/253 36/100/159 35/97/158 98/262/254
f 98/262/254 39/98/162 40/99/163 97/261/253
f 99/263/255 37/104/160 36/101/159 97/264/253
f 97/264/253 40/102/163 41/103/164 99/263/255
f 100/265/256 38/108/161 37/105/160 99/266/255
f 99/266/255 41/106/164 42/107/165 100/265/256
f 101/267/257 46/119/172 39/120/162 98/268/254
f 98/268/254 35/117/158 45/118/171 101/267/257

# End of Object "test_maze_mapped"
