# Created with Anim8or 1.00
# Object "test_hall5_cd":

mtllib test_hall5_cd.mtl

# Shape "mesh01":
g mesh01
# No. points 100:
v -641.09 -192.326 -6704.79
v -641.09 -192.326 727.389
v 6791.09 -192.326 -6704.79
v 6791.09 -192.326 727.389
v 6557.05 -187.343 -6631.57
v 6557.05 -187.343 553.291
v 6557.05 543.794 -6631.57
v 6557.05 543.794 553.291
v -412.306 -187.343 -6631.57
v -412.306 -187.343 553.291
v -412.306 543.794 -6631.57
v -412.306 543.794 553.291
v 434.295 -187.343 -3100.18
v 434.295 -187.343 554.475
v 434.295 543.794 -3100.18
v 434.295 543.794 554.475
v 434.295 -187.343 -3100.18
v 434.295 -187.343 554.475
v 434.295 543.794 -3100.18
v 434.295 543.794 554.475
v 1335.11 -177.343 -1333.15
v 1335.11 -177.343 554.475
v 1335.11 553.794 -1333.15
v 1335.11 553.794 554.475
v 1335.11 -177.343 -3961.18
v 1335.11 -177.343 -2200.78
v 1335.11 553.794 -3961.18
v 1335.11 553.794 -2200.78
v 1352 -177.343 -5744.51
v 1352 -177.343 -4851.2
v 1352 553.794 -5744.51
v 1352 553.794 -4851.2
v 409.996 -177.343 -5744.51
v 409.996 -177.343 -4851.2
v 409.996 553.794 -5744.51
v 409.996 553.794 -4851.2
v 434.347 -177.343 -5768.86
v 1327.65 -177.343 -5768.86
v 434.347 553.794 -5768.86
v 1327.65 553.794 -5768.86
v 434.346 -177.343 -4826.85
v 1327.65 -177.343 -4826.85
v 434.346 553.794 -4826.85
v 1327.65 553.794 -4826.85
v 2201.32 -187.343 -4856.23
v 2201.32 -187.343 -447.758
v 2201.32 543.794 -4856.23
v 2201.32 543.794 -447.758
v 3079.06 -187.343 -2202.38
v 3079.06 -187.343 -447.758
v 3079.06 543.794 -2202.38
v 3079.06 543.794 -447.758
v 3968.57 -187.343 -3946.67
v 3968.57 -187.343 -2225.54
v 3968.57 543.794 -3946.67
v 3968.57 543.794 -2225.54
v 2206.31 -177.343 -6635.33
v 2206.31 -177.343 -5742.02
v 2206.31 553.794 -6635.33
v 2206.31 553.794 -5742.02
v 3079.06 -187.343 -6642.14
v 3079.06 -187.343 -3091.28
v 3079.06 543.794 -6642.14
v 3079.06 543.794 -3091.28
v 5736.91 -187.343 -6642.14
v 5736.91 -187.343 -3979.34
v 5736.91 543.794 -6642.14
v 5736.91 543.794 -3979.34
v -424.483 -177.343 -3980.04
v 1335.92 -177.343 -3980.04
v -424.483 553.794 -3980.04
v 1335.92 553.794 -3980.04
v 2203.55 -177.343 -438.544
v 3078.26 -177.343 -438.544
v 2203.55 553.794 -438.544
v 3078.26 553.794 -438.544
v 3974.18 -167.343 -3980.04
v 5734.59 -167.343 -3980.04
v 3974.18 563.794 -3980.04
v 5734.59 563.794 -3980.04
v 3974.18 -167.343 -2212.36
v 5734.59 -167.343 -2212.36
v 3974.18 563.794 -2212.36
v 5734.59 563.794 -2212.36
v 3111.51 -157.343 -4860.35
v 4871.91 -157.343 -4860.35
v 3111.51 573.794 -4860.35
v 4871.91 573.794 -4860.35
v -516.469 -187.343 -6605.45
v 6668.39 -187.343 -6605.45
v -516.469 543.794 -6605.45
v 6668.39 543.794 -6605.45
v -516.469 -187.343 439.66
v 6668.39 -187.343 439.66
v -516.469 543.794 439.66
v 6668.39 543.794 439.659
v 3097.04 -167.343 -1326.56
v 6615.08 -167.343 -1326.56
v 3097.04 563.794 -1326.56
v 6615.08 563.794 -1326.56

# No. normals 125:
vn 0 1 0
vn -1 0 0
vn -1 0 0
vn -1 0 0
vn -1 0 0
vn -1 0 0
vn -1 0 0
vn -1 0 0
vn -1 0 0
vn 0 0 1
vn 0 0 1
vn -1 0 0
vn -1 0 0
vn -1 0 0
vn -1 0 0
vn -1 0 0
vn -1 0 0
vn 0 0 1
vn 0 0 1
vn 0 0 1
vn 0 0 1
vn 0 0 1
vn 0 0 1
vn 0 0 1
vn 0 0 1
vn 0 1 0
vn 0 1 0
vn 0 1 0
vn 0 1 0
vn -1 0 0
vn -1 0 0
vn -1 0 0
vn -1 0 0
vn -1 0 0
vn -1 0 0
vn -1 0 0
vn -1 0 0
vn -1 0 0
vn -1 0 0
vn -1 0 0
vn -1 0 0
vn -1 0 0
vn -1 0 0
vn -1 0 0
vn -1 0 0
vn -1 0 0
vn -1 0 0
vn -1 0 0
vn -1 0 0
vn -1 0 0
vn -1 0 0
vn -1 0 0
vn -1 0 0
vn -1 0 0
vn -1 0 0
vn -1 0 0
vn -1 0 0
vn -1 0 0
vn -1 0 0
vn -1 0 0
vn -1 0 0
vn 0 0 1
vn 0 0 1
vn 0 0 1
vn 0 0 1
vn 0 0 1
vn 0 0 1
vn 0 0 1
vn 0 0 1
vn -1 0 0
vn -1 0 0
vn -1 0 0
vn -1 0 0
vn -1 0 0
vn -1 0 0
vn -1 0 0
vn -1 0 0
vn -1 0 0
vn -1 0 0
vn -1 0 0
vn -1 0 0
vn -1 0 0
vn -1 0 0
vn -1 0 0
vn -1 0 0
vn -1 0 0
vn -1 0 0
vn -1 0 0
vn -1 0 0
vn -1 0 0
vn -1 0 0
vn -1 0 0
vn -1 0 0
vn 0 0 1
vn 0 0 1
vn 0 0 1
vn 0 0 1
vn 0 0 1
vn 0 0 1
vn 0 0 1
vn 0 0 1
vn 0 0 1
vn 0 0 1
vn 0 0 1
vn 0 0 1
vn 0 0 1
vn 0 0 1
vn 0 0 1
vn 0 0 1
vn 0 0 1
vn 0 0 1
vn 0 0 1
vn 0 0 1
vn 0 0 1
vn 0 0 1
vn 0 0 1
vn 0 0 1
vn 0 0 1
vn 0 0 1
vn 0 0 1
vn 0 0 1
vn 0 0 1
vn 0 0 1
vn 0 0 1
vn 0 0 1

# No. texture coordinates 100:
vt 0 1
vt 0 1
vt 1 1
vt 1 1
vt 0 0
vt 0 0
vt 0 1
vt 0 1
vt 0 0
vt 0 0
vt 0 1
vt 0 1
vt 0 0
vt 0 0
vt 0 1
vt 0 1
vt 0 0
vt 0 0
vt 0 1
vt 0 1
vt 0 0
vt 0 0
vt 0 1
vt 0 1
vt 0 0
vt 0 0
vt 0 1
vt 0 1
vt 0 0
vt 0 0
vt 0 1
vt 0 1
vt 0 0
vt 0 0
vt 0 1
vt 0 1
vt 0 0
vt 0 0
vt 0 1
vt 0 1
vt 0 0
vt 0 0
vt 0 1
vt 0 1
vt 0 0
vt 0 0
vt 0 1
vt 0 1
vt 0 0
vt 0 0
vt 0 1
vt 0 1
vt 0 0
vt 0 0
vt 0 1
vt 0 1
vt 0 0
vt 0 0
vt 0 1
vt 0 1
vt 0 0
vt 0 0
vt 0 1
vt 0 1
vt 0 0
vt 0 0
vt 0 1
vt 0 1
vt 0 0
vt 0 0
vt 0 1
vt 0 1
vt 0 0
vt 0 0
vt 0 1
vt 0 1
vt 0 0
vt 0 0
vt 0 1
vt 0 1
vt 0 0
vt 0 0
vt 0 1
vt 0 1
vt 0 0
vt 0 0
vt 0 1
vt 0 1
vt 0 0
vt 0 0
vt 0 1
vt 0 1
vt 0 0
vt 0 0
vt 0 1
vt 0 1
vt 0 0
vt 0 0
vt 0 1
vt 0 1

# No. faces 25:

usemtl ___default___

f 2/2/27 4/4/29 3/3/28 1/1/26
f 6/6/31 8/8/33 7/7/32 5/5/30
f 10/10/35 12/12/37 11/11/36 9/9/34
f 14/14/39 16/16/41 15/15/40 13/13/38
f 18/18/43 20/20/45 19/19/44 17/17/42
f 22/22/47 24/24/49 23/23/48 21/21/46
f 26/26/51 28/28/53 27/27/52 25/25/50
f 30/30/55 32/32/57 31/31/56 29/29/54
f 34/34/59 36/36/61 35/35/60 33/33/58
f 38/38/63 40/40/65 39/39/64 37/37/62
f 42/42/67 44/44/69 43/43/68 41/41/66
f 46/46/71 48/48/73 47/47/72 45/45/70
f 50/50/75 52/52/77 51/51/76 49/49/74
f 54/54/79 56/56/81 55/55/80 53/53/78
f 58/58/83 60/60/85 59/59/84 57/57/82
f 62/62/87 64/64/89 63/63/88 61/61/86
f 66/66/91 68/68/93 67/67/92 65/65/90
f 70/70/95 72/72/97 71/71/96 69/69/94
f 74/74/99 76/76/101 75/75/100 73/73/98
f 78/78/103 80/80/105 79/79/104 77/77/102
f 82/82/107 84/84/109 83/83/108 81/81/106
f 86/86/111 88/88/113 87/87/112 85/85/110
f 90/90/115 92/92/117 91/91/116 89/89/114
f 94/94/119 96/96/121 95/95/120 93/93/118
f 98/98/123 100/100/125 99/99/124 97/97/122

# End of Object "test_hall5_cd"
