# Created with Anim8or 1.00
# Object "test_maze_cd":

mtllib test_maze_cd2.mtl

# Shape "mesh01":
g mesh01
# No. points 52:
v -141.015 6.7267 -636.357
v -141.015 6.7267 196.895
v -141.015 237.092 -636.357
v -141.015 237.092 196.895
v 126.811 6.7267 -636.357
v 126.811 6.7267 196.895
v 126.811 237.092 -636.357
v 126.811 237.092 196.895
v -141.015 85.962 -840.849
v 126.811 85.962 -840.849
v 126.811 302.217 -840.849
v -141.015 302.217 -840.849
v -141.01 85.962 -1058.6
v 126.81 85.962 -1058.6
v 126.808 302.219 -1058.57
v -141.012 302.219 -1058.57
v -622.152 86.1967 -1762.28
v -622.151 86.1967 -1054.21
v 345.385 86.1967 -1762.28
v 345.385 86.1967 -1054.21
v -325.864 86.1967 -1917.62
v 87.5986 86.1967 -1917.62
v -143.405 86.1967 -1960.14
v -59.7081 86.1967 -1960.14
v -717.901 86.1967 -1546.34
v -717.901 86.1967 -1298.6
v 446.733 86.1967 -1551.14
v 446.733 86.1967 -1266.76
v -725.97 80.2728 -1403.42
v -725.97 438.06 -1403.42
v -588.046 80.2728 -1145.27
v -588.046 438.06 -1145.27
v -348.109 80.2728 -1095.46
v -348.109 438.06 -1095.46
v -143.32 80.2728 -1090.12
v -143.32 438.06 -1090.12
v -143.693 80.2728 -1066.18
v -143.693 438.06 -1066.18
v 122.313 85.6281 -1088.74
v 122.313 434.138 -1088.74
v 123.603 85.6281 -1068.68
v 123.603 434.138 -1068.68
v 310.861 85.6281 -1105.47
v 310.861 434.138 -1105.47
v 440.644 85.6281 -1397.9
v 440.644 434.138 -1397.9
v 358.098 85.6281 -1752.12
v 358.098 434.138 -1752.12
v -42.5091 85.6281 -1949.75
v -42.5091 434.138 -1949.75
v -616.239 85.6281 -1762.79
v -616.239 434.138 -1762.79

# No. normals 138:
vn 0 0 1
vn -1 0 0
vn 1 0 0
vn 0 1 0
vn 0 -1 0
vn 0 -0.93245 -0.36130
vn 1 0 0
vn 0 0.95285 0.30345
vn -1 0 0
vn 0 -1 0
vn 1 0.00001 -0.00001
vn 0 1 0.00001
vn -1 -0.00001 -0.00001
vn 0 1 0
vn 0 1 0
vn 0 1 0
vn 0 1 0
vn 0 1 0
vn 0.88201 0 -0.47124
vn 0.20326 0 -0.97912
vn 0.02607 0 -0.99966
vn 0.999879 0 0.01558
vn -0.99794 0 0.06417
vn -0.08837 0 -0.99609
vn -0.91403 0 -0.40565
vn -0.97391 0 0.22696
vn -0.44243 0 0.89680
vn 0.30984 0 0.95079
vn -1 0 0
vn 0 -0.98297 -0.18378
vn 0 0 1
vn 0 -1 0
vn -1 0 0
vn -1 0 0
vn 0 0.98814 0.15355
vn 0 0 1
vn 0 1 0
vn -1 0 0
vn 1 0 0
vn 0 -0.98297 -0.18378
vn 0 0 1
vn 0 -1 0
vn 1 0 0
vn 1 0 0
vn 0 0.98814 0.15355
vn 0 0 1
vn 0 1 0
vn 1 0 0
vn 0 -0.98297 -0.18378
vn -1 0 -0.00001
vn 0 -0.98297 -0.18378
vn 1 0 -0.00001
vn 1 0 -0.00001
vn 0 0.98814 0.15355
vn 0 0.98814 0.15355
vn -1 0 -0.00001
vn 0 -1 0
vn -1 -0.00001 -0.00001
vn 0 -1 0
vn 1 0.00001 -0.00001
vn 1 0.00001 -0.00001
vn 0 1 0.00001
vn 0 1 0.00001
vn -1 -0.00001 -0.00001
vn 0 1 0
vn 0 1 0
vn 0 1 0
vn 0 1 0
vn 0 1 0
vn 0 1 0
vn 0 1 0
vn 0 1 0
vn 0 1 0
vn 0 1 0
vn 0 1 0
vn 0 1 0
vn 0.88201 0 -0.47124
vn 0.88201 0 -0.47124
vn 0.88201 0 -0.47124
vn 0.20326 0 -0.97912
vn 0.88201 0 -0.47124
vn 0.20326 0 -0.97912
vn 0.11512 0 -0.99335
vn 0.11512 0 -0.99335
vn 0.02607 0 -0.99966
vn 0.999879 0 0.01558
vn 0.02607 0 -0.99966
vn 0.999879 0 0.01558
vn 0.999879 0 0.01558
vn 0.999879 0 0.01558
vn -0.99794 0 0.06417
vn -0.08837 0 -0.99609
vn -0.99794 0 0.06417
vn -0.08837 0 -0.99609
vn -0.99794 0 0.06417
vn -0.99794 0 0.06417
vn -0.08837 0 -0.99609
vn -0.91403 0 -0.40565
vn -0.08837 0 -0.99609
vn -0.91403 0 -0.40565
vn -0.99555 0 -0.09423
vn -0.99555 0 -0.09423
vn -0.97391 0 0.22696
vn -0.44243 0 0.89680
vn -0.97391 0 0.22696
vn -0.44243 0 0.89680
vn -0.07158 0 0.99744
vn -0.07158 0 0.99744
vn 0.30984 0 0.95079
vn 0.30984 0 0.95079
vn 0 0 1
vn -1 0 0
vn 1 0 0
vn 0 1 0
vn 0 -1 0
vn 0 -0.93245 -0.36130
vn 1 0 0
vn 0 0.95285 0.30345
vn -1 0 0
vn 0 -1 0
vn 1 0.00001 -0.00001
vn 0 1 0.00001
vn -1 -0.00001 -0.00001
vn 0 1 0
vn 0 1 0
vn 0 1 0
vn 0 1 0
vn 0 1 0
vn 0.88201 0 -0.47124
vn 0.20326 0 -0.97912
vn 0.02607 0 -0.99966
vn 0.999879 0 0.01558
vn -0.99794 0 0.06417
vn -0.08837 0 -0.99609
vn -0.91403 0 -0.40565
vn -0.97391 0 0.22696
vn -0.44243 0 0.89680
vn 0.30984 0 0.95079

# No. texture coordinates 52:
vt 0 0
vt 0 0
vt 0 1
vt 0 1
vt 1 0
vt 1 0
vt 1 1
vt 1 1
vt 1 0
vt 0 0
vt 1 1
vt 0 1
vt 1 -0.06585
vt 0 -0.10041
vt 1 0.91790
vt 0 0.88317
vt 0 1
vt 0 1
vt 1 1
vt 1 1
vt 0 1
vt 1 1
vt -0.19614 1
vt 0.80386 1
vt -0.09896 1
vt -0.09896 1
vt 1.10475 1
vt 1.10475 1
vt 0 0
vt 0 1
vt 1 0
vt 1 1
vt 1.16465 0
vt 1.16465 1
vt 1.21248 0
vt 1.21248 1
vt 1.21837 0
vt 1.21837 1
vt -0.51059 1
vt -0.51059 0
vt -0.52858 1
vt -0.52858 0
vt -0.43080 0
vt -0.43080 1
vt -0.36695 0
vt -0.36695 1
vt -0.33807 0
vt -0.33807 1
vt -0.32195 0
vt -0.32195 1
vt -0.31534 0
vt -0.31534 1

# No. faces 28:

usemtl ___default___

f 6/6/41 8/8/46 4/4/36 2/2/31
f 2/2/33 4/4/38 3/3/34 1/1/29
f 7/7/44 8/8/48 6/6/43 5/5/39
f 4/4/37 8/8/47 7/7/45 3/3/35
f 5/5/40 6/6/42 2/2/32 1/1/30
f 1/1/30 9/10/49 10/9/51 5/5/40
f 5/5/39 10/9/52 11/11/53 7/7/44
f 7/7/45 11/11/54 12/12/55 3/3/35
f 3/3/34 12/12/56 9/10/50 1/1/29
f 9/10/49 13/14/57 14/13/59 10/9/51
f 10/9/52 14/13/60 15/15/61 11/11/53
f 11/11/54 15/15/62 16/16/63 12/12/55
f 12/12/56 16/16/64 13/14/58 9/10/50
f 18/18/66 20/20/68 19/19/67 17/17/65
f 19/19/67 22/22/70 21/21/69 17/17/65
f 22/22/70 24/24/72 23/23/71 21/21/69
f 17/17/65 25/26/73 26/25/74 18/18/66
f 20/20/68 28/28/76 27/27/75 19/19/67
f 30/30/78 32/32/81 31/31/79 29/29/77
f 32/32/82 34/34/84 33/33/83 31/31/80
f 34/34/84 36/36/87 35/35/85 33/33/83
f 36/36/88 38/38/90 37/37/89 35/35/86
f 39/40/91 41/42/95 42/41/96 40/39/93
f 40/39/94 44/44/99 43/43/97 39/40/92
f 44/44/100 46/46/102 45/45/101 43/43/98
f 46/46/102 48/48/105 47/47/103 45/45/101
f 48/48/106 50/50/108 49/49/107 47/47/104
f 50/50/108 52/52/110 51/51/109 49/49/107

# Shape "mesh02":
g mesh02
# No. points 0:

# No. normals 0:

# No. texture coordinates 0:

# No. faces 0:

# End of Object "test_maze_cd"
