# Wavefront OBJ file
# Creator: Ultimate Unwrap3D Pro (x64) v3.50.66
# Website: http://www.unwrap3d.com
# Time: Fri Mar 24 12:58:18 2023
# num_vertices: 58
# num_vertex_normals: 58
# num_uvs: 188
# num_faces: 47
# num_groups: 1

mtllib test_maze_mapped.mtl

v 98.791000 0.000000 -98.967003
v -98.791000 0.000000 -98.967003
v 98.791000 0.000000 98.967003
v -98.791000 0.000000 98.967003
v 98.791000 185.884003 -98.967003
v 98.791000 185.884003 98.967003
v -98.791000 185.884003 -98.967003
v -98.791000 185.884003 98.967003
v 98.791000 -0.000010 -274.583008
v -98.791000 -0.000010 -274.583008
v 98.791000 185.884003 -274.583008
v -98.791000 185.884003 -274.583008
v 98.791000 -0.000010 -455.095001
v -98.791000 -0.000010 -455.095001
v 98.791000 185.884003 -455.095001
v -98.791000 185.884003 -455.095001
v 98.790901 0.000000 -638.440002
v -98.790901 0.000000 -638.440002
v 98.790901 185.884003 -638.440002
v -98.790901 185.884003 -638.440002
v 98.790901 80.364197 -842.966003
v -98.790901 80.364197 -842.966003
v 98.790901 185.330994 -842.966003
v -98.790901 185.330994 -842.966003
v 98.791000 80.514702 -1064.010010
v -98.791000 80.514702 -1064.010010
v 98.791000 185.335007 -1064.000000
v -98.791000 185.335007 -1064.000000
v 98.791000 80.532700 -1300.310059
v -98.790901 80.532700 -1300.310059
v -345.678986 80.514702 -1064.010010
v -345.678986 80.532700 -1300.310059
v -608.593994 80.514702 -1098.650024
v -717.463013 80.532700 -1300.310059
v 98.791000 80.550003 -1527.449951
v -98.790901 80.550003 -1527.449951
v -345.678986 80.550003 -1527.449951
v -717.461975 80.550003 -1527.449951
v 98.790901 80.568604 -1909.979980
v -98.791100 80.568604 -1961.939941
v -345.678986 80.568604 -1909.979980
v -608.593018 80.568604 -1771.410034
v 341.766998 80.514702 -1064.010010
v 453.109985 80.532700 -1300.310059
v 453.109985 80.550003 -1527.449951
v 341.766998 80.568604 -1771.410034
v 341.769989 185.335007 -1064.000000
v 453.109985 185.335007 -1300.300049
v -345.679993 185.335007 -1064.000000
v -608.590027 185.335007 -1098.699951
v -717.460022 185.335007 -1300.300049
v 98.791000 274.579987 -1064.599976
v 341.772003 274.579987 -1063.989990
v 453.114014 274.579987 -1300.300049
v -98.791000 274.579987 -1064.599976
v -345.681000 274.579987 -1063.989990
v -608.591980 274.579987 -1098.689941
v -717.461975 274.579987 -1300.300049
# num_vertices: 58

vn -0.707107 0.707107 -0.000000
vn 0.707107 0.707107 -0.000000
vn -0.707107 0.707107 0.000000
vn 0.707107 0.707107 0.000000
vn -0.707107 -0.707107 0.000000
vn -0.707107 -0.707107 0.000000
vn 0.707107 -0.707107 0.000000
vn 0.707107 -0.707107 0.000000
vn -0.707107 0.707107 -0.000000
vn 0.707107 0.707107 -0.000000
vn -0.707107 -0.707107 0.000000
vn 0.707107 -0.707107 0.000000
vn -0.707107 0.707107 0.000000
vn 0.707107 0.707107 0.000000
vn -0.707107 -0.707107 0.000000
vn 0.707107 -0.707107 0.000000
vn -0.713310 0.688604 0.130433
vn 0.713310 0.688604 0.130433
vn -0.707107 -0.707106 0.000956
vn 0.707107 -0.707106 0.000956
vn -0.713288 0.688582 0.130671
vn 0.713288 0.688582 0.130671
vn -0.707107 -0.707106 0.000949
vn 0.707107 -0.707106 0.000949
vn -0.301526 0.904608 -0.301275
vn 0.301526 0.904608 -0.301275
vn -0.301146 -0.305166 -0.903429
vn 0.301333 -0.303296 -0.903997
vn 0.000000 1.000000 0.000076
vn 0.000000 1.000000 0.000076
vn 0.046239 0.707825 -0.704873
vn 0.000000 1.000000 0.000076
vn 0.494840 0.489436 -0.718043
vn 0.393530 0.894442 -0.212385
vn 0.000000 1.000000 0.000062
vn 0.000000 1.000000 0.000061
vn 0.000000 1.000000 0.000061
vn 0.000000 1.000000 0.000062
vn 0.000000 1.000000 0.000049
vn 0.000000 1.000000 0.000046
vn 0.000000 1.000000 0.000046
vn 0.000000 1.000000 0.000049
vn -0.460879 0.509559 -0.726595
vn -0.404549 0.894445 -0.190548
vn 0.000000 1.000000 0.000062
vn 0.000000 1.000000 0.000049
vn -0.535616 -0.001922 -0.844460
vn -0.904612 0.000067 -0.426236
vn 0.065509 -0.000039 -0.997852
vn 0.567452 -0.000091 -0.823406
vn 0.879925 0.000020 -0.475113
vn 0.000000 -0.006723 -0.999977
vn -0.535616 -0.003940 -0.844453
vn -0.904612 0.000068 -0.426236
vn 0.000000 -0.003305 -0.999995
vn 0.065566 0.000113 -0.997848
vn 0.567472 0.000075 -0.823392
vn 0.879895 0.000019 -0.475169
# num_vertex_normals: 58

vt 0.348178 0.159920
vt 0.428293 0.159920
vt 0.428293 0.240178
vt 0.348178 0.240178
vt 0.568883 0.005574
vt 0.568883 0.080946
vt 0.488625 0.080946
vt 0.488625 0.005574
vt 0.563073 0.084406
vt 0.563073 0.159778
vt 0.482815 0.159778
vt 0.482815 0.084406
vt 0.428293 0.240178
vt 0.428293 0.311386
vt 0.348178 0.311386
vt 0.348178 0.240178
vt 0.488625 0.080946
vt 0.417415 0.080946
vt 0.417415 0.005574
vt 0.488625 0.005574
vt 0.563073 0.084406
vt 0.634282 0.084406
vt 0.634282 0.159778
vt 0.563073 0.159778
vt 0.428293 0.311386
vt 0.428293 0.384580
vt 0.348178 0.384580
vt 0.348178 0.311386
vt 0.417415 0.080946
vt 0.344222 0.080946
vt 0.344222 0.005574
vt 0.417415 0.005574
vt 0.634282 0.084406
vt 0.707476 0.084406
vt 0.707476 0.159778
vt 0.634282 0.159778
vt 0.428293 0.384580
vt 0.428293 0.458923
vt 0.348178 0.458923
vt 0.348178 0.384580
vt 0.344222 0.080946
vt 0.269879 0.080946
vt 0.269879 0.005574
vt 0.344222 0.005574
vt 0.707476 0.084406
vt 0.781818 0.084406
vt 0.781818 0.159778
vt 0.707476 0.159778
vt 0.428293 0.458923
vt 0.428293 0.541854
vt 0.348178 0.541854
vt 0.348178 0.458923
vt 0.269879 0.080946
vt 0.186948 0.080722
vt 0.186948 0.038160
vt 0.269879 0.005574
vt 0.781818 0.084406
vt 0.864749 0.116992
vt 0.864749 0.159554
vt 0.781818 0.159778
vt 0.428293 0.541854
vt 0.428293 0.631482
vt 0.348178 0.631482
vt 0.348178 0.541854
vt 0.186948 0.080722
vt 0.097324 0.080724
vt 0.097320 0.038221
vt 0.186948 0.038160
vt 0.864749 0.116992
vt 0.954378 0.117053
vt 0.954374 0.159555
vt 0.864749 0.159554
vt 0.428293 0.631482
vt 0.428293 0.727297
vt 0.348178 0.727297
vt 0.348178 0.631482
vt 0.348178 0.727297
vt 0.248070 0.727297
vt 0.248070 0.631482
vt 0.348178 0.631482
vt 0.248070 0.727297
vt 0.097320 0.727297
vt 0.141464 0.645528
vt 0.248070 0.631482
vt 0.428293 0.727297
vt 0.428293 0.819398
vt 0.348178 0.819398
vt 0.348178 0.727297
vt 0.348178 0.727297
vt 0.348178 0.819398
vt 0.248070 0.819398
vt 0.248070 0.727297
vt 0.248070 0.727297
vt 0.248070 0.819398
vt 0.097320 0.819398
vt 0.097320 0.727297
vt 0.428293 0.819398
vt 0.428293 0.974506
vt 0.348178 0.995574
vt 0.348178 0.819398
vt 0.348178 0.819398
vt 0.348178 0.995574
vt 0.248070 0.974506
vt 0.248070 0.819398
vt 0.248070 0.819398
vt 0.248070 0.974506
vt 0.141464 0.918318
vt 0.097320 0.819398
vt 0.428293 0.631482
vt 0.526815 0.631482
vt 0.571963 0.727297
vt 0.428293 0.727297
vt 0.428293 0.727297
vt 0.571963 0.727297
vt 0.571963 0.819398
vt 0.428293 0.819398
vt 0.428293 0.819398
vt 0.571963 0.819398
vt 0.526815 0.918318
vt 0.428293 0.974506
vt 0.195843 0.123591
vt 0.097320 0.123591
vt 0.097322 0.081088
vt 0.195843 0.081088
vt 0.748181 0.959387
vt 0.652366 0.959387
vt 0.652362 0.916892
vt 0.748177 0.916885
vt 0.652220 0.995574
vt 0.572105 0.995574
vt 0.572105 0.915316
vt 0.652220 0.915316
vt 0.572105 0.915316
vt 0.572105 0.844108
vt 0.652220 0.844108
vt 0.652220 0.915316
vt 0.572105 0.844108
vt 0.572105 0.770914
vt 0.652220 0.770914
vt 0.652220 0.844108
vt 0.572105 0.770914
vt 0.572105 0.696571
vt 0.652220 0.696571
vt 0.652220 0.770914
vt 0.572105 0.696571
vt 0.572105 0.613640
vt 0.652220 0.613640
vt 0.652220 0.696571
vt 0.572105 0.613640
vt 0.572105 0.524016
vt 0.652220 0.524016
vt 0.652220 0.613640
vt 0.376066 0.081088
vt 0.376067 0.123591
vt 0.275958 0.123591
vt 0.275958 0.081088
vt 0.482673 0.081088
vt 0.482672 0.123591
vt 0.376067 0.123591
vt 0.376066 0.081088
vt 0.830096 0.916892
vt 0.830092 0.959387
vt 0.748347 0.959387
vt 0.748327 0.916885
vt 0.195843 0.123591
vt 0.195843 0.159778
vt 0.097320 0.159778
vt 0.097320 0.123591
vt 0.748181 0.959387
vt 0.748185 0.995574
vt 0.652366 0.995574
vt 0.652366 0.959387
vt 0.275958 0.123591
vt 0.275958 0.159778
vt 0.195843 0.159778
vt 0.195843 0.123591
vt 0.376067 0.123591
vt 0.376067 0.159778
vt 0.275958 0.159778
vt 0.275958 0.123591
vt 0.482672 0.123591
vt 0.482672 0.159778
vt 0.376067 0.159778
vt 0.376067 0.123591
vt 0.830092 0.959387
vt 0.830092 0.995574
vt 0.748343 0.995574
vt 0.748347 0.959387
# num_uvs: 188

g mesh01
usemtl ___default___
f 4/1/4 3/2/3 1/3/1 2/4/2 
f 3/5/3 6/6/6 5/7/5 1/8/1 
f 2/9/2 7/10/7 8/11/8 4/12/4 
f 1/13/1 9/14/9 10/15/10 2/16/2 
f 5/17/5 11/18/11 9/19/9 1/20/1 
f 2/21/2 10/22/10 12/23/12 7/24/7 
f 9/25/9 13/26/13 14/27/14 10/28/10 
f 11/29/11 15/30/15 13/31/13 9/32/9 
f 10/33/10 14/34/14 16/35/16 12/36/12 
f 13/37/13 17/38/17 18/39/18 14/40/14 
f 15/41/15 19/42/19 17/43/17 13/44/13 
f 14/45/14 18/46/18 20/47/20 16/48/16 
f 17/49/17 21/50/21 22/51/22 18/52/18 
f 19/53/19 23/54/23 21/55/21 17/56/17 
f 18/57/18 22/58/22 24/59/24 20/60/20 
f 21/61/21 25/62/25 26/63/26 22/64/22 
f 23/65/23 27/66/27 25/67/25 21/68/21 
f 22/69/22 26/70/26 28/71/28 24/72/24 
f 25/73/25 29/74/29 30/75/30 26/76/26 
f 30/77/30 32/78/32 31/79/31 26/80/26 
f 32/81/32 34/82/34 33/83/33 31/84/31 
f 29/85/29 35/86/35 36/87/36 30/88/30 
f 30/89/30 36/90/36 37/91/37 32/92/32 
f 32/93/32 37/94/37 38/95/38 34/96/34 
f 35/97/35 39/98/39 40/99/40 36/100/36 
f 36/101/36 40/102/40 41/103/41 37/104/37 
f 37/105/37 41/106/41 42/107/42 38/108/38 
f 25/109/25 43/110/43 44/111/44 29/112/29 
f 29/113/29 44/114/44 45/115/45 35/116/35 
f 35/117/35 45/118/45 46/119/46 39/120/39 
f 27/121/27 47/122/47 43/123/43 25/124/25 
f 47/125/47 48/126/48 44/127/44 43/128/43 
f 6/129/6 8/130/8 7/131/7 5/132/5 
f 7/133/7 12/134/12 11/135/11 5/136/5 
f 12/137/12 16/138/16 15/139/15 11/140/11 
f 16/141/16 20/142/20 19/143/19 15/144/15 
f 20/145/20 24/146/24 23/147/23 19/148/19 
f 24/149/24 28/150/28 27/151/27 23/152/23 
f 31/153/31 49/154/49 28/155/28 26/156/26 
f 33/157/33 50/158/50 49/159/49 31/160/31 
f 34/161/34 51/162/51 50/163/50 33/164/33 
f 27/165/27 52/166/52 53/167/53 47/168/47 
f 47/169/47 53/170/53 54/171/54 48/172/48 
f 28/173/28 55/174/55 52/175/52 27/176/27 
f 49/177/49 56/178/56 55/179/55 28/180/28 
f 50/181/50 57/182/57 56/183/56 49/184/49 
f 51/185/51 58/186/58 57/187/57 50/188/50 
# num_faces: 47

