# Created with Anim8or 1.00
# Object "test_geo_cd":

mtllib test_geo_cd_ramp.mtl

# Shape "mesh01":
g mesh01
# No. points 80:
v -137.012 -36.2761 -214.338
v -137.012 -36.2761 214.338
v -137.012 -27.768 -214.338
v -137.012 -27.768 214.338
v 291.665 -36.2761 -214.338
v 291.665 -36.2761 214.338
v 291.665 -27.768 -214.338
v 291.665 -27.768 214.338
v -55.1017 -30.4675 -4.62777
v -55.1017 -30.4675 4.62781
v -55.1017 41.7261 -4.62777
v -55.1017 41.7261 4.62781
v -45.8461 -30.4675 -4.62777
v -45.8461 -30.4675 4.62781
v -45.8461 41.7261 -4.62777
v -45.8461 41.7261 4.62781
v 35.1402 -30.6988 -4.62778
v 35.1402 -30.6988 4.62781
v 35.1402 41.4947 -4.62778
v 35.1402 41.4947 4.62781
v 44.3958 -30.6988 -4.62778
v 44.3958 -30.6988 4.62781
v 44.3958 41.4947 -4.62778
v 44.3958 41.4947 4.62781
v -55.1017 -30.4675 70.0889
v -55.1017 -30.4675 79.3445
v -55.1017 41.7261 70.0889
v -55.1017 41.7261 79.3445
v -45.8461 -30.4675 70.0889
v -45.8461 -30.4675 79.3445
v -45.8461 41.7261 70.0889
v -45.8461 41.7261 79.3445
v 35.1402 -30.6988 70.0889
v 35.1402 -30.6988 79.3445
v 35.1402 41.4947 70.0889
v 35.1402 41.4947 79.3445
v 44.3958 -30.6988 70.0889
v 44.3958 -30.6988 79.3445
v 44.3958 41.4947 70.0889
v 44.3958 41.4947 79.3445
v -55.1018 -30.4675 -79.3444
v -55.1018 -30.4675 -70.0888
v -55.1018 41.7261 -79.3444
v -55.1018 41.7261 -70.0888
v -45.8462 -30.4675 -79.3444
v -45.8462 -30.4675 -70.0888
v -45.8462 41.7261 -79.3444
v -45.8462 41.7261 -70.0888
v 35.1402 -30.6988 -79.3444
v 35.1402 -30.6988 -70.0889
v 35.1402 41.4947 -79.3444
v 35.1402 41.4947 -70.0889
v 44.3957 -30.6988 -79.3444
v 44.3957 -30.6988 -70.0889
v 44.3957 41.4947 -79.3444
v 44.3957 41.4947 -70.0889
v -68.815 38.1865 -110
v -68.815 38.1865 110
v -68.815 48.5355 -110
v -68.815 48.5355 110
v 54.655 38.1865 -110
v 54.655 38.1865 110
v 54.655 48.5355 -110
v 54.655 48.5355 110
v 144.045 -30.064 -68.2652
v 144.045 -30.064 -53.2652
v 144.045 0.26800 -68.2652
v 144.045 0.26800 -53.2652
v 261.095 -30.064 -68.2652
v 261.095 -30.064 -53.2652
v 261.095 0.26800 -68.2652
v 261.095 0.26800 -53.2652
v 144.045 -30.064 53.5653
v 144.045 -30.064 68.5653
v 144.045 0.26801 53.5653
v 144.045 0.26801 68.5653
v 261.095 -30.064 53.5653
v 261.095 -30.064 68.5653
v 261.095 0.26801 53.5653
v 261.095 0.26801 68.5653

# No. normals 300:
vn 0 0 -1
vn 0 0 1
vn -1 0 0
vn 1 0 0
vn 0 1 0
vn 0 -1 0
vn 0 0 -1
vn 0 0 1
vn -1 0 0
vn 1 0 0
vn 0 1 0
vn 0 -1 0
vn 0 0 -1
vn 0 0 1
vn -1 0 0
vn 1 0 0
vn 0 1 0
vn 0 -1 0
vn 0 0 -1
vn 0 0 1
vn -1 0 0
vn 1 0 0
vn 0 1 0
vn 0 -1 0
vn 0 0 -1
vn 0 0 1
vn -1 0 0
vn 1 0 0
vn 0 1 0
vn 0 -1 0
vn 0 0 -1
vn 0 0 1
vn -1 0 0
vn 1 0 0
vn 0 1 0
vn 0 -1 0
vn 0 0 -1
vn 0 0 1
vn -1 0 0
vn 1 0 0
vn 0 1 0
vn 0 -1 0
vn 0 0 -1
vn 0 0 1
vn -1 0 0
vn 1 0 0
vn 0 1 0
vn 0 -1 0
vn 0 0 -1
vn 0 0 1
vn -1 0 0
vn 1 0 0
vn 0 1 0
vn 0 -1 0
vn 0 0 -1
vn 0 0 1
vn -1 0 0
vn 1 0 0
vn 0 1 0
vn 0 -1 0
vn 0 0 -1
vn 0 -1 0
vn -1 0 0
vn 0 0 1
vn 0 -1 0
vn -1 0 0
vn 0 0 -1
vn 0 1 0
vn -1 0 0
vn 0 0 1
vn 0 1 0
vn -1 0 0
vn 0 0 -1
vn 0 -1 0
vn 1 0 0
vn 0 0 1
vn 0 -1 0
vn 1 0 0
vn 0 0 -1
vn 0 1 0
vn 1 0 0
vn 0 0 1
vn 0 1 0
vn 1 0 0
vn 0 0 -1
vn 0 -1 0
vn -1 0 0
vn 0 0 1
vn 0 -1 0
vn -1 0 0
vn 0 0 -1
vn 0 1 0
vn -1 0 0
vn 0 0 1
vn 0 1 0
vn -1 0 0
vn 0 0 -1
vn 0 -1 0
vn 1 0 0
vn 0 0 1
vn 0 -1 0
vn 1 0 0
vn 0 0 -1
vn 0 1 0
vn 1 0 0
vn 0 0 1
vn 0 1 0
vn 1 0 0
vn 0 0 -1
vn 0 -1 0
vn -1 0 0
vn 0 0 1
vn 0 -1 0
vn -1 0 0
vn 0 0 -1
vn 0 1 0
vn -1 0 0
vn 0 0 1
vn 0 1 0
vn -1 0 0
vn 0 0 -1
vn 0 -1 0
vn 1 0 0
vn 0 0 1
vn 0 -1 0
vn 1 0 0
vn 0 0 -1
vn 0 1 0
vn 1 0 0
vn 0 0 1
vn 0 1 0
vn 1 0 0
vn 0 0 -1
vn 0 -1 0
vn -1 0 0
vn 0 0 1
vn 0 -1 0
vn -1 0 0
vn 0 0 -1
vn 0 1 0
vn -1 0 0
vn 0 0 1
vn 0 1 0
vn -1 0 0
vn 0 0 -1
vn 0 -1 0
vn 1 0 0
vn 0 0 1
vn 0 -1 0
vn 1 0 0
vn 0 0 -1
vn 0 1 0
vn 1 0 0
vn 0 0 1
vn 0 1 0
vn 1 0 0
vn 0 0 -1
vn 0 -1 0
vn -1 0 0
vn 0 0 1
vn 0 -1 0
vn -1 0 0
vn 0 0 -1
vn 0 1 0
vn -1 0 0
vn 0 0 1
vn 0 1 0
vn -1 0 0
vn 0 0 -1
vn 0 -1 0
vn 1 0 0
vn 0 0 1
vn 0 -1 0
vn 1 0 0
vn 0 0 -1
vn 0 1 0
vn 1 0 0
vn 0 0 1
vn 0 1 0
vn 1 0 0
vn 0 0 -1
vn 0 -1 0
vn -1 0 0
vn 0 0 1
vn 0 -1 0
vn -1 0 0
vn 0 0 -1
vn 0 1 0
vn -1 0 0
vn 0 0 1
vn 0 1 0
vn -1 0 0
vn 0 0 -1
vn 0 -1 0
vn 1 0 0
vn 0 0 1
vn 0 -1 0
vn 1 0 0
vn 0 0 -1
vn 0 1 0
vn 1 0 0
vn 0 0 1
vn 0 1 0
vn 1 0 0
vn 0 0 -1
vn 0 -1 0
vn -1 0 0
vn 0 0 1
vn 0 -1 0
vn -1 0 0
vn 0 0 -1
vn 0 1 0
vn -1 0 0
vn 0 0 1
vn 0 1 0
vn -1 0 0
vn 0 0 -1
vn 0 -1 0
vn 1 0 0
vn 0 0 1
vn 0 -1 0
vn 1 0 0
vn 0 0 -1
vn 0 1 0
vn 1 0 0
vn 0 0 1
vn 0 1 0
vn 1 0 0
vn 0 0 -1
vn 0 -1 0
vn -1 0 0
vn 0 0 1
vn 0 -1 0
vn -1 0 0
vn 0 0 -1
vn 0 1 0
vn -1 0 0
vn 0 0 1
vn 0 1 0
vn -1 0 0
vn 0 0 -1
vn 0 -1 0
vn 1 0 0
vn 0 0 1
vn 0 -1 0
vn 1 0 0
vn 0 0 -1
vn 0 1 0
vn 1 0 0
vn 0 0 1
vn 0 1 0
vn 1 0 0
vn 0 0 -1
vn 0 -1 0
vn -1 0 0
vn 0 0 1
vn 0 -1 0
vn -1 0 0
vn 0 0 -1
vn 0 1 0
vn -1 0 0
vn 0 0 1
vn 0 1 0
vn -1 0 0
vn 0 0 -1
vn 0 -1 0
vn 1 0 0
vn 0 0 1
vn 0 -1 0
vn 1 0 0
vn 0 0 -1
vn 0 1 0
vn 1 0 0
vn 0 0 1
vn 0 1 0
vn 1 0 0
vn 0 0 -1
vn 0 -1 0
vn -1 0 0
vn 0 0 1
vn 0 -1 0
vn -1 0 0
vn 0 0 -1
vn 0 1 0
vn -1 0 0
vn 0 0 1
vn 0 1 0
vn -1 0 0
vn 0 0 -1
vn 0 -1 0
vn 1 0 0
vn 0 0 1
vn 0 -1 0
vn 1 0 0
vn 0 0 -1
vn 0 1 0
vn 1 0 0
vn 0 0 1
vn 0 1 0
vn 1 0 0

# No. texture coordinates 80:
vt 0 0
vt 0 0
vt 0 1
vt 0 1
vt 1 0
vt 1 0
vt 1 1
vt 1 1
vt 0 0
vt 0 0
vt 0 1
vt 0 1
vt 1 0
vt 1 0
vt 1 1
vt 1 1
vt 0 0
vt 0 0
vt 0 1
vt 0 1
vt 1 0
vt 1 0
vt 1 1
vt 1 1
vt 0 0
vt 0 0
vt 0 1
vt 0 1
vt 1 0
vt 1 0
vt 1 1
vt 1 1
vt 0 0
vt 0 0
vt 0 1
vt 0 1
vt 1 0
vt 1 0
vt 1 1
vt 1 1
vt 0 0
vt 0 0
vt 0 1
vt 0 1
vt 1 0
vt 1 0
vt 1 1
vt 1 1
vt 0 0
vt 0 0
vt 0 1
vt 0 1
vt 1 0
vt 1 0
vt 1 1
vt 1 1
vt 0 0
vt 0 0
vt 0 1
vt 0 1
vt 1 0
vt 1 0
vt 1 1
vt 1 1
vt 0 0
vt 0 0
vt 0 1
vt 0 1
vt 1 0
vt 1 0
vt 1 1
vt 1 1
vt 0 0
vt 0 0
vt 0 1
vt 0 1
vt 1 0
vt 1 0
vt 1 1
vt 1 1

# No. faces 60:

usemtl ___default___

f 3/3/67 7/7/79 5/5/73 1/1/61
f 6/6/76 8/8/82 4/4/70 2/2/64
f 2/2/66 4/4/72 3/3/69 1/1/63
f 7/7/81 8/8/84 6/6/78 5/5/75
f 4/4/71 8/8/83 7/7/80 3/3/68
f 5/5/74 6/6/77 2/2/65 1/1/62
f 11/11/91 15/15/103 13/13/97 9/9/85
f 14/14/100 16/16/106 12/12/94 10/10/88
f 10/10/90 12/12/96 11/11/93 9/9/87
f 15/15/105 16/16/108 14/14/102 13/13/99
f 12/12/95 16/16/107 15/15/104 11/11/92
f 13/13/98 14/14/101 10/10/89 9/9/86
f 19/19/115 23/23/127 21/21/121 17/17/109
f 22/22/124 24/24/130 20/20/118 18/18/112
f 18/18/114 20/20/120 19/19/117 17/17/111
f 23/23/129 24/24/132 22/22/126 21/21/123
f 20/20/119 24/24/131 23/23/128 19/19/116
f 21/21/122 22/22/125 18/18/113 17/17/110
f 27/27/139 31/31/151 29/29/145 25/25/133
f 30/30/148 32/32/154 28/28/142 26/26/136
f 26/26/138 28/28/144 27/27/141 25/25/135
f 31/31/153 32/32/156 30/30/150 29/29/147
f 28/28/143 32/32/155 31/31/152 27/27/140
f 29/29/146 30/30/149 26/26/137 25/25/134
f 35/35/163 39/39/175 37/37/169 33/33/157
f 38/38/172 40/40/178 36/36/166 34/34/160
f 34/34/162 36/36/168 35/35/165 33/33/159
f 39/39/177 40/40/180 38/38/174 37/37/171
f 36/36/167 40/40/179 39/39/176 35/35/164
f 37/37/170 38/38/173 34/34/161 33/33/158
f 43/43/187 47/47/199 45/45/193 41/41/181
f 46/46/196 48/48/202 44/44/190 42/42/184
f 42/42/186 44/44/192 43/43/189 41/41/183
f 47/47/201 48/48/204 46/46/198 45/45/195
f 44/44/191 48/48/203 47/47/200 43/43/188
f 45/45/194 46/46/197 42/42/185 41/41/182
f 51/51/211 55/55/223 53/53/217 49/49/205
f 54/54/220 56/56/226 52/52/214 50/50/208
f 50/50/210 52/52/216 51/51/213 49/49/207
f 55/55/225 56/56/228 54/54/222 53/53/219
f 52/52/215 56/56/227 55/55/224 51/51/212
f 53/53/218 54/54/221 50/50/209 49/49/206
f 59/59/235 63/63/247 61/61/241 57/57/229
f 62/62/244 64/64/250 60/60/238 58/58/232
f 58/58/234 60/60/240 59/59/237 57/57/231
f 63/63/249 64/64/252 62/62/246 61/61/243
f 60/60/239 64/64/251 63/63/248 59/59/236
f 61/61/242 62/62/245 58/58/233 57/57/230
f 67/67/259 71/71/271 69/69/265 65/65/253
f 70/70/268 72/72/274 68/68/262 66/66/256
f 66/66/258 68/68/264 67/67/261 65/65/255
f 71/71/273 72/72/276 70/70/270 69/69/267
f 68/68/263 72/72/275 71/71/272 67/67/260
f 69/69/266 70/70/269 66/66/257 65/65/254
f 75/75/283 79/79/295 77/77/289 73/73/277
f 78/78/292 80/80/298 76/76/286 74/74/280
f 74/74/282 76/76/288 75/75/285 73/73/279
f 79/79/297 80/80/300 78/78/294 77/77/291
f 76/76/287 80/80/299 79/79/296 75/75/284
f 77/77/290 78/78/293 74/74/281 73/73/278

# Shape "mesh02":
g mesh02
# No. points 4:
v 46.6213 -12.7136 -37.6819
v 46.6213 -12.7136 37.6818
v 111.73 -29.4081 -37.6819
v 111.73 -29.4081 37.6818

# No. normals 5:
vn 0.24838 0.96866 0
vn 0.24838 0.96866 0
vn 0.24838 0.96866 0
vn 0.24838 0.96866 0
vn 0.24838 0.96866 0

# No. texture coordinates 4:
vt 0 1
vt 0 1
vt 1 1
vt 1 1

# No. faces 1:

usemtl ___default___

f 82/82/303 84/84/305 83/83/304 81/81/302

# End of Object "test_geo_cd"
