# Created with Anim8or 1.00
# Object "tree":

mtllib tree.mtl

# Shape "mesh01":
g mesh01
# No. points 67:
v 13.3922 1.09755 -0.00002
v 7.66849 18.132 -0.00002
v 6.16443 52.2117 -0.00002
v 6.16443 94.3128 -0.00002
v 6.16443 100.972 -0.00002
v 6.91651 1.09754 -11.2163
v 4.05463 18.132 -6.25936
v 3.30263 52.2117 -4.95685
v 3.3026 94.3128 -4.95685
v 3.3026 100.972 -4.95682
v -6.03491 1.09754 -11.2163
v -3.17306 18.132 -6.25936
v -2.42102 52.2117 -4.95685
v -2.42102 94.3128 -4.95685
v -2.42103 100.972 -4.95682
v -12.5106 1.09755 -0.00002
v -6.78689 18.132 -0.00002
v -5.28283 52.2117 -0.00002
v -5.28285 94.3128 -0.00002
v -5.28285 100.972 -0.00002
v -6.03491 1.09755 11.2162
v -3.17306 18.132 6.25935
v -2.42102 52.2117 4.9568
v -2.42102 94.3128 4.9568
v -2.42103 100.972 4.9568
v 6.91651 1.09755 11.2162
v 4.05463 18.132 6.25935
v 3.30263 52.2117 4.9568
v 3.3026 94.3128 4.9568
v 3.3026 100.972 4.9568
v 21.7982 121.911 -19.2154
v 17.5435 124.634 -14.8771
v 17.9232 122.502 -23.3862
v 13.6686 125.224 -19.048
v 0.05371 118.072 34.5271
v 0.05371 120.843 28.473
v 5.76606 117.745 34.3776
v 5.76606 120.517 28.3235
v -22.4643 116.75 -20.7646
v -18.1098 118.211 -15.944
v -26.7147 116.769 -16.9312
v -22.3601 118.23 -12.1106
v 40.2835 82.3019 -0.00003
v 62.6783 120.895 -0.00003
v 54.4802 151.491 -0.00003
v 32.0827 173.888 -0.00003
v 1.48701 182.087 -0.00003
v 20.8852 82.3019 -33.5987
v 32.0827 120.895 -52.9932
v 27.9835 151.491 -45.8935
v 16.7848 173.888 -26.4965
v -17.9112 82.3019 -33.5987
v -29.1086 120.895 -52.9932
v -25.0096 151.491 -45.8935
v -13.8108 173.888 -26.4965
v -37.3095 82.3019 -0.00003
v -59.7042 120.895 -0.00003
v -51.5061 151.491 -0.00003
v -29.1086 173.888 -0.00003
v -17.9112 82.3019 33.5986
v -29.1086 120.895 52.9931
v -25.0096 151.491 45.8934
v -13.8108 173.888 26.4964
v 20.8852 82.3019 33.5986
v 32.0827 120.895 52.9931
v 27.9835 151.491 45.8934
v 16.7848 173.888 26.4964

# No. normals 381:
vn 0.83153 0.27940 -0.48009
vn 0.86540 0.03819 -0.49963
vn 0.86603 0 -0.50000
vn 0 0.27940 -0.96017
vn 0 0.03819 -0.99927
vn 0 0 -1
vn 0 0 -1
vn -0.83153 0.27940 -0.48009
vn -0.86539 0.03819 -0.49963
vn -0.86603 0 -0.50000
vn -0.83154 0.27940 0.48009
vn -0.86539 0.03819 0.49963
vn -0.86603 0 0.50000
vn -0.86602 0 0.50000
vn 0 0.27940 0.96017
vn 0 0.03819 0.99927
vn 0 0 1
vn 0.83153 0.27940 0.48009
vn 0.86539 0.03819 0.49964
vn 0.86603 0 0.50000
vn 0.86603 0 0.50000
vn 0.49597 -0.66758 -0.55529
vn 0.73418 0.07145 0.67519
vn -0.55272 0.58251 0.59597
vn -0.73217 -0.06361 -0.67814
vn 0.36518 0.90673 -0.21090
vn -0.02811 -0.77809 0.62753
vn -0.99608 0.08046 0.03683
vn 0.02694 0.76536 -0.64303
vn 0.99732 -0.06658 -0.03048
vn 0.06277 0.90745 0.41545
vn -0.57509 -0.74768 -0.33203
vn 0.69755 0.19546 -0.68936
vn 0.55230 0.77025 0.31887
vn -0.70855 -0.15763 0.68783
vn -0.14457 0.97561 -0.16516
vn 0.77381 -0.44902 -0.44676
vn 0 -0.44902 -0.89352
vn -0.77381 -0.44902 -0.44676
vn -0.77381 -0.44902 0.44676
vn 0 -0.44902 0.89352
vn 0.77381 -0.44902 0.44676
vn 0.84361 0.22605 -0.48706
vn 0 0.22604 -0.97412
vn -0.84361 0.22604 -0.48706
vn -0.84361 0.22605 0.48706
vn 0 0.22604 0.97412
vn 0.84361 0.22605 0.48706
vn 0.65465 0.65465 -0.37797
vn 0 0.65466 -0.75593
vn -0.65465 0.65466 -0.37796
vn -0.65465 0.65465 0.37796
vn 0 0.65466 0.75593
vn 0.65465 0.65465 0.37797
vn 0.25598 0.95532 -0.14779
vn 0 0.95532 -0.29558
vn -0.25598 0.95532 -0.14779
vn -0.25598 0.95532 0.14779
vn 0 0.95532 0.29558
vn 0.25598 0.95532 0.14779
vn 0.83153 0.27940 -0.48009
vn 0.83153 0.27940 0.48009
vn 0.85487 0.16000 -0.49356
vn 0.85487 0.16000 0.49356
vn 0.86587 0.01910 -0.49991
vn 0.86587 0.01910 0.49991
vn 0.73709 -0.36128 -0.57111
vn 0.82698 0.02396 0.56172
vn 0.80547 0.03596 0.59154
vn -0.55272 0.58251 0.59597
vn 0.83153 0.27940 -0.48009
vn 0 0.27940 -0.96017
vn 0.85487 0.16000 -0.49356
vn 0 0.16000 -0.98712
vn 0.86587 0.01910 -0.49991
vn 0 0.01910 -0.999818
vn 0.73709 -0.36128 -0.57111
vn -0.73217 -0.06361 -0.67814
vn 0 0 -1
vn 0 0 -1
vn -0.73217 -0.06361 -0.67814
vn -0.55272 0.58251 0.59597
vn 0 0.27940 -0.96017
vn -0.83153 0.27940 -0.48009
vn 0 0.16000 -0.98712
vn -0.85487 0.16000 -0.49356
vn 0 0.01910 -0.999818
vn -0.86587 0.01910 -0.49991
vn 0 0 -1
vn 0.69755 0.19546 -0.68936
vn -0.57509 -0.74768 -0.33203
vn -0.86603 0 -0.50000
vn 0 0 -1
vn 0.55230 0.77025 0.31887
vn 0.69755 0.19546 -0.68936
vn -0.83153 0.27940 -0.48009
vn -0.83154 0.27940 0.48009
vn -0.85487 0.16000 -0.49356
vn -0.85487 0.16000 0.49356
vn -0.86587 0.01910 -0.49991
vn -0.86587 0.01910 0.49991
vn -0.86603 0 -0.50000
vn -0.82132 -0.05305 0.56799
vn -0.57509 -0.74768 -0.33203
vn -0.79578 -0.07967 0.60032
vn 0.55230 0.77025 0.31887
vn -0.83154 0.27940 0.48009
vn 0 0.27940 0.96017
vn -0.85487 0.16000 0.49356
vn 0 0.16000 0.98712
vn -0.86587 0.01910 0.49991
vn 0 0.01910 0.999818
vn -0.93441 0.02756 0.35513
vn -0.02811 -0.77809 0.62753
vn 0 0 1
vn -0.96004 0.04148 0.27677
vn 0.02694 0.76536 -0.64303
vn 0 0.27940 0.96017
vn 0.83153 0.27940 0.48009
vn 0 0.16000 0.98712
vn 0.85487 0.16000 0.49356
vn 0 0.01910 0.999818
vn 0.86587 0.01910 0.49991
vn 0 0 1
vn 0.94207 -0.02298 0.33464
vn -0.02811 -0.77809 0.62753
vn 0.96911 -0.03463 0.24419
vn 0.02694 0.76536 -0.64303
vn 0.49597 -0.66758 -0.55529
vn 0.36518 0.90673 -0.21090
vn 0.73418 0.07145 0.67519
vn 0.73418 0.07145 0.67519
vn 0.36518 0.90673 -0.21090
vn -0.55272 0.58251 0.59597
vn 0.49597 -0.66758 -0.55529
vn 0.36518 0.90673 -0.21090
vn -0.73217 -0.06361 -0.67814
vn -0.55272 0.58251 0.59597
vn 0.36518 0.90673 -0.21090
vn -0.73217 -0.06361 -0.67814
vn -0.02811 -0.77809 0.62753
vn 0.06277 0.90745 0.41545
vn -0.99608 0.08046 0.03683
vn -0.99608 0.08046 0.03683
vn 0.06277 0.90745 0.41545
vn 0.02694 0.76536 -0.64303
vn -0.02811 -0.77809 0.62753
vn 0.06277 0.90745 0.41545
vn 0.99732 -0.06658 -0.03048
vn 0.02694 0.76536 -0.64303
vn 0.06277 0.90745 0.41545
vn 0.99732 -0.06658 -0.03048
vn -0.57509 -0.74768 -0.33203
vn -0.14457 0.97561 -0.16516
vn 0.69755 0.19546 -0.68936
vn 0.69755 0.19546 -0.68936
vn -0.14457 0.97561 -0.16516
vn 0.55230 0.77025 0.31887
vn -0.57509 -0.74768 -0.33203
vn -0.14457 0.97561 -0.16516
vn -0.70855 -0.15763 0.68783
vn 0.55230 0.77025 0.31887
vn -0.14457 0.97561 -0.16516
vn -0.70855 -0.15763 0.68783
vn 0.77381 -0.44902 -0.44676
vn 0.77381 -0.44902 0.44676
vn 0.85992 -0.11855 -0.49647
vn 0.85992 -0.11855 0.49648
vn 0.86209 0.50675 0
vn 0.49232 0.87041 0
vn 0 1 0
vn 0.77381 -0.44902 -0.44676
vn 0 -0.44902 -0.89352
vn 0.85992 -0.11855 -0.49647
vn 0 -0.11855 -0.99295
vn 0.43105 0.50675 -0.74659
vn 0.24616 0.87041 -0.42636
vn 0 -0.44902 -0.89352
vn -0.77381 -0.44902 -0.44676
vn 0 -0.11855 -0.99295
vn -0.85992 -0.11855 -0.49648
vn -0.43105 0.50675 -0.74659
vn -0.24616 0.87041 -0.42636
vn -0.77381 -0.44902 -0.44676
vn -0.77381 -0.44902 0.44676
vn -0.85992 -0.11855 -0.49648
vn -0.85992 -0.11855 0.49647
vn -0.86209 0.50675 0
vn -0.49232 0.87041 0
vn -0.77381 -0.44902 0.44676
vn 0 -0.44902 0.89352
vn -0.85992 -0.11855 0.49647
vn 0 -0.11855 0.99295
vn -0.43105 0.50675 0.74659
vn -0.24616 0.87041 0.42636
vn 0 -0.44902 0.89352
vn 0.77381 -0.44902 0.44676
vn 0 -0.11855 0.99295
vn 0.85992 -0.11855 0.49648
vn 0.43105 0.50675 0.74659
vn 0.24616 0.87041 0.42636
vn 0.83153 0.27940 -0.48009
vn 0.86540 0.03819 -0.49963
vn 0.86603 0 -0.50000
vn 0 0.27940 -0.96017
vn 0 0.03819 -0.99927
vn 0 0 -1
vn 0 0 -1
vn -0.83153 0.27940 -0.48009
vn -0.86539 0.03819 -0.49963
vn -0.86603 0 -0.50000
vn -0.83154 0.27940 0.48009
vn -0.86539 0.03819 0.49963
vn -0.86603 0 0.50000
vn -0.86602 0 0.50000
vn 0 0.27940 0.96017
vn 0 0.03819 0.99927
vn 0 0 1
vn 0.83153 0.27940 0.48009
vn 0.86539 0.03819 0.49964
vn 0.86603 0 0.50000
vn 0.86603 0 0.50000
vn 0.49597 -0.66758 -0.55529
vn 0.73418 0.07145 0.67519
vn -0.55272 0.58251 0.59597
vn -0.73217 -0.06361 -0.67814
vn 0.36518 0.90673 -0.21090
vn -0.02811 -0.77809 0.62753
vn -0.99608 0.08046 0.03683
vn 0.02694 0.76536 -0.64303
vn 0.99732 -0.06658 -0.03048
vn 0.06277 0.90745 0.41545
vn -0.57509 -0.74768 -0.33203
vn 0.69755 0.19546 -0.68936
vn 0.55230 0.77025 0.31887
vn -0.70855 -0.15763 0.68783
vn -0.14457 0.97561 -0.16516
vn 0.77381 -0.44902 -0.44676
vn 0 -0.44902 -0.89352
vn -0.77381 -0.44902 -0.44676
vn -0.77381 -0.44902 0.44676
vn 0 -0.44902 0.89352
vn 0.77381 -0.44902 0.44676
vn 0.84361 0.22605 -0.48706
vn 0 0.22604 -0.97412
vn -0.84361 0.22604 -0.48706
vn -0.84361 0.22605 0.48706
vn 0 0.22604 0.97412
vn 0.84361 0.22605 0.48706
vn 0.65465 0.65465 -0.37797
vn 0 0.65466 -0.75593
vn -0.65465 0.65466 -0.37796
vn -0.65465 0.65465 0.37796
vn 0 0.65466 0.75593
vn 0.65465 0.65465 0.37797
vn 0.25598 0.95532 -0.14779
vn 0 0.95532 -0.29558
vn -0.25598 0.95532 -0.14779
vn -0.25598 0.95532 0.14779
vn 0 0.95532 0.29558
vn 0.25598 0.95532 0.14779
vn 0.83153 0.27940 -0.48009
vn 0.86540 0.03819 -0.49963
vn 0.86603 0 -0.50000
vn 0 0.27940 -0.96017
vn 0 0.03819 -0.99927
vn 0 0 -1
vn 0 0 -1
vn -0.83153 0.27940 -0.48009
vn -0.86539 0.03819 -0.49963
vn -0.86603 0 -0.50000
vn -0.83154 0.27940 0.48009
vn -0.86539 0.03819 0.49963
vn -0.86603 0 0.50000
vn -0.86602 0 0.50000
vn 0 0.27940 0.96017
vn 0 0.03819 0.99927
vn 0 0 1
vn 0.83153 0.27940 0.48009
vn 0.86539 0.03819 0.49964
vn 0.86603 0 0.50000
vn 0.86603 0 0.50000
vn 0.49597 -0.66758 -0.55529
vn 0.73418 0.07145 0.67519
vn -0.55272 0.58251 0.59597
vn -0.73217 -0.06361 -0.67814
vn 0.36518 0.90673 -0.21090
vn -0.02811 -0.77809 0.62753
vn -0.99608 0.08046 0.03683
vn 0.02694 0.76536 -0.64303
vn 0.99732 -0.06658 -0.03048
vn 0.06277 0.90745 0.41545
vn -0.57509 -0.74768 -0.33203
vn 0.69755 0.19546 -0.68936
vn 0.55230 0.77025 0.31887
vn -0.70855 -0.15763 0.68783
vn -0.14457 0.97561 -0.16516
vn 0.77381 -0.44902 -0.44676
vn 0 -0.44902 -0.89352
vn -0.77381 -0.44902 -0.44676
vn -0.77381 -0.44902 0.44676
vn 0 -0.44902 0.89352
vn 0.77381 -0.44902 0.44676
vn 0.84361 0.22605 -0.48706
vn 0 0.22604 -0.97412
vn -0.84361 0.22604 -0.48706
vn -0.84361 0.22605 0.48706
vn 0 0.22604 0.97412
vn 0.84361 0.22605 0.48706
vn 0.65465 0.65465 -0.37797
vn 0 0.65466 -0.75593
vn -0.65465 0.65466 -0.37796
vn -0.65465 0.65465 0.37796
vn 0 0.65466 0.75593
vn 0.65465 0.65465 0.37797
vn 0.25598 0.95532 -0.14779
vn 0 0.95532 -0.29558
vn -0.25598 0.95532 -0.14779
vn -0.25598 0.95532 0.14779
vn 0 0.95532 0.29558
vn 0.25598 0.95532 0.14779
vn 0.83153 0.27940 -0.48009
vn 0.86540 0.03819 -0.49963
vn 0.86603 0 -0.50000
vn 0 0.27940 -0.96017
vn 0 0.03819 -0.99927
vn 0 0 -1
vn 0 0 -1
vn -0.83153 0.27940 -0.48009
vn -0.86539 0.03819 -0.49963
vn -0.86603 0 -0.50000
vn -0.83154 0.27940 0.48009
vn -0.86539 0.03819 0.49963
vn -0.86603 0 0.50000
vn -0.86602 0 0.50000
vn 0 0.27940 0.96017
vn 0 0.03819 0.99927
vn 0 0 1
vn 0.83153 0.27940 0.48009
vn 0.86539 0.03819 0.49964
vn 0.86603 0 0.50000
vn 0.86603 0 0.50000
vn 0.49597 -0.66758 -0.55529
vn 0.73418 0.07145 0.67519
vn -0.55272 0.58251 0.59597
vn -0.73217 -0.06361 -0.67814
vn 0.36518 0.90673 -0.21090
vn -0.02811 -0.77809 0.62753
vn -0.99608 0.08046 0.03683
vn 0.02694 0.76536 -0.64303
vn 0.99732 -0.06658 -0.03048
vn 0.06277 0.90745 0.41545
vn -0.57509 -0.74768 -0.33203
vn 0.69755 0.19546 -0.68936
vn 0.55230 0.77025 0.31887
vn -0.70855 -0.15763 0.68783
vn -0.14457 0.97561 -0.16516
vn 0.77381 -0.44902 -0.44676
vn 0 -0.44902 -0.89352
vn -0.77381 -0.44902 -0.44676
vn -0.77381 -0.44902 0.44676
vn 0 -0.44902 0.89352
vn 0.77381 -0.44902 0.44676
vn 0.84361 0.22605 -0.48706
vn 0 0.22604 -0.97412
vn -0.84361 0.22604 -0.48706
vn -0.84361 0.22605 0.48706
vn 0 0.22604 0.97412
vn 0.84361 0.22605 0.48706
vn 0.65465 0.65465 -0.37797
vn 0 0.65466 -0.75593
vn -0.65465 0.65466 -0.37796
vn -0.65465 0.65465 0.37796
vn 0 0.65466 0.75593
vn 0.65465 0.65465 0.37797
vn 0.25598 0.95532 -0.14779
vn 0 0.95532 -0.29558
vn -0.25598 0.95532 -0.14779
vn -0.25598 0.95532 0.14779
vn 0 0.95532 0.29558
vn 0.25598 0.95532 0.14779

# No. texture coordinates 68:
vt 0.59999 0.12675
vt 0.52302 0.12675
vt 0.52302 0.01130
vt 0.59999 0.01130
vt 0.59999 0.24219
vt 0.52302 0.24219
vt 0.59999 0.35763
vt 0.52302 0.35763
vt 0.67694 0.12675
vt 0.67694 0.01130
vt 0.67694 0.24219
vt 0.67694 0.35763
vt 0.67694 0.47307
vt 0.59999 0.47307
vt 0.75391 0.12675
vt 0.75391 0.01130
vt 0.75391 0.24219
vt 0.75391 0.35763
vt 0.83087 0.12675
vt 0.83087 0.01130
vt 0.83087 0.24219
vt 0.83087 0.35763
vt 0.83087 0.47307
vt 0.75391 0.47307
vt 0.90783 0.12675
vt 0.90783 0.01130
vt 0.90783 0.24219
vt 0.90783 0.35763
vt 0.98479 0.12675
vt 0.98479 0.01130
vt 0.98479 0.24219
vt 0.98479 0.35763
vt 0.98479 0.47307
vt 0.90783 0.47307
vt 0.13693 0.64919
vt 0.02571 0.64919
vt 0.02571 0.53797
vt 0.13693 0.53797
vt 0.24815 0.64919
vt 0.24815 0.53797
vt 0.35938 0.64919
vt 0.35938 0.53797
vt 0.47060 0.64919
vt 0.47060 0.53797
vt 0.58182 0.64919
vt 0.58182 0.53797
vt 0.69304 0.64919
vt 0.69304 0.53797
vt 0.13693 0.76042
vt 0.02571 0.76042
vt 0.24815 0.76042
vt 0.35938 0.76042
vt 0.47060 0.76042
vt 0.58182 0.76042
vt 0.69304 0.76042
vt 0.13693 0.87164
vt 0.02571 0.87164
vt 0.24815 0.87164
vt 0.35938 0.87164
vt 0.47060 0.87164
vt 0.58182 0.87164
vt 0.69304 0.87164
vt 0.02571 0.98286
vt 0.13693 0.98286
vt 0.24815 0.98286
vt 0.35938 0.98286
vt 0.47060 0.98286
vt 0.58182 0.98286

# No. faces 60:

usemtl ___default___

f 7/1/73 2/2/63 1/3/61 6/4/71
f 8/5/75 3/6/65 2/2/63 7/1/73
f 9/7/77 4/8/67 3/6/65 8/5/75
f 12/9/85 7/1/74 6/4/72 11/10/83
f 13/11/87 8/5/76 7/1/74 12/9/85
f 14/12/89 9/7/79 8/5/76 13/11/87
f 15/13/93 10/14/80 9/7/79 14/12/89
f 17/15/98 12/9/86 11/10/84 16/16/96
f 18/17/100 13/11/88 12/9/86 17/15/98
f 19/18/102 14/12/92 13/11/88 18/17/100
f 22/19/109 17/15/99 16/16/97 21/20/107
f 23/21/111 18/17/101 17/15/99 22/19/109
f 24/22/113 19/18/103 18/17/101 23/21/111
f 25/23/116 20/24/105 19/18/103 24/22/113
f 27/25/120 22/19/110 21/20/108 26/26/118
f 28/27/122 23/21/112 22/19/110 27/25/120
f 29/28/124 24/22/115 23/21/112 28/27/122
f 2/29/64 27/25/121 26/26/119 1/30/62
f 3/31/66 28/27/123 27/25/121 2/29/64
f 4/32/68 29/28/125 28/27/123 3/31/66
f 5/33/69 30/34/127 29/28/125 4/32/68
f 33/3/135 31/3/129 4/3/67 9/3/77
f 31/3/131 32/3/132 5/3/69 4/3/68
f 32/3/134 34/3/138 10/3/82 5/3/70
f 34/3/140 33/3/137 9/3/78 10/3/81
f 34/3/139 32/3/133 31/3/130 33/3/136
f 37/3/147 35/3/141 24/3/114 29/3/126
f 35/3/143 36/3/144 25/3/116 24/3/113
f 36/3/146 38/3/150 30/3/128 25/3/117
f 38/3/152 37/3/149 29/3/125 30/3/127
f 38/3/151 36/3/145 35/3/142 37/3/148
f 41/3/159 39/3/153 14/3/91 19/3/104
f 39/3/155 40/3/156 15/3/95 14/3/90
f 40/3/158 42/3/162 20/3/106 15/3/94
f 42/3/164 41/3/161 19/3/103 20/3/105
f 42/3/163 40/3/157 39/3/154 41/3/160
f 49/35/174 44/36/167 43/37/165 48/38/172
f 53/39/180 49/35/175 48/38/173 52/40/178
f 57/41/186 53/39/181 52/40/179 56/42/184
f 61/43/192 57/41/187 56/42/185 60/44/190
f 65/45/198 61/43/193 60/44/191 64/46/196
f 44/47/168 65/45/199 64/46/197 43/48/166
f 50/49/176 45/50/169 44/36/167 49/35/174
f 54/51/182 50/49/176 49/35/175 53/39/180
f 58/52/188 54/51/182 53/39/181 57/41/186
f 62/53/194 58/52/188 57/41/187 61/43/192
f 66/54/200 62/53/194 61/43/193 65/45/198
f 45/55/169 66/54/200 65/45/199 44/47/168
f 51/56/177 46/57/170 45/50/169 50/49/176
f 55/58/183 51/56/177 50/49/176 54/51/182
f 59/59/189 55/58/183 54/51/182 58/52/188
f 63/60/195 59/59/189 58/52/188 62/53/194
f 67/61/201 63/60/195 62/53/194 66/54/200
f 46/62/170 67/61/201 66/54/200 45/55/169
f 47/63/171 46/57/170 51/56/177
f 47/64/171 51/56/177 55/58/183
f 47/65/171 55/58/183 59/59/189
f 47/66/171 59/59/189 63/60/195
f 47/67/171 63/60/195 67/61/201
f 47/68/171 67/61/201 46/62/170

# End of Object "tree"
