# Created with Anim8or 1.00
# Object "tree":

mtllib tree.mtl

# Shape "mesh01":
g mesh01
# No. points 60:
v 8.08551 0.10800 0
v 4.5472 16.7123 0
v 4.5472 44.8808 0.00001
v 1.90073 49.921 0
v 3.91575 0.10800 -7.22222
v 2.1466 16.7123 -4.15796
v 2.1466 44.8808 -4.15795
v 0.82337 49.921 -1.86605
v -4.42375 0.10800 -7.22222
v -2.6546 16.7123 -4.15796
v -2.6546 44.8808 -4.15795
v -1.33137 49.921 -1.86605
v -8.5935 0.10800 0
v -5.0552 16.7123 0
v -5.0552 44.8808 0.00001
v -2.40873 49.921 0
v -4.42375 0.10800 7.22222
v -2.6546 16.7123 4.15796
v -2.6546 44.8808 4.15797
v -1.33137 49.921 1.86605
v 3.91575 0.10800 7.22222
v 2.1466 16.7123 4.15796
v 2.1466 44.8808 4.15797
v 0.82337 49.921 1.86605
v -10.7153 50.4235 7.83237
v -12.2095 50.4235 5.24431
v -10.5623 53.5607 5.24431
v -9.8917 53.5607 6.4058
v -17.0573 59.0227 11.199
v -17.9198 59.1067 9.88135
v -16.49 60.2624 9.53937
v -16.1029 60.2247 10.1307
v -20.0034 63.6566 13.0579
v -20.5323 63.7081 12.2499
v -19.6556 64.4168 12.0402
v -19.4183 64.3936 12.4028
v 10.0009 49.5251 -8.09453
v 11.8835 49.5251 -4.83375
v 9.80812 53.4777 -4.83376
v 8.96322 53.4777 -6.29717
v 20.6999 66.1635 -14.8919
v 21.7298 66.1635 -13.108
v 20.5944 68.326 -13.108
v 20.1321 68.326 -13.9086
v 11.5555 50.2652 5.33327
v 10.2695 50.2652 7.56075
v 9.56064 52.9654 6.33294
v 10.1378 52.9654 5.33327
v 17.1906 66.3127 13.0843
v 16.6135 66.3127 14.0839
v 16.2953 67.5245 13.5329
v 16.5543 67.5245 13.0843
v -11.3167 49.9483 -4.95887
v -10.0799 49.9483 -7.10113
v -9.39811 52.5452 -5.9203
v -9.95319 52.5452 -4.95888
v -18.4383 62.8614 -11.5637
v -17.7067 62.8614 -12.8308
v -17.3035 64.3974 -12.1324
v -17.6318 64.3974 -11.5637

# No. normals 206:
vn 0.85164 0.18148 -0.49170
vn 0.86603 0 -0.50000
vn 0 0.18148 -0.98339
vn 0 0 -1
vn 0 0.41393 -0.91031
vn -0.85164 0.18148 -0.49170
vn -0.86603 0 -0.50000
vn -0.85164 0.18148 0.49170
vn -0.86603 0 0.50000
vn 0 0.18148 0.98339
vn 0 0 1
vn 0 0.41394 0.91030
vn 0.85164 0.18148 0.49170
vn 0.86603 0 0.50000
vn 0.53077 0.23140 0.81532
vn -0.46087 -0.84664 0.26609
vn -0.44907 0.23579 -0.86183
vn 0.30470 0.93606 -0.17592
vn 0.63203 0.17013 0.75604
vn -0.65942 -0.64228 0.39069
vn -0.39372 0.22324 -0.89171
vn 0.58643 0.73584 -0.33858
vn 0.66444 0.12701 0.73647
vn -0.68587 -0.60079 0.41064
vn -0.39867 0.23056 -0.88764
vn 0.62257 0.69311 -0.36333
vn -0.52088 0.75965 0.38939
vn -0.54022 0.22669 -0.81042
vn 0.40528 -0.88374 -0.23399
vn 0.43173 0.22669 0.87305
vn -0.31038 0.93357 0.17920
vn -0.68257 0.14639 -0.71601
vn 0.68912 -0.60566 -0.39786
vn 0.39779 0.20887 0.89338
vn -0.64124 0.67212 0.37022
vn 0.78835 0.41394 -0.45515
vn 0.46241 0.24280 -0.85278
vn 0.45440 -0.85129 0.26235
vn -0.50732 0.24280 0.82685
vn -0.25692 0.95498 -0.14833
vn 0.46795 0.24571 -0.84891
vn 0.76023 -0.47896 0.43892
vn -0.79288 0.06725 0.60566
vn -0.72682 0.54373 -0.41963
vn 0.78835 0.41394 0.45515
vn -0.47072 0.24716 0.84695
vn -0.46750 -0.84178 -0.26991
vn 0.49812 0.24716 -0.83114
vn 0.24209 0.96013 0.13977
vn -0.41864 0.21982 0.88115
vn -0.69836 -0.59138 -0.40320
vn 0.71974 0.12183 -0.68347
vn 0.66322 0.64306 0.38291
vn -0.78835 0.41394 -0.45515
vn 0.85164 0.18148 -0.49170
vn 0.85164 0.18148 0.49170
vn 0.86242 0.09112 -0.49792
vn 0.86242 0.09112 0.49792
vn 0.86603 0 -0.50000
vn 0.45440 -0.85129 0.26235
vn 0.46241 0.24280 -0.85278
vn 0.43173 0.22669 0.87305
vn 0.40528 -0.88374 -0.23399
vn 0.86603 0 0.50000
vn 0.43173 0.22669 0.87305
vn -0.25692 0.95498 -0.14833
vn 0.46241 0.24280 -0.85278
vn -0.31038 0.93357 0.17920
vn 0.85164 0.18148 -0.49170
vn 0 0.18148 -0.98339
vn 0.86242 0.09112 -0.49792
vn 0 0.09112 -0.99584
vn 0.86603 0 -0.50000
vn 0.40528 -0.88374 -0.23399
vn -0.18976 0.22503 -0.95570
vn -0.28226 0.33472 -0.89905
vn -0.31038 0.93357 0.17920
vn 0 0.18148 -0.98339
vn -0.85164 0.18148 -0.49170
vn 0 0.09112 -0.99584
vn -0.86242 0.09112 -0.49792
vn 0.17394 0.23086 -0.95731
vn -0.46750 -0.84178 -0.26991
vn -0.86603 0 -0.50000
vn 0.25834 0.34286 -0.90316
vn 0.24209 0.96013 0.13977
vn -0.85164 0.18148 -0.49170
vn -0.85164 0.18148 0.49170
vn -0.86242 0.09112 -0.49792
vn -0.86242 0.09112 0.49792
vn -0.86603 0 -0.50000
vn -0.46750 -0.84178 -0.26991
vn -0.47072 0.24716 0.84695
vn -0.44907 0.23579 -0.86183
vn -0.46087 -0.84664 0.26609
vn -0.86603 0 0.50000
vn -0.44907 0.23579 -0.86183
vn 0.24209 0.96013 0.13977
vn -0.47072 0.24716 0.84695
vn 0.30470 0.93606 -0.17592
vn -0.85164 0.18148 0.49170
vn 0 0.18148 0.98339
vn -0.86242 0.09112 0.49792
vn 0 0.09112 0.99584
vn -0.86603 0 0.50000
vn -0.46087 -0.84664 0.26609
vn 0.18618 0.22637 0.95608
vn 0.27683 0.33659 0.90004
vn 0.30470 0.93606 -0.17592
vn 0 0.18148 0.98339
vn 0.85164 0.18148 0.49170
vn 0 0.09112 0.99584
vn 0.86242 0.09112 0.49792
vn -0.17737 0.22961 0.95698
vn 0.45440 -0.85129 0.26235
vn 0.86603 0 0.50000
vn -0.26352 0.34113 0.90233
vn -0.25692 0.95498 -0.14833
vn 0.58268 0.20120 0.78740
vn -0.56704 -0.75363 0.33243
vn -0.56704 -0.75363 0.33243
vn -0.42161 0.22963 -0.87722
vn -0.42161 0.22963 -0.87722
vn 0.45392 0.85163 -0.26207
vn 0.58268 0.20120 0.78740
vn 0.45392 0.85163 -0.26207
vn 0.64850 0.14863 0.74656
vn -0.67288 -0.62176 0.40081
vn -0.67288 -0.62176 0.40081
vn -0.39620 0.22691 -0.88969
vn -0.39620 0.22691 -0.88969
vn 0.60478 0.71481 -0.35112
vn 0.64850 0.14863 0.74656
vn 0.60478 0.71481 -0.35112
vn 0.66444 0.12701 0.73647
vn -0.52088 0.75965 0.38939
vn -0.68587 -0.60079 0.41064
vn -0.68587 -0.60079 0.41064
vn -0.52088 0.75965 0.38939
vn -0.39867 0.23056 -0.88764
vn -0.39867 0.23056 -0.88764
vn -0.52088 0.75965 0.38939
vn 0.62257 0.69311 -0.36333
vn 0.66444 0.12701 0.73647
vn -0.52088 0.75965 0.38939
vn 0.62257 0.69311 -0.36333
vn -0.61413 0.18737 -0.76664
vn 0.56029 -0.76252 -0.32348
vn 0.56029 -0.76252 -0.32348
vn 0.41486 0.21783 0.88343
vn 0.41486 0.21783 0.88343
vn -0.48909 0.82526 0.28238
vn -0.61413 0.18737 -0.76664
vn -0.48909 0.82526 0.28238
vn -0.68257 0.14639 -0.71601
vn 0.78835 0.41394 -0.45515
vn 0.68912 -0.60566 -0.39786
vn 0.68912 -0.60566 -0.39786
vn 0.78835 0.41394 -0.45515
vn 0.39779 0.20887 0.89338
vn 0.39779 0.20887 0.89338
vn 0.78835 0.41394 -0.45515
vn -0.64124 0.67212 0.37022
vn -0.68257 0.14639 -0.71601
vn 0.78835 0.41394 -0.45515
vn -0.64124 0.67212 0.37022
vn 0.46519 0.24425 -0.85085
vn 0.62835 -0.68816 0.36278
vn 0.62835 -0.68816 0.36278
vn -0.66362 0.15825 0.73114
vn -0.66362 0.15825 0.73114
vn -0.52311 0.79696 -0.30202
vn 0.46519 0.24425 -0.85085
vn -0.52311 0.79696 -0.30202
vn 0.46795 0.24571 -0.84891
vn 0.78835 0.41394 0.45515
vn 0.76023 -0.47896 0.43892
vn 0.76023 -0.47896 0.43892
vn 0.78835 0.41394 0.45515
vn -0.79288 0.06725 0.60566
vn -0.79288 0.06725 0.60566
vn 0.78835 0.41394 0.45515
vn -0.72682 0.54373 -0.41963
vn 0.46795 0.24571 -0.84891
vn 0.78835 0.41394 0.45515
vn -0.72682 0.54373 -0.41963
vn -0.44494 0.23363 0.86455
vn -0.59293 -0.72887 -0.34233
vn -0.59293 -0.72887 -0.34233
vn 0.61563 0.18653 -0.76564
vn 0.61563 0.18653 -0.76564
vn 0.47302 0.83766 0.27310
vn -0.44494 0.23363 0.86455
vn 0.47302 0.83766 0.27310
vn -0.41864 0.21982 0.88115
vn -0.78835 0.41394 -0.45515
vn -0.69836 -0.59138 -0.40320
vn -0.69836 -0.59138 -0.40320
vn -0.78835 0.41394 -0.45515
vn 0.71974 0.12183 -0.68347
vn 0.71974 0.12183 -0.68347
vn -0.78835 0.41394 -0.45515
vn 0.66322 0.64306 0.38291
vn -0.41864 0.21982 0.88115
vn -0.78835 0.41394 -0.45515
vn 0.66322 0.64306 0.38291

# No. texture coordinates 25:
vt 0 0
vt 0 0.33333
vt 0 0.66667
vt 0.16667 0
vt 0.16667 0.33333
vt 0.16667 0.66667
vt 0.16667 1
vt 0.33333 0
vt 0.33333 0.33333
vt 0.33333 0.66667
vt 0.33333 1
vt 0.50000 0
vt 0.50000 0.33333
vt 0.50000 0.66667
vt 0.66667 0
vt 0.66667 0.33333
vt 0.66667 0.66667
vt 0.66667 1
vt 0.83333 0
vt 0.83333 0.33333
vt 0.83333 0.66667
vt 0.83333 1
vt 1 0
vt 1 0.33333
vt 1 0.66667

# No. faces 54:

usemtl ___default___

f 6/5/71 2/2/57 1/1/55 5/4/69
f 7/6/73 3/3/59 2/2/57 6/5/71
f 10/9/80 6/5/72 5/4/70 9/8/78
f 11/10/82 7/6/75 6/5/72 10/9/80
f 12/11/85 8/7/76 7/6/75 11/10/82
f 14/13/89 10/9/81 9/8/79 13/12/87
f 15/14/91 11/10/84 10/9/81 14/13/89
f 18/16/103 14/13/90 13/12/88 17/15/101
f 19/17/105 15/14/96 14/13/90 18/16/103
f 22/20/112 18/16/104 17/15/102 21/19/110
f 23/21/114 19/17/107 18/16/104 22/20/112
f 24/22/117 20/18/108 19/17/107 23/21/114
f 2/24/58 22/20/113 21/19/111 1/23/56
f 3/25/64 23/21/116 22/20/113 2/24/58
f 28//125 25//119 19//107 20//108
f 25//120 26//121 15//95 19//106
f 26//122 27//123 16//97 15//94
f 27//124 28//126 20//109 16//100
f 32//133 29//127 25//119 28//125
f 29//128 30//129 26//121 25//120
f 30//130 31//131 27//123 26//122
f 31//132 32//134 28//126 27//124
f 36//144 33//135 29//127 32//133
f 33//137 34//138 30//129 29//128
f 34//140 35//141 31//131 30//130
f 35//143 36//146 32//134 31//132
f 36//145 35//142 34//139 33//136
f 40//153 37//147 7//75 8//76
f 37//148 38//149 3//63 7//74
f 38//150 39//151 4//65 3//62
f 39//152 40//154 8//77 4//68
f 44//164 41//155 37//147 40//153
f 41//157 42//158 38//149 37//148
f 42//160 43//161 39//151 38//150
f 43//163 44//166 40//154 39//152
f 44//165 43//162 42//159 41//156
f 48//173 45//167 3//61 4//67
f 45//168 46//169 23//115 3//60
f 46//170 47//171 24//117 23//114
f 47//172 48//174 4//66 24//118
f 52//184 49//175 45//167 48//173
f 49//177 50//178 46//169 45//168
f 50//180 51//181 47//171 46//170
f 51//183 52//186 48//174 47//172
f 52//185 51//182 50//179 49//176
f 56//193 53//187 15//93 16//99
f 53//188 54//189 11//83 15//92
f 54//190 55//191 12//85 11//82
f 55//192 56//194 16//98 12//86
f 60//204 57//195 53//187 56//193
f 57//197 58//198 54//189 53//188
f 58//200 59//201 55//191 54//190
f 59//203 60//206 56//194 55//192
f 60//205 59//202 58//199 57//196

# Shape "mesh02":
g mesh02
# No. points 13:
v 24.7726 52.1477 0.00006
v 35.2173 77.3634 0.00006
v 24.7726 102.579 0.00006
v -0.44304 113.024 0.00006
v -0.44304 52.1477 -25.2156
v -0.44304 77.3634 -35.6603
v -0.44304 102.579 -25.2156
v -25.6587 52.1477 0.00006
v -36.1034 77.3634 0.00006
v -25.6587 102.579 0.00006
v -0.44304 52.1477 25.2157
v -0.44304 77.3634 35.6604
v -0.44304 102.579 25.2157

# No. normals 33:
vn 0.67860 -0.28108 -0.67860
vn -0.67860 -0.28108 -0.67860
vn -0.67860 -0.28108 0.67860
vn 0.67860 -0.28108 0.67860
vn 0.67860 0.28108 -0.67860
vn -0.67860 0.28108 -0.67860
vn -0.67860 0.28108 0.67860
vn 0.67860 0.28108 0.67860
vn 0.35741 0.86286 -0.35741
vn -0.35741 0.86286 -0.35741
vn -0.35741 0.86286 0.35741
vn 0.35741 0.86286 0.35741
vn 0.67860 -0.28108 -0.67860
vn 0.67860 -0.28108 0.67860
vn 0.70711 0 -0.70711
vn 0.70711 0 0.70711
vn 0.67127 0.74121 0
vn 0 1 0
vn 0.67860 -0.28108 -0.67860
vn -0.67860 -0.28108 -0.67860
vn 0.70711 0 -0.70711
vn -0.70711 0 -0.70711
vn 0 0.74121 -0.67127
vn -0.67860 -0.28108 -0.67860
vn -0.67860 -0.28108 0.67860
vn -0.70711 0 -0.70711
vn -0.70711 0 0.70711
vn -0.67127 0.74121 0
vn -0.67860 -0.28108 0.67860
vn 0.67860 -0.28108 0.67860
vn -0.70711 0 0.70711
vn 0.70711 0 0.70711
vn 0 0.74121 0.67127

# No. texture coordinates 19:
vt 0 0.25000
vt 0 0.50000
vt 0 0.75000
vt 0 1
vt 0.25000 0.25000
vt 0.25000 0.50000
vt 0.25000 0.75000
vt 0.25000 1
vt 0.50000 0.25000
vt 0.50000 0.50000
vt 0.50000 0.75000
vt 0.50000 1
vt 0.75000 0.25000
vt 0.75000 0.50000
vt 0.75000 0.75000
vt 0.75000 1
vt 1 0.25000
vt 1 0.50000
vt 1 0.75000

# No. faces 12:

usemtl ___default___

f 66/31/227 62/27/221 61/26/219 65/30/225
f 69/35/232 66/31/228 65/30/226 68/34/230
f 72/39/237 69/35/233 68/34/231 71/38/235
f 62/43/222 72/39/238 71/38/236 61/42/220
f 67/32/229 63/28/223 62/27/221 66/31/227
f 70/36/234 67/32/229 66/31/228 69/35/232
f 73/40/239 70/36/234 69/35/233 72/39/237
f 63/44/223 73/40/239 72/39/238 62/43/222
f 64/29/224 63/28/223 67/32/229
f 64/33/224 67/32/229 70/36/234
f 64/37/224 70/36/234 73/40/239
f 64/41/224 73/40/239 63/44/223

# End of Object "tree"
