# Wavefront OBJ file
# Creator: Ultimate Unwrap3D Pro (x64) v3.50.66
# Website: http://www.unwrap3d.com
# Time: Tue May 16 10:42:57 2023
# num_vertices: 73
# num_vertex_normals: 73
# num_uvs: 260
# num_faces: 66
# num_groups: 2

mtllib tree_mapped.mtl

v 8.085510 0.108000 0.000000
v 4.547200 16.712299 0.000000
v 4.547200 44.880798 0.000010
v 1.900730 49.921001 0.000000
v 3.915750 0.108000 -7.222220
v 2.146600 16.712299 -4.157960
v 2.146600 44.880798 -4.157950
v 0.823370 49.921001 -1.866050
v -4.423750 0.108000 -7.222220
v -2.654600 16.712299 -4.157960
v -2.654600 44.880798 -4.157950
v -1.331370 49.921001 -1.866050
v -8.593500 0.108000 0.000000
v -5.055200 16.712299 0.000000
v -5.055200 44.880798 0.000010
v -2.408730 49.921001 0.000000
v -4.423750 0.108000 7.222220
v -2.654600 16.712299 4.157960
v -2.654600 44.880798 4.157970
v -1.331370 49.921001 1.866050
v 3.915750 0.108000 7.222220
v 2.146600 16.712299 4.157960
v 2.146600 44.880798 4.157970
v 0.823370 49.921001 1.866050
v -10.715300 50.423500 7.832370
v -12.209500 50.423500 5.244310
v -10.562300 53.560699 5.244310
v -9.891700 53.560699 6.405800
v -17.057301 59.022701 11.199000
v -17.919800 59.106701 9.881350
v -16.490000 60.262402 9.539370
v -16.102900 60.224701 10.130700
v -20.003401 63.656601 13.057900
v -20.532301 63.708099 12.249900
v -19.655600 64.416801 12.040200
v -19.418301 64.393600 12.402800
v 10.000900 49.525101 -8.094530
v 11.883500 49.525101 -4.833750
v 9.808120 53.477699 -4.833760
v 8.963220 53.477699 -6.297170
v 20.699900 66.163498 -14.891900
v 21.729799 66.163498 -13.108000
v 20.594400 68.325996 -13.108000
v 20.132099 68.325996 -13.908600
v 11.555500 50.265202 5.333270
v 10.269500 50.265202 7.560750
v 9.560640 52.965401 6.332940
v 10.137800 52.965401 5.333270
v 17.190599 66.312698 13.084300
v 16.613501 66.312698 14.083900
v 16.295300 67.524498 13.532900
v 16.554300 67.524498 13.084300
v -11.316700 49.948299 -4.958870
v -10.079900 49.948299 -7.101130
v -9.398110 52.545200 -5.920300
v -9.953190 52.545200 -4.958880
v -18.438299 62.861401 -11.563700
v -17.706699 62.861401 -12.830800
v -17.303499 64.397400 -12.132400
v -17.631800 64.397400 -11.563700
v 24.772600 52.147701 0.000060
v 35.217300 77.363403 0.000060
v 24.772600 102.579002 0.000060
v -0.443040 113.024002 0.000060
v -0.443040 52.147701 -25.215599
v -0.443040 77.363403 -35.660301
v -0.443040 102.579002 -25.215599
v -25.658701 52.147701 0.000060
v -36.103401 77.363403 0.000060
v -25.658701 102.579002 0.000060
v -0.443040 52.147701 25.215700
v -0.443040 77.363403 35.660400
v -0.443040 102.579002 25.215700
# num_vertices: 73

vn 0.978040 0.208416 -0.000000
vn 0.994465 0.105071 0.000000
vn 0.939889 -0.341228 0.013111
vn 0.137269 0.990301 0.021477
vn 0.489020 0.208416 -0.847008
vn 0.497232 0.105071 -0.861232
vn 0.206547 -0.068682 -0.976023
vn -0.360153 0.666537 -0.652701
vn -0.489020 0.208416 -0.847008
vn -0.497232 0.105071 -0.861232
vn -0.231168 -0.049998 -0.971628
vn 0.308913 0.676589 -0.668431
vn -0.978040 0.208416 0.000000
vn -0.994465 0.105071 0.000000
vn -0.947709 -0.319097 -0.004948
vn -0.154853 0.987710 -0.021181
vn -0.489020 0.208416 0.847008
vn -0.497232 0.105071 0.861232
vn -0.221951 -0.056118 0.973442
vn 0.353037 0.668241 0.654842
vn 0.489020 0.208416 0.847008
vn 0.497232 0.105071 0.861232
vn 0.225990 -0.054074 0.972628
vn -0.319934 0.674717 0.665131
vn 0.017240 -0.438533 0.898550
vn -0.793174 -0.417038 -0.443795
vn 0.016542 0.683903 -0.729386
vn 0.662375 0.667297 0.340550
vn -0.019556 -0.381161 0.924302
vn -0.861621 -0.318971 -0.394798
vn 0.133651 0.598224 -0.790105
vn 0.797543 0.548309 0.251559
vn -0.327759 0.172843 0.928816
vn -0.970457 0.235402 -0.052909
vn -0.155077 0.879452 -0.450018
vn 0.400306 0.825239 0.398417
vn -0.052754 -0.458778 -0.886983
vn 0.779017 -0.426710 0.459404
vn -0.039505 0.660708 0.749603
vn -0.701850 0.638714 -0.315357
vn 0.451757 -0.025762 -0.891769
vn 0.999727 0.009152 0.021500
vn 0.336165 0.798898 0.498753
vn -0.342285 0.787836 -0.512011
vn 0.853881 -0.335083 -0.398254
vn -0.036137 -0.431076 0.901592
vn -0.751543 0.595182 0.284502
vn -0.017690 0.658639 -0.752251
vn 0.995761 0.089233 0.022295
vn 0.449999 0.001319 0.893028
vn -0.517588 0.725362 0.453820
vn 0.342479 0.778394 -0.526129
vn -0.820747 -0.385844 0.421306
vn 0.021370 -0.437322 -0.899051
vn 0.693194 0.643890 -0.323864
vn 0.005222 0.676953 0.736008
vn -0.999681 0.022235 0.011975
vn -0.445160 -0.032270 -0.894870
vn 0.390861 0.774895 -0.496755
vn -0.338517 0.794866 0.503581
vn 0.923879 -0.382684 0.000000
vn 1.000000 0.000001 0.000000
vn 0.671278 0.741205 0.000000
vn 0.000000 1.000000 0.000000
vn 0.000000 -0.382684 -0.923879
vn 0.000000 0.000001 -1.000000
vn 0.000000 0.741206 -0.671278
vn -0.923879 -0.382684 0.000000
vn -1.000000 0.000001 0.000000
vn -0.671278 0.741206 0.000000
vn 0.000000 -0.382684 0.923879
vn 0.000000 0.000001 1.000000
vn 0.000000 0.741205 0.671278
# num_vertex_normals: 73

vt 0.072688 0.707034
vt 0.050272 0.707034
vt 0.050272 0.617518
vt 0.089208 0.617518
vt 0.099134 0.819448
vt 0.047466 0.819448
vt 0.047466 0.716113
vt 0.099134 0.716113
vt 0.126517 0.707034
vt 0.100633 0.707034
vt 0.091095 0.617518
vt 0.136055 0.617518
vt 0.150798 0.819448
vt 0.099134 0.819448
vt 0.099134 0.716113
vt 0.150798 0.716113
vt 0.150798 0.922781
vt 0.099134 0.922781
vt 0.099134 0.819448
vt 0.150798 0.819448
vt 0.202466 0.716113
vt 0.150798 0.716113
vt 0.150798 0.612781
vt 0.202466 0.612781
vt 0.202466 0.819448
vt 0.150798 0.819448
vt 0.150798 0.716113
vt 0.202466 0.716113
vt 0.254134 0.716113
vt 0.202466 0.716113
vt 0.202466 0.612781
vt 0.254134 0.612781
vt 0.254134 0.819448
vt 0.202466 0.819448
vt 0.202466 0.716113
vt 0.254134 0.716113
vt 0.305798 0.716113
vt 0.254134 0.716113
vt 0.254134 0.612781
vt 0.305798 0.612781
vt 0.305798 0.819448
vt 0.254134 0.819448
vt 0.254134 0.716113
vt 0.305798 0.716113
vt 0.305798 0.922781
vt 0.254134 0.922781
vt 0.254134 0.819448
vt 0.305798 0.819448
vt 0.357466 0.716113
vt 0.305798 0.716113
vt 0.305798 0.612781
vt 0.357466 0.612781
vt 0.357466 0.819448
vt 0.305798 0.819448
vt 0.305798 0.716113
vt 0.357466 0.716113
vt 0.592883 0.688458
vt 0.588443 0.671545
vt 0.631900 0.641663
vt 0.639033 0.668836
vt 0.867527 0.639756
vt 0.859471 0.625803
vt 0.898041 0.597530
vt 0.910983 0.619947
vt 0.805052 0.799703
vt 0.796171 0.816616
vt 0.752214 0.796994
vt 0.766482 0.769821
vt 0.700627 0.611483
vt 0.704242 0.605221
vt 0.750392 0.629696
vt 0.744584 0.639756
vt 0.559398 0.724384
vt 0.554253 0.717904
vt 0.588443 0.671545
vt 0.592883 0.688458
vt 0.634969 0.614496
vt 0.627865 0.614949
vt 0.602866 0.568137
vt 0.616819 0.568137
vt 0.835837 0.846515
vt 0.828128 0.852746
vt 0.796171 0.816616
vt 0.805052 0.799703
vt 0.668670 0.588328
vt 0.670757 0.585140
vt 0.704242 0.605221
vt 0.700627 0.611483
vt 0.541524 0.746859
vt 0.538370 0.742886
vt 0.554253 0.717904
vt 0.559398 0.724384
vt 0.644990 0.639478
vt 0.640634 0.639756
vt 0.627865 0.614949
vt 0.634969 0.614496
vt 0.849921 0.871322
vt 0.845194 0.875143
vt 0.828128 0.852746
vt 0.835837 0.846515
vt 0.651603 0.574846
vt 0.652883 0.572891
vt 0.670757 0.585140
vt 0.668670 0.588328
vt 0.652883 0.572891
vt 0.651603 0.574846
vt 0.646877 0.573715
vt 0.649728 0.569359
vt 0.622127 0.795094
vt 0.616533 0.773785
vt 0.658877 0.748746
vt 0.666010 0.775919
vt 0.794623 0.596117
vt 0.804772 0.613696
vt 0.765221 0.639756
vt 0.752279 0.617340
vt 0.503884 0.773785
vt 0.492695 0.795094
vt 0.450065 0.775919
vt 0.464333 0.748746
vt 0.542829 0.590832
vt 0.538274 0.598722
vt 0.494391 0.574833
vt 0.500199 0.564773
vt 0.561914 0.875143
vt 0.558853 0.863485
vt 0.616533 0.773785
vt 0.622127 0.795094
vt 0.695145 0.735201
vt 0.685528 0.735201
vt 0.640920 0.645501
vt 0.658499 0.645501
vt 0.556966 0.863485
vt 0.550845 0.875143
vt 0.492695 0.795094
vt 0.503884 0.773785
vt 0.600979 0.635440
vt 0.598487 0.639756
vt 0.538274 0.598722
vt 0.542829 0.590832
vt 0.689844 0.746859
vt 0.685528 0.746859
vt 0.685528 0.735201
vt 0.695145 0.735201
vt 0.705920 0.796653
vt 0.698277 0.782096
vt 0.736060 0.753067
vt 0.750327 0.780240
vt 0.549841 0.547964
vt 0.542908 0.559972
vt 0.499117 0.541627
vt 0.512059 0.519211
vt 0.857584 0.625199
vt 0.853763 0.639756
vt 0.806659 0.623343
vt 0.813793 0.596171
vt 0.647417 0.525830
vt 0.650529 0.531220
vt 0.606122 0.559972
vt 0.600314 0.549912
vt 0.671328 0.875143
vt 0.667897 0.868610
vt 0.698277 0.782096
vt 0.705920 0.796653
vt 0.702421 0.740326
vt 0.697032 0.740326
vt 0.732199 0.653812
vt 0.744208 0.653812
vt 0.793271 0.740326
vt 0.790300 0.746859
vt 0.751484 0.668369
vt 0.758103 0.653812
vt 0.790300 0.746859
vt 0.787882 0.746859
vt 0.746095 0.668369
vt 0.751484 0.668369
vt 0.702421 0.746859
vt 0.700002 0.746859
vt 0.697032 0.740326
vt 0.702421 0.740326
vt 0.495809 0.682963
vt 0.488459 0.668962
vt 0.522216 0.641643
vt 0.536483 0.668815
vt 0.551728 0.533238
vt 0.558396 0.521689
vt 0.598427 0.537556
vt 0.585485 0.559972
vt 0.497230 0.545972
vt 0.493554 0.559972
vt 0.450065 0.545825
vt 0.457199 0.518652
vt 0.655409 0.559972
vt 0.652416 0.554789
vt 0.693089 0.528055
vt 0.698897 0.538115
vt 0.454413 0.746859
vt 0.450065 0.738579
vt 0.488459 0.668962
vt 0.495809 0.682963
vt 0.456896 0.631475
vt 0.450065 0.631475
vt 0.480955 0.561859
vt 0.492504 0.561859
vt 0.925265 0.738579
vt 0.921500 0.746859
vt 0.888010 0.682963
vt 0.894376 0.668962
vt 0.921500 0.746859
vt 0.918434 0.746859
vt 0.882827 0.682963
vt 0.888010 0.682963
vt 0.456896 0.639756
vt 0.453830 0.639756
vt 0.450065 0.631475
vt 0.456896 0.631475
vt 0.113642 0.118347
vt 0.026942 0.118347
vt 0.026942 0.031647
vt 0.113642 0.031647
vt 0.200342 0.118347
vt 0.113642 0.118347
vt 0.113642 0.031647
vt 0.200342 0.031647
vt 0.287042 0.118347
vt 0.200342 0.118347
vt 0.200342 0.031647
vt 0.287042 0.031647
vt 0.373742 0.118347
vt 0.287042 0.118347
vt 0.287042 0.031647
vt 0.373742 0.031647
vt 0.113642 0.205048
vt 0.026942 0.205048
vt 0.026942 0.118347
vt 0.113642 0.118347
vt 0.200342 0.205048
vt 0.113642 0.205048
vt 0.113642 0.118347
vt 0.200342 0.118347
vt 0.287042 0.205048
vt 0.200342 0.205048
vt 0.200342 0.118347
vt 0.287042 0.118347
vt 0.373742 0.205048
vt 0.287042 0.205048
vt 0.287042 0.118347
vt 0.373742 0.118347
vt 0.026942 0.291747
vt 0.026942 0.205048
vt 0.113642 0.205048
vt 0.113642 0.291747
vt 0.113642 0.205048
vt 0.200342 0.205048
vt 0.200342 0.291747
vt 0.200342 0.205048
vt 0.287042 0.205048
vt 0.287042 0.291747
vt 0.287042 0.205048
vt 0.373742 0.205048
# num_uvs: 260

g mesh01
usemtl ___default___
f 6/1/6 2/2/2 1/3/1 5/4/5 
f 7/5/7 3/6/3 2/7/2 6/8/6 
f 10/9/10 6/10/6 5/11/5 9/12/9 
f 11/13/11 7/14/7 6/15/6 10/16/10 
f 12/17/12 8/18/8 7/19/7 11/20/11 
f 14/21/14 10/22/10 9/23/9 13/24/13 
f 15/25/15 11/26/11 10/27/10 14/28/14 
f 18/29/18 14/30/14 13/31/13 17/32/17 
f 19/33/19 15/34/15 14/35/14 18/36/18 
f 22/37/22 18/38/18 17/39/17 21/40/21 
f 23/41/23 19/42/19 18/43/18 22/44/22 
f 24/45/24 20/46/20 19/47/19 23/48/23 
f 2/49/2 22/50/22 21/51/21 1/52/1 
f 3/53/3 23/54/23 22/55/22 2/56/2 
f 28/57/28 25/58/25 19/59/19 20/60/20 
f 25/61/25 26/62/26 15/63/15 19/64/19 
f 26/65/26 27/66/27 16/67/16 15/68/15 
f 27/69/27 28/70/28 20/71/20 16/72/16 
f 32/73/32 29/74/29 25/75/25 28/76/28 
f 29/77/29 30/78/30 26/79/26 25/80/25 
f 30/81/30 31/82/31 27/83/27 26/84/26 
f 31/85/31 32/86/32 28/87/28 27/88/27 
f 36/89/36 33/90/33 29/91/29 32/92/32 
f 33/93/33 34/94/34 30/95/30 29/96/29 
f 34/97/34 35/98/35 31/99/31 30/100/30 
f 35/101/35 36/102/36 32/103/32 31/104/31 
f 36/105/36 35/106/35 34/107/34 33/108/33 
f 40/109/40 37/110/37 7/111/7 8/112/8 
f 37/113/37 38/114/38 3/115/3 7/116/7 
f 38/117/38 39/118/39 4/119/4 3/120/3 
f 39/121/39 40/122/40 8/123/8 4/124/4 
f 44/125/44 41/126/41 37/127/37 40/128/40 
f 41/129/41 42/130/42 38/131/38 37/132/37 
f 42/133/42 43/134/43 39/135/39 38/136/38 
f 43/137/43 44/138/44 40/139/40 39/140/39 
f 44/141/44 43/142/43 42/143/42 41/144/41 
f 48/145/48 45/146/45 3/147/3 4/148/4 
f 45/149/45 46/150/46 23/151/23 3/152/3 
f 46/153/46 47/154/47 24/155/24 23/156/23 
f 47/157/47 48/158/48 4/159/4 24/160/24 
f 52/161/52 49/162/49 45/163/45 48/164/48 
f 49/165/49 50/166/50 46/167/46 45/168/45 
f 50/169/50 51/170/51 47/171/47 46/172/46 
f 51/173/51 52/174/52 48/175/48 47/176/47 
f 52/177/52 51/178/51 50/179/50 49/180/49 
f 56/181/56 53/182/53 15/183/15 16/184/16 
f 53/185/53 54/186/54 11/187/11 15/188/15 
f 54/189/54 55/190/55 12/191/12 11/192/11 
f 55/193/55 56/194/56 16/195/16 12/196/12 
f 60/197/60 57/198/57 53/199/53 56/200/56 
f 57/201/57 58/202/58 54/203/54 53/204/53 
f 58/205/58 59/206/59 55/207/55 54/208/54 
f 59/209/59 60/210/60 56/211/56 55/212/55 
f 60/213/60 59/214/59 58/215/58 57/216/57 
g mesh02
f 66/217/66 62/218/62 61/219/61 65/220/65 
f 69/221/69 66/222/66 65/223/65 68/224/68 
f 72/225/72 69/226/69 68/227/68 71/228/71 
f 62/229/62 72/230/72 71/231/71 61/232/61 
f 67/233/67 63/234/63 62/235/62 66/236/66 
f 70/237/70 67/238/67 66/239/66 69/240/69 
f 73/241/73 70/242/70 69/243/69 72/244/72 
f 63/245/63 73/246/73 72/247/72 62/248/62 
f 64/249/64 63/250/63 67/251/67 
f 64/252/64 67/253/67 70/254/70 
f 64/255/64 70/256/70 73/257/73 
f 64/258/64 73/259/73 63/260/63 
# num_faces: 66

