# Created with Anim8or 1.00
# Object "tst_level2":

mtllib tst_level2.mtl

# Shape "mesh01":
g mesh01
# No. points 200:
v -805.071 -159.277 -144.375
v -805.071 -49.6444 -144.375
v -805.071 59.9896 -144.375
v -805.071 169.622 -144.375
v -563.089 -159.277 -144.375
v -563.089 -49.6445 -144.375
v -563.089 59.9896 -144.375
v -563.089 169.622 -144.375
v -99.2129 -159.277 -144.376
v -99.2129 -49.6447 -144.376
v -99.2129 59.9894 -144.376
v -99.2129 169.622 -144.376
v 81.5589 -159.277 -144.377
v 81.5589 -49.6447 -144.377
v 81.5589 59.9893 -144.377
v 81.5589 169.622 -144.377
v 795.376 -159.277 -144.378
v 795.376 -49.645 -144.378
v 795.376 59.989 -144.378
v 795.376 169.622 -144.378
v 587.574 -159.277 -144.378
v 587.574 -49.6449 -144.378
v 587.574 59.9891 -144.378
v 587.574 169.622 -144.378
v -563.089 -159.277 -119.659
v -99.2129 -159.277 -119.66
v -99.2129 -49.6447 -119.66
v -563.089 -49.6445 -119.659
v -563.089 -49.6445 -119.659
v -99.2129 -49.6447 -119.66
v -99.2129 59.9894 -119.66
v -563.089 59.9896 -119.659
v 587.574 -49.6449 -119.661
v 81.5589 -49.6447 -119.66
v 81.5589 -159.277 -119.66
v 587.574 -159.277 -119.661
v 587.574 59.9891 -119.661
v 81.5589 59.9893 -119.66
v 81.5589 -49.6447 -119.66
v 587.574 -49.6449 -119.661
v -516.754 59.9895 -144.376
v -516.754 169.622 -144.376
v -516.754 -159.277 -119.659
v -516.754 -49.6445 -119.659
v -516.754 -49.6445 -119.659
v -516.754 59.9895 -119.659
v -136.749 59.9894 -144.376
v -136.749 169.622 -144.376
v -136.749 -159.277 -119.66
v -136.749 -49.6446 -119.66
v -136.749 -49.6446 -119.66
v -136.749 59.9894 -119.66
v 118.294 59.9893 -144.377
v 118.294 169.622 -144.377
v 118.294 -49.6447 -119.66
v 118.294 -159.277 -119.66
v 118.294 59.9893 -119.66
v 118.294 -49.6447 -119.66
v 546.77 59.9891 -144.378
v 546.77 169.622 -144.378
v 546.77 -49.6449 -119.661
v 546.77 -159.277 -119.661
v 546.77 59.9891 -119.661
v 546.77 -49.6449 -119.661
v -350.979 169.622 -144.376
v -350.979 59.9895 -144.376
v -350.979 -159.277 -119.659
v -350.979 -49.6446 -119.659
v -350.979 -49.6446 -119.659
v -350.979 59.9895 -119.66
v -294.869 59.9895 -144.376
v -294.869 169.622 -144.376
v -294.869 -159.277 -119.66
v -294.869 -49.6446 -119.66
v -294.869 -49.6446 -119.66
v -294.869 59.9894 -119.66
v 309.579 169.622 -144.377
v 309.579 59.9892 -144.377
v 309.579 -49.6448 -119.661
v 309.579 -159.277 -119.661
v 309.579 59.9892 -119.661
v 309.579 -49.6448 -119.661
v 365.689 59.9892 -144.377
v 365.689 169.622 -144.377
v 365.689 -49.6448 -119.661
v 365.689 -159.277 -119.661
v 365.689 59.9892 -119.661
v 365.689 -49.6448 -119.661
v -563.089 41.3932 -144.375
v -805.071 41.3933 -144.375
v -99.2129 41.393 -144.376
v 81.5589 41.393 -144.377
v 795.376 41.3927 -144.378
v 587.574 41.3928 -144.378
v -563.089 41.3932 -119.659
v -99.2129 41.393 -119.66
v 587.574 41.3928 -119.661
v 81.5589 41.393 -119.66
v -516.754 41.3932 -119.659
v -136.749 41.393 -119.66
v 118.294 41.3929 -119.66
v 546.77 41.3928 -119.661
v -350.979 41.3931 -119.66
v -294.869 41.3931 -119.66
v 309.579 41.3929 -119.661
v 365.689 41.3928 -119.661
v -350.979 -159.277 -144.033
v -350.981 -49.6446 -144.033
v -350.979 -49.6446 -144.033
v -350.979 41.3931 -144.033
v -516.754 -159.277 -144.033
v -516.754 -49.6445 -144.033
v -516.754 -49.6445 -144.033
v -516.754 41.3932 -144.033
v -294.869 -159.277 -145.342
v -136.749 -159.277 -145.342
v -136.749 -49.6446 -145.342
v -294.869 -49.6446 -145.342
v -294.869 41.3931 -145.342
v -294.869 -49.6446 -145.342
v -136.749 -49.6446 -145.342
v -136.749 41.393 -145.342
v 309.579 -49.6448 -145.503
v 118.294 -49.6447 -145.503
v 118.294 -159.277 -145.503
v 309.579 -159.277 -145.503
v 365.689 -159.277 -145.503
v 546.77 -159.277 -145.504
v 546.77 -49.6449 -145.504
v 365.689 -49.6448 -145.504
v 118.294 41.3929 -145.503
v 118.294 -49.6447 -145.503
v 309.579 -49.6448 -145.503
v 309.579 41.3929 -145.503
v 365.689 41.3928 -145.504
v 365.689 -49.6448 -145.504
v 546.77 -49.6449 -145.504
v 546.77 41.3928 -145.504
v -804.364 -159.277 -144.375
v -804.364 -159.277 341.872
v -804.364 -49.6443 -144.375
v -804.364 -49.6443 341.872
v -804.364 59.9897 -144.375
v -804.364 59.9897 341.872
v -804.364 169.622 -144.375
v -804.364 169.622 341.872
v -404.244 -159.277 -144.376
v -404.244 -159.277 341.871
v -404.244 -49.6445 341.871
v -404.244 59.9896 341.871
v -404.244 169.622 -144.376
v -404.244 169.622 341.871
v -4.1404 -159.277 -144.376
v -4.1403 -159.277 341.87
v -4.1403 -49.6446 341.87
v -4.14031 59.9894 341.87
v -4.14041 169.622 -144.377
v -4.14031 169.622 341.87
v 395.963 -159.277 -144.377
v 395.963 -159.277 341.87
v 395.963 -49.6448 341.87
v 395.963 59.9893 341.87
v 395.963 169.622 -144.377
v 395.963 169.622 341.869
v 796.083 -159.277 -144.378
v 796.083 -159.277 341.869
v 796.083 -49.6449 -144.378
v 796.083 -49.6449 341.869
v 796.083 59.9891 -144.378
v 796.083 59.9891 341.869
v 796.083 169.622 -144.378
v 796.083 169.622 341.869
v -804.364 -159.277 17.7086
v 796.083 -159.277 17.7054
v -804.364 -159.277 179.788
v 796.083 -159.277 179.785
v -804.364 -49.6443 17.7086
v 796.083 -49.6449 17.7054
v -804.364 -49.6443 179.788
v 796.083 -49.6449 179.785
v -804.364 59.9897 17.7086
v 796.083 59.9891 17.7053
v -804.364 59.9897 179.788
v 796.083 59.9891 179.785
v -804.364 169.622 17.7085
v 796.083 169.622 17.7053
v -804.364 169.622 179.788
v 796.083 169.621 179.785
v -404.244 -159.277 17.7078
v -404.244 169.622 17.7077
v -404.244 -159.277 179.788
v -404.244 169.622 179.788
v -4.14037 -159.277 17.707
v -4.14037 169.622 17.7069
v -4.14034 -159.277 179.787
v -4.14034 169.622 179.787
v 395.963 -159.277 17.7062
v 395.963 169.622 17.7061
v 395.963 -159.277 179.786
v 395.963 169.622 179.786

# No. normals 482:
vn 0 0 -1
vn 0 0 -1
vn 0 0 -1
vn 0 0 -1
vn 0 0 -1
vn 0 0 -1
vn 1 0 0
vn -1 0 0
vn -1 0 0
vn 1 0 0
vn 0 0 -1
vn 0 0 -1
vn 0 -1 0
vn 0 0 -1
vn 0 0 -1
vn 0 -1 0
vn 0 0 -1
vn 0 0 -1
vn 0 -1 0
vn 0 0 -1
vn 0 0 -1
vn 0 -1 0
vn 0 0 -1
vn 0 -1 0
vn 0 0 -1
vn 0 0 -1
vn 0 0 -1
vn 0 -1 0
vn 0 -1 0
vn 0 0 -1
vn 0 -1 0
vn 0 0 -1
vn 0 0 -1
vn 0 0 -1
vn 0 -1 0
vn 0 -1 0
vn 0 0 -1
vn 0 0 -1
vn 0 0 -1
vn 0 0 -1
vn 0 0 -1
vn 0 0 -1
vn 1 0 0
vn 1 0 0
vn -1 0 0
vn -1 0 0
vn -1 0 0
vn -1 0 0
vn 1 0 0
vn 1 0 0
vn 0 0 -1
vn 0 0 -1
vn 0 0 -1
vn 0 0 -1
vn 0 0 -1
vn 0 0 -1
vn 0 0 -1
vn 0 0 -1
vn 0 0 -1
vn 0 0 -1
vn 0 0 -1
vn 0 0 -1
vn 0 0 -1
vn 0 0 -1
vn 0 0 -1
vn 0 0 -1
vn 1 0.00001 -0.00007
vn 1 0 0
vn -1 0 0
vn -1 0 0
vn 0 1 0
vn -1 0 0
vn 1 0 0
vn 0 1 0
vn -1 0 0
vn 1 0 0
vn 1 0 0
vn -1 0 0
vn -1 0 0
vn 1 0 0
vn 0 1 0
vn -1 0 0
vn 1 0 0
vn 0 1 0
vn -1 0 0
vn 1 0 0
vn 0 0 1
vn 0 0 1
vn 0 0 1
vn 0 0 1
vn 0 0 1
vn 0 0 1
vn 0 0 1
vn 0 0 1
vn 0 0 1
vn 0 0 1
vn 0 0 1
vn 0 0 1
vn -1 0 0
vn -1 0 0
vn -1 0 0
vn -1 0 0
vn -1 0 0
vn -1 0 0
vn -1 0 0
vn -1 0 0
vn -1 0 0
vn 1 0 0
vn 1 0 0
vn 1 0 0
vn 1 0 0
vn 1 0 0
vn 1 0 0
vn 1 0 0
vn 1 0 0
vn 1 0 0
vn 0 1 0
vn 0 1 0
vn 0 1 0
vn 0 1 0
vn 0 1 0
vn 0 1 0
vn 0 1 0
vn 0 1 0
vn 0 1 0
vn 0 1 0
vn 0 1 0
vn 0 1 0
vn 0 -1 0
vn 0 -1 0
vn 0 -1 0
vn 0 -1 0
vn 0 -1 0
vn 0 -1 0
vn 0 -1 0
vn 0 -1 0
vn 0 -1 0
vn 0 -1 0
vn 0 -1 0
vn 0 -1 0
vn 0 0 -1
vn 0 0 -1
vn 0 0 -1
vn 0 0 -1
vn 0 0 -1
vn 1 0 0
vn 0 0 -1
vn 1 0 0
vn 1 0 0
vn 0 0 -1
vn 1 0 0
vn 0 -1 0
vn 0 0 -1
vn 0 0 -1
vn -1 0 0
vn 0 0 -1
vn -1 0 0
vn -1 0 0
vn 0 0 -1
vn -1 0 0
vn 0 -1 0
vn 0 0 -1
vn 0 0 -1
vn 1 0 0
vn 0 0 -1
vn 1 0 0
vn 1 0 0
vn 0 0 -1
vn 1 0 0
vn 0 -1 0
vn 0 0 -1
vn 0 0 -1
vn 0 0 -1
vn 0 0 -1
vn 0 0 -1
vn 0 0 -1
vn -1 0 0
vn 0 0 -1
vn -1 0 0
vn -1 0 0
vn 0 0 -1
vn -1 0 0
vn 0 -1 0
vn 0 0 -1
vn 1 0 0
vn 0 0 -1
vn -1 0 0
vn 0 0 -1
vn -1 0 0
vn 0 0 -1
vn 1 0 0
vn 0 0 -1
vn 1 0 0
vn 0 0 -1
vn -1 0 0
vn 0 0 -1
vn 0 -1 0
vn 0 0 -1
vn -1 0 0
vn 0 -1 0
vn 0 0 -1
vn 1 0 0
vn -1 0 0
vn 0 0 -1
vn 1 0 0
vn 0 0 -1
vn 1 0 0
vn 0 0 -1
vn -1 0 0
vn 0 0 -1
vn 0 -1 0
vn 0 0 -1
vn -1 0 0
vn 0 -1 0
vn 0 0 -1
vn 1 0 0
vn 1 0 0
vn 0 0 -1
vn -1 0 0
vn 0 0 -1
vn 0 0 -1
vn 0 -1 0
vn 0 0 -1
vn 0 0 -1
vn -1 0 0
vn 0 0 -1
vn -1 0 0
vn 0 0 -1
vn -1 0 0
vn 0 -1 0
vn 0 0 -1
vn 0 0 -1
vn 0 -1 0
vn 0 0 -1
vn 0 0 -1
vn 1 0 0
vn 0 0 -1
vn 1 0 0
vn 0 0 -1
vn 1 0 0
vn 0 -1 0
vn 0 0 -1
vn 0 0 -1
vn 0 -1 0
vn 0 0 -1
vn 0 0 -1
vn -1 0 0
vn 0 0 -1
vn -1 0 0
vn 0 -1 0
vn 0 0 -1
vn 0 0 -1
vn -1 0 0
vn 0 0 -1
vn 0 -1 0
vn 0 0 -1
vn 0 0 -1
vn 1 0 0
vn 0 0 -1
vn 1 0 0
vn 0 -1 0
vn 0 0 -1
vn 0 0 -1
vn 1 0 0
vn 0 0 -1
vn 0 0 -1
vn 0 -1 0
vn 0 0 -1
vn 1 0.00001 -0.00007
vn 0 0 -1
vn 1 0.00001 -0.00007
vn 0 0 -1
vn 1 0 0
vn 0 -1 0
vn 0 0 -1
vn 0 0 -1
vn 0 -1 0
vn 0 0 -1
vn 0 0 -1
vn -1 0 0
vn 0 0 -1
vn -1 0 0
vn 0 0 -1
vn -1 0 0
vn 0 -1 0
vn 0 0 -1
vn 0 0 -1
vn 0 0 -1
vn 0 -1 0
vn 0 0 -1
vn 1 0 0
vn 0 0 -1
vn 1 0 0
vn 0 -1 0
vn 0 0 -1
vn 0 0 -1
vn 1 0 0
vn 0 0 -1
vn 0 -1 0
vn 0 0 -1
vn 0 0 -1
vn -1 0 0
vn 0 0 -1
vn -1 0 0
vn 0 -1 0
vn 0 0 -1
vn 0 0 -1
vn -1 0 0
vn 0 0 -1
vn 1 0 0
vn 0 0 -1
vn 0 0 -1
vn -1 0 0
vn 0 0 -1
vn 1 0 0
vn 0 0 -1
vn 0 0 -1
vn -1 0 0
vn 1 0 0
vn 0 0 -1
vn -1 0 0
vn 0 0 -1
vn -1 0 0
vn 0 0 -1
vn 1 0 0
vn 0 0 -1
vn 0 0 -1
vn 0 1 0
vn -1 0 0
vn 0 0 -1
vn 1 0 0
vn 0 1 0
vn 0 0 -1
vn -1 0 0
vn 0 1 0
vn 0 0 -1
vn 1 0 0
vn 0 1 0
vn 0 0 -1
vn 0 1 0
vn 1 0 0
vn 0 0 -1
vn -1 0 0
vn 0 1 0
vn 0 0 -1
vn 1 0 0
vn 0 1 0
vn 0 0 -1
vn -1 0 0
vn 0 1 0
vn 1 0.00001 -0.00007
vn 1 0.00001 -0.00007
vn 1 0 0
vn 1 0 0
vn 0 1 0
vn -1 0 0
vn -1 0 0
vn -1 0 0
vn -1 0 0
vn 0 1 0
vn -1 0 0
vn 1 0 0
vn 1 0 0
vn -1 0 0
vn 0 1 0
vn -1 0 0
vn -1 0 0
vn 1 0 0
vn 0 1 0
vn 1 0 0
vn 1 0 0
vn -1 0 0
vn -1 0 0
vn 1 0 0
vn -1 0 0
vn 1 0 0
vn 1 0 0
vn -1 0 0
vn 0 1 0
vn -1 0 0
vn -1 0 0
vn 1 0 0
vn 0 1 0
vn 1 0 0
vn 0 1 0
vn -1 0 0
vn -1 0 0
vn 1 0 0
vn 0 1 0
vn 1 0 0
vn -1 0 0
vn 0 -1 0
vn 0 0 1
vn 0 -1 0
vn -1 0 0
vn -1 0 0
vn 0 0 1
vn -1 0 0
vn -1 0 0
vn 0 0 1
vn -1 0 0
vn -1 0 0
vn 0 1 0
vn 0 0 1
vn 0 1 0
vn -1 0 0
vn 0 -1 0
vn 0 0 1
vn 0 -1 0
vn 0 0 1
vn 0 0 1
vn 0 1 0
vn 0 0 1
vn 0 1 0
vn 0 -1 0
vn 0 0 1
vn 0 -1 0
vn 0 0 1
vn 0 0 1
vn 0 1 0
vn 0 0 1
vn 0 1 0
vn 0 -1 0
vn 0 0 1
vn 0 -1 0
vn 0 0 1
vn 0 0 1
vn 0 1 0
vn 0 0 1
vn 0 1 0
vn 1 0 0
vn 0 -1 0
vn 0 0 1
vn 0 -1 0
vn 1 0 0
vn 1 0 0
vn 0 0 1
vn 1 0 0
vn 1 0 0
vn 0 0 1
vn 1 0 0
vn 1 0 0
vn 0 1 0
vn 0 0 1
vn 0 1 0
vn 1 0 0
vn -1 0 0
vn 0 -1 0
vn 1 0 0
vn 0 -1 0
vn -1 0 0
vn 0 -1 0
vn 1 0 0
vn 0 -1 0
vn -1 0 0
vn 1 0 0
vn -1 0 0
vn 1 0 0
vn -1 0 0
vn 1 0 0
vn -1 0 0
vn 1 0 0
vn -1 0 0
vn 0 1 0
vn 1 0 0
vn 0 1 0
vn -1 0 0
vn 0 1 0
vn 1 0 0
vn 0 1 0
vn 0 -1 0
vn 0 1 0
vn 0 -1 0
vn 0 1 0
vn 0 -1 0
vn 0 1 0
vn 0 -1 0
vn 0 1 0
vn 0 -1 0
vn 0 1 0
vn 0 -1 0
vn 0 1 0

# No. texture coordinates 311:
vt 0.01287 0.75513
vt 0.09894 0.75513
vt 0.09894 0.64037
vt 0.01287 0.64037
vt 0.01287 0.98467
vt 0.09894 0.98467
vt 0.09894 0.86990
vt 0.01287 0.86990
vt 0.55490 0.16457
vt 0.43063 0.16407
vt 0.43122 0.01735
vt 0.55550 0.01785
vt 0.18502 0.98467
vt 0.27110 0.98467
vt 0.27110 0.86990
vt 0.18502 0.86990
vt 0.33795 0.75513
vt 0.35717 0.75513
vt 0.35717 0.64037
vt 0.33795 0.64037
vt 0.33795 0.98467
vt 0.35717 0.98467
vt 0.35717 0.86990
vt 0.33795 0.86990
vt 0.62414 0.25333
vt 0.78743 0.25333
vt 0.78743 0.27817
vt 0.62414 0.27817
vt 0.63503 0.33185
vt 0.78175 0.33151
vt 0.78180 0.35383
vt 0.63508 0.35416
vt 0.62414 0.33561
vt 0.78743 0.33561
vt 0.78743 0.36044
vt 0.62414 0.36044
vt 0.94285 0.27369
vt 0.79613 0.27413
vt 0.79606 0.25182
vt 0.94278 0.25137
vt 0.10754 0.86990
vt 0.10754 0.98467
vt 0.78743 0.21788
vt 0.62414 0.21788
vt 0.63423 0.05504
vt 0.63782 0.07104
vt 0.62995 0.07997
vt 0.61919 0.06166
vt 0.18042 0.98467
vt 0.18042 0.86990
vt 0.78169 0.30570
vt 0.63497 0.30604
vt 0.70468 0.08653
vt 0.68242 0.08104
vt 0.69030 0.06644
vt 0.70980 0.06765
vt 0.27595 0.86990
vt 0.27595 0.98467
vt 0.79620 0.29939
vt 0.94292 0.29894
vt 0.67486 0.16090
vt 0.67809 0.14110
vt 0.69496 0.13234
vt 0.70090 0.15993
vt 0.33256 0.98467
vt 0.33256 0.86990
vt 0.78743 0.30439
vt 0.62414 0.30439
vt 0.63839 0.37333
vt 0.63839 0.29930
vt 0.69728 0.29930
vt 0.69728 0.37333
vt 0.14031 0.86990
vt 0.14031 0.98467
vt 0.79776 0.28963
vt 0.92456 0.28911
vt 0.92406 0.30596
vt 0.79789 0.30815
vt 0.15107 0.86990
vt 0.15107 0.98467
vt 0.78743 0.12571
vt 0.78743 0.16864
vt 0.62414 0.16864
vt 0.62414 0.12571
vt 0.90056 0.37439
vt 0.93679 0.37393
vt 0.93526 0.39217
vt 0.90135 0.39203
vt 0.79700 0.39466
vt 0.79552 0.37516
vt 0.30123 0.86990
vt 0.30123 0.98467
vt 0.62814 0.29635
vt 0.78222 0.29474
vt 0.78094 0.31349
vt 0.62845 0.31465
vt 0.30864 0.86990
vt 0.30864 0.98467
vt 0.78743 0.03075
vt 0.78743 0.07368
vt 0.62414 0.07368
vt 0.62414 0.03075
vt 0.74409 0.22436
vt 0.72465 0.18277
vt 0.74834 0.17543
vt 0.76584 0.20905
vt 0.80329 0.25146
vt 0.93228 0.25043
vt 0.93258 0.27352
vt 0.80366 0.27301
vt 0.09894 0.85318
vt 0.01287 0.85318
vt 0.42939 0.28904
vt 0.55365 0.28828
vt 0.55357 0.29488
vt 0.55529 0.31941
vt 0.43429 0.32091
vt 0.43379 0.29755
vt 0.35717 0.85318
vt 0.33795 0.85318
vt 0.64229 0.08760
vt 0.64904 0.07570
vt 0.63326 0.20407
vt 0.79039 0.20213
vt 0.79016 0.22856
vt 0.63358 0.22743
vt 0.89932 0.35433
vt 0.78225 0.33220
vt 0.89911 0.33246
vt 0.68407 0.04990
vt 0.66622 0.06254
vt 0.80841 0.02217
vt 0.95047 0.01865
vt 0.95112 0.03781
vt 0.80902 0.04132
vt 0.69728 0.23363
vt 0.63839 0.23363
vt 0.68045 0.11403
vt 0.66397 0.12753
vt 0.93024 0.11411
vt 0.80402 0.11669
vt 0.80406 0.09388
vt 0.92908 0.09285
vt 0.65409 0.05147
vt 0.63173 0.16401
vt 0.79108 0.16377
vt 0.78220 0.31173
vt 0.89926 0.31111
vt 0.70896 0.04231
vt 0.64506 0.15226
vt 0.92971 0.14399
vt 0.80378 0.14745
vt 0.80402 0.12134
vt 0.93024 0.11876
vt 0.95289 0.06002
vt 0.81042 0.06258
vt 0.83197 0.15093
vt 0.84653 0.10692
vt 0.89230 0.11567
vt 0.88453 0.15628
vt 0.92427 0.27136
vt 0.79853 0.27198
vt 0.93780 0.35198
vt 0.90012 0.35241
vt 0.63276 0.26463
vt 0.79072 0.26356
vt 0.79107 0.28465
vt 0.63278 0.28498
vt 0.79701 0.35448
vt 0.78312 0.27742
vt 0.62755 0.27905
vt 0.69630 0.19161
vt 0.71689 0.24315
vt 0.97177 0.21891
vt 0.79811 0.21991
vt 0.80006 0.19906
vt 0.97199 0.19713
vt 0.80362 0.29973
vt 0.93243 0.30044
vt 0.78743 0.19313
vt 0.62414 0.19313
vt 0.79129 0.30788
vt 0.63275 0.30927
vt 0.62414 0.19339
vt 0.78743 0.19339
vt 0.63246 0.13416
vt 0.79150 0.13415
vt 0.79801 0.25658
vt 0.92372 0.25537
vt 0.62414 0.09990
vt 0.78743 0.09990
vt 0.63492 0.28285
vt 0.78164 0.28252
vt 0.79622 0.33367
vt 0.90030 0.33169
vt 0.63390 0.24614
vt 0.79083 0.24510
vt 0.78141 0.28925
vt 0.89900 0.28853
vt 0.78743 0.09965
vt 0.62414 0.09965
vt 0.94300 0.32227
vt 0.79628 0.32272
vt 0.62414 0.00478
vt 0.78743 0.00478
vt 0.62414 0.27842
vt 0.78743 0.27842
vt 0.62668 0.25693
vt 0.78404 0.25430
vt 0.92934 0.16629
vt 0.80319 0.16745
vt 0.79941 0.18093
vt 0.97059 0.17756
vt 0.93263 0.32428
vt 0.80468 0.32341
vt 0.97190 0.23927
vt 0.79909 0.24060
vt 0.95607 0.07924
vt 0.81196 0.08110
vt 0.51874 0.64859
vt 0.51874 0.70231
vt 0.41717 0.70231
vt 0.41717 0.64859
vt 0.51874 0.75604
vt 0.41717 0.75604
vt 0.51874 0.80977
vt 0.41717 0.80977
vt 0.62031 0.64859
vt 0.62031 0.70231
vt 0.62031 0.75604
vt 0.62031 0.80977
vt 0.72187 0.64859
vt 0.72187 0.70231
vt 0.72187 0.75604
vt 0.72187 0.80977
vt 0.82344 0.64859
vt 0.82344 0.70231
vt 0.82344 0.75604
vt 0.82344 0.80977
vt 0.23325 0.46571
vt 0.23325 0.51982
vt 0.15245 0.51982
vt 0.15245 0.46571
vt 0.31405 0.46571
vt 0.31405 0.51982
vt 0.39485 0.46571
vt 0.39485 0.51982
vt 0.23325 0.57393
vt 0.15245 0.57393
vt 0.31405 0.57393
vt 0.39485 0.57393
vt 0.23325 0.62804
vt 0.15245 0.62804
vt 0.31405 0.62804
vt 0.39485 0.62804
vt 0.15389 0.57361
vt 0.23373 0.57361
vt 0.23373 0.62707
vt 0.15389 0.62707
vt 0.31356 0.57361
vt 0.31356 0.62707
vt 0.39340 0.57361
vt 0.39340 0.62707
vt 0.15389 0.52014
vt 0.23373 0.52014
vt 0.31356 0.52014
vt 0.39340 0.52014
vt 0.15389 0.46668
vt 0.23373 0.46668
vt 0.31356 0.46668
vt 0.39340 0.46668
vt 0.82412 0.87541
vt 0.72299 0.87538
vt 0.72301 0.82158
vt 0.82413 0.82161
vt 0.82410 0.92921
vt 0.72297 0.92918
vt 0.82408 0.98301
vt 0.72295 0.98298
vt 0.62187 0.87535
vt 0.62188 0.82155
vt 0.62185 0.92915
vt 0.62183 0.98295
vt 0.52074 0.87532
vt 0.52076 0.82152
vt 0.52073 0.92911
vt 0.52071 0.98291
vt 0.41962 0.87528
vt 0.41963 0.82148
vt 0.41960 0.92908
vt 0.41958 0.98288
vt 0.72261 0.62954
vt 0.72259 0.57513
vt 0.82486 0.57508
vt 0.82489 0.62949
vt 0.72256 0.52073
vt 0.82484 0.52068
vt 0.72254 0.46632
vt 0.82481 0.46627
vt 0.62035 0.62959
vt 0.62032 0.57518
vt 0.62029 0.52077
vt 0.62027 0.46636
vt 0.51808 0.62964
vt 0.51805 0.57523
vt 0.51803 0.52082
vt 0.51800 0.46641
vt 0.41581 0.62969
vt 0.41578 0.57528
vt 0.41575 0.52087
vt 0.41573 0.46646

# No. faces 140:

usemtl ___default___

f 2/1/142 6/2/147 5/3/145 1/4/141
f 4/5/144 8/6/153 7/7/150 3/8/143
f 10/9/156 14/10/165 13/11/163 9/12/154
f 12/13/162 16/14/171 15/15/168 11/16/159
f 22/17/178 18/18/173 17/19/172 21/20/176
f 24/21/184 20/22/175 19/23/174 23/24/181
f 28/25/191 25/26/185 5/27/146 6/28/149
f 26/29/187 27/30/189 10/31/158 9/32/155
f 36/33/209 33/34/203 22/35/180 21/36/177
f 34/37/205 35/38/207 13/39/164 14/40/167
f 41/41/221 7/7/150 8/6/153 42/42/223
f 43/43/224 25/26/186 28/25/192 44/44/226
f 46/45/230 32/46/200 7/47/152 41/48/222
f 48/49/234 12/13/162 11/16/159 47/50/232
f 50/51/237 27/30/190 26/29/188 49/52/235
f 47/53/233 11/54/161 31/55/197 52/56/241
f 53/57/243 15/15/168 16/14/171 54/58/245
f 56/59/248 35/38/208 34/37/206 55/60/246
f 57/61/250 38/62/214 15/63/170 53/64/244
f 60/65/256 24/21/184 23/24/181 59/66/254
f 61/67/257 33/34/204 36/33/210 62/68/259
f 59/69/255 23/70/183 37/71/211 63/72/261
f 66/73/266 41/41/221 42/42/223 65/74/265
f 70/75/274 46/76/230 41/77/222 66/78/267
f 71/79/276 66/73/266 65/74/265 72/80/278
f 72/80/278 48/49/234 47/50/232 71/79/276
f 73/81/279 67/82/268 68/83/270 74/84/281
f 76/85/285 70/86/274 66/87/267 71/88/277
f 71/88/277 47/89/233 52/90/241 76/85/285
f 78/91/288 53/57/243 54/58/245 77/92/287
f 81/93/294 57/94/250 53/95/244 78/96/289
f 83/97/298 78/91/288 77/92/287 84/98/300
f 84/98/300 60/65/256 59/66/254 83/97/298
f 86/99/303 80/100/292 79/101/290 85/102/301
f 87/103/305 81/104/294 78/105/289 83/106/299
f 83/107/299 59/108/255 63/109/261 87/110/305
f 89/111/309 6/2/147 2/1/142 90/112/311
f 90/112/311 3/8/143 7/7/150 89/111/309
f 92/113/314 14/10/165 10/9/156 91/114/312
f 91/115/312 11/116/159 15/117/168 92/118/314
f 93/119/316 18/18/173 22/17/178 94/120/317
f 94/120/317 23/24/181 19/23/174 93/119/316
f 89/121/310 7/47/151 32/46/202 95/122/319
f 95/123/319 29/124/193 6/125/148 89/126/310
f 91/127/313 10/31/157 30/128/195 96/129/321
f 96/130/321 31/55/199 11/54/160 91/131/313
f 94/132/318 22/133/179 40/134/219 97/135/323
f 97/136/323 37/71/213 23/70/182 94/137/318
f 92/138/315 15/63/169 38/62/216 98/139/325
f 98/140/325 39/141/217 14/142/166 92/143/315
f 95/122/320 32/46/201 46/45/231 99/144/327
f 99/145/327 45/146/228 29/124/194 95/123/320
f 96/129/322 30/128/196 51/147/239 100/148/330
f 100/149/330 52/56/242 31/55/198 96/130/322
f 98/139/326 38/62/215 57/61/251 101/150/333
f 101/151/333 58/152/252 39/153/218 98/154/326
f 97/135/324 40/134/220 64/155/263 102/156/336
f 102/157/336 63/158/262 37/159/212 97/160/324
f 99/161/327 46/76/231 70/75/275 103/162/339
f 103/163/339 70/86/275 76/85/286 104/164/342
f 104/165/342 75/166/283 69/167/272 103/168/339
f 104/164/342 76/85/286 52/90/242 100/169/330
f 101/170/333 57/94/251 81/93/295 105/171/345
f 105/172/345 81/104/295 87/103/306 106/173/348
f 106/174/348 88/175/307 82/176/296 105/177/345
f 106/178/348 87/110/306 63/109/262 102/179/336
f 67/82/269 107/180/351 108/181/352 68/83/271
f 69/167/273 109/182/353 110/183/354 103/168/341
f 44/44/227 112/184/357 111/185/356 43/43/225
f 99/145/329 114/186/359 113/187/358 45/146/229
f 103/162/340 110/188/355 114/189/360 99/161/328
f 118/190/364 115/191/361 73/81/280 74/84/282
f 116/192/362 117/193/363 50/51/238 49/52/236
f 122/194/369 119/195/365 104/164/344 100/169/332
f 119/196/366 120/197/367 75/166/284 104/165/343
f 121/198/368 122/199/370 100/148/331 51/147/240
f 126/200/374 123/201/371 79/101/291 80/100/293
f 124/202/372 125/203/373 56/59/249 55/60/247
f 130/204/378 127/205/375 86/99/304 85/102/302
f 128/206/376 129/207/377 61/67/258 62/68/260
f 134/208/383 131/209/379 101/170/335 105/171/347
f 131/210/380 132/211/381 58/152/253 101/151/334
f 133/212/382 134/213/384 105/177/346 82/176/297
f 138/214/389 135/215/385 106/178/350 102/179/338
f 135/216/386 136/217/387 88/175/308 106/174/349
f 137/218/388 138/219/390 102/156/337 64/155/264
f 148/220/408 149/221/410 142/222/397 140/223/393
f 149/221/410 150/224/411 144/225/400 142/222/397
f 150/224/411 152/226/413 146/227/404 144/225/400
f 154/228/416 155/229/418 149/221/410 148/220/408
f 155/229/418 156/230/419 150/224/411 149/221/410
f 156/230/419 158/231/421 152/226/413 150/224/411
f 160/232/424 161/233/426 155/229/418 154/228/416
f 161/233/426 162/234/427 156/230/419 155/229/418
f 162/234/427 164/235/429 158/231/421 156/230/419
f 166/236/433 168/237/437 161/233/426 160/232/424
f 168/237/437 170/238/440 162/234/427 161/233/426
f 170/238/440 172/239/444 164/235/429 162/234/427
f 173/240/447 177/241/455 141/242/396 139/243/391
f 175/244/451 179/245/457 177/241/455 173/240/447
f 140/246/395 142/247/398 179/245/457 175/244/451
f 177/241/455 181/248/459 143/249/399 141/242/396
f 179/245/457 183/250/461 181/248/459 177/241/455
f 142/247/398 144/251/401 183/250/461 179/245/457
f 181/248/459 185/252/463 145/253/402 143/249/399
f 183/250/461 187/254/467 185/252/463 181/248/459
f 144/251/401 146/255/406 187/254/467 183/250/461
f 167/256/436 178/257/456 174/258/449 165/259/431
f 178/257/456 180/260/458 176/261/453 174/258/449
f 180/260/458 168/262/438 166/263/435 176/261/453
f 169/264/439 182/265/460 178/257/456 167/256/436
f 182/265/460 184/266/462 180/260/458 178/257/456
f 184/266/462 170/267/441 168/262/438 180/260/458
f 171/268/442 186/269/465 182/265/460 169/264/439
f 186/269/465 188/270/469 184/266/462 182/265/460
f 188/270/469 172/271/446 170/267/441 184/266/462
f 185/272/464 190/273/472 151/274/412 145/275/403
f 187/276/468 192/277/474 190/273/472 185/272/464
f 146/278/405 152/279/414 192/277/474 187/276/468
f 190/273/472 194/280/476 157/281/420 151/274/412
f 192/277/474 196/282/478 194/280/476 190/273/472
f 152/279/414 158/283/422 196/282/478 192/277/474
f 194/280/476 198/284/480 163/285/428 157/281/420
f 196/282/478 200/286/482 198/284/480 194/280/476
f 158/283/422 164/287/430 200/286/482 196/282/478
f 198/284/480 186/288/466 171/289/443 163/285/428
f 200/286/482 188/290/470 186/288/466 198/284/480
f 164/287/430 172/291/445 188/290/470 200/286/482
f 147/292/407 189/293/471 173/294/448 139/295/392
f 189/293/471 191/296/473 175/297/452 173/294/448
f 191/296/473 148/298/409 140/299/394 175/297/452
f 153/300/415 193/301/475 189/293/471 147/292/407
f 193/301/475 195/302/477 191/296/473 189/293/471
f 195/302/477 154/303/417 148/298/409 191/296/473
f 159/304/423 197/305/479 193/301/475 153/300/415
f 197/305/479 199/306/481 195/302/477 193/301/475
f 199/306/481 160/307/425 154/303/417 195/302/477
f 165/308/432 174/309/450 197/305/479 159/304/423
f 174/309/450 176/310/454 199/306/481 197/305/479
f 176/310/454 166/311/434 160/307/425 199/306/481

# End of Object "tst_level2"
