# Blender 3.6.0
# www.blender.org
mtllib tst_level.mtl
o tst_level
v -49.763000 -20.020002 -19.859999
v -49.763000 -6.745411 -19.860001
v -49.763000 6.529388 -19.860001
v -49.763000 19.803999 -19.860003
v -34.712002 -20.020002 -19.859999
v -34.712002 -6.745411 -19.860001
v -34.712002 6.529388 -19.860001
v -34.712002 19.803999 -19.860003
v -5.859400 -20.020002 -19.859999
v -5.859400 -6.745411 -19.860001
v -5.859400 6.529388 -19.860001
v -5.859400 19.803999 -19.860003
v 5.384400 -20.020002 -19.859999
v 5.384400 -6.745411 -19.860001
v 5.384400 6.529388 -19.860001
v 5.384400 19.803999 -19.860003
v 49.783001 -20.020002 -19.859999
v 49.783001 -6.745411 -19.860001
v 49.783001 6.529388 -19.860001
v 49.783001 19.803999 -19.860003
v 36.858002 -20.020002 -19.859999
v 36.858002 -6.745411 -19.860001
v 36.858002 6.529388 -19.860001
v 36.858002 19.803999 -19.860003
v -34.712002 -20.020002 -17.840998
v -5.859400 -20.020002 -17.840998
v -5.859400 -6.745411 -17.841000
v -34.712002 -6.745411 -17.841000
v -34.712002 -6.745411 -17.841000
v -5.859400 -6.745411 -17.841000
v -5.859400 6.529388 -17.841000
v -34.712002 6.529388 -17.841000
v 36.858002 -6.745411 -17.841000
v 5.384400 -6.745411 -17.841000
v 5.384400 -20.020002 -17.840998
v 36.858002 -20.020002 -17.840998
v 36.858002 6.529388 -17.841000
v 5.384400 6.529388 -17.841000
v 5.384400 -6.745411 -17.841000
v 36.858002 -6.745411 -17.841000
v -31.830000 6.529388 -19.860001
v -31.830000 19.803999 -19.860003
v -31.830000 -20.020002 -17.840998
v -31.830000 -6.745411 -17.841000
v -31.830000 -6.745411 -17.841000
v -31.830000 6.529388 -17.841000
v -8.194100 6.529388 -19.860001
v -8.194100 19.803999 -19.860003
v -8.194100 -20.020002 -17.840998
v -8.194100 -6.745411 -17.841000
v -8.194100 -6.745411 -17.841000
v -8.194100 6.529388 -17.841000
v 7.669300 6.529388 -19.860001
v 7.669300 19.803999 -19.860003
v 7.669300 -6.745411 -17.841000
v 7.669300 -20.020002 -17.840998
v 7.669300 6.529388 -17.841000
v 7.669300 -6.745411 -17.841000
v 34.320000 6.529388 -19.860001
v 34.320000 19.803999 -19.860003
v 34.320000 -6.745411 -17.841000
v 34.320000 -20.020002 -17.840998
v 34.320000 6.529388 -17.841000
v 34.320000 -6.745411 -17.841000
v -21.518999 19.803999 -19.860003
v -21.518999 6.529388 -19.860001
v -21.518999 -20.020002 -17.840998
v -21.518999 -6.745411 -17.841000
v -21.518999 -6.745411 -17.841000
v -21.518999 6.529388 -17.841000
v -18.028999 6.529388 -19.860001
v -18.028999 19.803999 -19.860003
v -18.028999 -20.020002 -17.840998
v -18.028999 -6.745411 -17.841000
v -18.028999 -6.745411 -17.841000
v -18.028999 6.529388 -17.841000
v 19.566999 19.803999 -19.860003
v 19.566999 6.529388 -19.860001
v 19.566999 -6.745411 -17.841000
v 19.566999 -20.020002 -17.840998
v 19.566999 6.529388 -17.841000
v 19.566999 -6.745411 -17.841000
v 23.056999 6.529388 -19.860001
v 23.056999 19.803999 -19.860003
v 23.056999 -6.745411 -17.841000
v 23.056999 -20.020002 -17.840998
v 23.056999 6.529388 -17.841000
v 23.056999 -6.745411 -17.841000
v -34.712002 4.277689 -19.860001
v -49.763000 4.277689 -19.860001
v -5.859400 4.277689 -19.860001
v 5.384400 4.277689 -19.860001
v 49.783001 4.277689 -19.860001
v 36.858002 4.277689 -19.860001
v -34.712002 4.277689 -17.841000
v -5.859400 4.277689 -17.841000
v 36.858002 4.277689 -17.841000
v 5.384400 4.277689 -17.841000
v -31.830000 4.277689 -17.841000
v -8.194100 4.277689 -17.841000
v 7.669300 4.277689 -17.841000
v 34.320000 4.277689 -17.841000
v -21.518999 4.277689 -17.841000
v -18.028999 4.277689 -17.841000
v 19.566999 4.277689 -17.841000
v 23.056999 4.277689 -17.841000
v -21.518999 -20.020002 -19.831999
v -21.519100 -6.745411 -19.832001
v -21.518999 -6.745411 -19.832001
v -21.518999 4.277689 -19.832001
v -31.830000 -20.020002 -19.831999
v -31.830000 -6.745411 -19.832001
v -31.830000 -6.745411 -19.832001
v -31.830000 4.277689 -19.832001
v -18.028999 -20.020002 -19.938898
v -8.194100 -20.020002 -19.938898
v -8.194100 -6.745411 -19.938900
v -18.028999 -6.745411 -19.938900
v -18.028999 4.277689 -19.938900
v -18.028999 -6.745411 -19.938900
v -8.194100 -6.745411 -19.938900
v -8.194100 4.277689 -19.938900
v 19.566999 -6.745411 -19.952000
v 7.669300 -6.745411 -19.952000
v 7.669300 -20.020002 -19.951998
v 19.566999 -20.020002 -19.951998
v 23.056999 -20.020002 -19.951998
v 34.320000 -20.020002 -19.951998
v 34.320000 -6.745411 -19.952000
v 23.056999 -6.745411 -19.952000
v 7.669300 4.277689 -19.952000
v 7.669300 -6.745411 -19.952000
v 19.566999 -6.745411 -19.952000
v 19.566999 4.277689 -19.952000
v 23.056999 4.277689 -19.952000
v 23.056999 -6.745411 -19.952000
v 34.320000 -6.745411 -19.952000
v 34.320000 4.277689 -19.952000
v -49.719002 -20.020002 -19.859999
v -49.719002 -20.019999 19.860003
v -49.719002 -6.745401 -19.860001
v -49.719002 -6.745399 19.860001
v -49.719002 6.529398 -19.860001
v -49.719002 6.529401 19.860001
v -49.719002 19.803999 -19.860003
v -49.719002 19.804003 19.859999
v -24.832001 -20.020002 -19.859999
v -24.832001 -20.019999 19.860003
v -24.832001 -6.745399 19.860001
v -24.832001 6.529401 19.860001
v -24.832001 19.803999 -19.860003
v -24.832001 19.804003 19.859999
v 0.054000 -20.020002 -19.859999
v 0.054000 -20.019999 19.860003
v 0.054000 -6.745399 19.860001
v 0.054000 6.529401 19.860001
v 0.054000 19.803999 -19.860003
v 0.054000 19.804003 19.859999
v 24.940001 -20.020002 -19.859999
v 24.940001 -20.019999 19.860003
v 24.940001 -6.745399 19.860001
v 24.940001 6.529401 19.860001
v 24.940001 19.803999 -19.860003
v 24.940001 19.804003 19.859999
v 49.827000 -20.020002 -19.859999
v 49.827000 -20.019999 19.860003
v 49.827000 -6.745401 -19.860001
v 49.827000 -6.745399 19.860001
v 49.827000 6.529398 -19.860001
v 49.827000 6.529401 19.860001
v 49.827000 19.803999 -19.860003
v 49.827000 19.804003 19.859999
v -49.719002 -20.020000 -6.619899
v 49.827000 -20.020000 -6.619899
v -49.719002 -20.020000 6.619902
v 49.827000 -20.020000 6.619902
v -49.719002 -6.745400 -6.619900
v 49.827000 -6.745400 -6.619900
v -49.719002 -6.745399 6.619901
v 49.827000 -6.745399 6.619901
v -49.719002 6.529399 -6.619901
v 49.827000 6.529399 -6.619901
v -49.719002 6.529400 6.619900
v 49.827000 6.529400 6.619900
v -49.719002 19.804001 -6.619902
v 49.827000 19.804001 -6.619902
v -49.719002 19.804001 6.619899
v 49.827000 19.804001 6.619899
v -24.832001 -20.020000 -6.619899
v -24.832001 19.804001 -6.619902
v -24.832001 -20.020000 6.619902
v -24.832001 19.804001 6.619899
v 0.054000 -20.020000 -6.619899
v 0.054000 19.804001 -6.619902
v 0.054000 -20.020000 6.619902
v 0.054000 19.804001 6.619899
v 24.940001 -20.020000 -6.619899
v 24.940001 19.804001 -6.619902
v 24.940001 -20.020000 6.619902
v 24.940001 19.804001 6.619899
vn -0.0000 -0.0000 -1.0000
vn 1.0000 -0.0000 -0.0000
vn -1.0000 -0.0000 -0.0000
vn -0.0000 -1.0000 -0.0000
vn -0.0000 1.0000 -0.0000
vn -0.0000 -0.0000 1.0000
vt 0.012869 0.755135
vt 0.098945 0.755135
vt 0.098945 0.640369
vt 0.012869 0.640369
vt 0.012869 0.984670
vt 0.098945 0.984670
vt 0.098945 0.869904
vt 0.012869 0.869904
vt 0.554903 0.164572
vt 0.430628 0.164067
vt 0.431224 0.017346
vt 0.555499 0.017851
vt 0.185020 0.984670
vt 0.271095 0.984670
vt 0.271095 0.869904
vt 0.185020 0.869904
vt 0.337955 0.755135
vt 0.357170 0.755135
vt 0.357170 0.640369
vt 0.337955 0.640369
vt 0.337955 0.984670
vt 0.357170 0.984670
vt 0.357170 0.869904
vt 0.337955 0.869904
vt 0.624135 0.253329
vt 0.787431 0.253329
vt 0.787431 0.278166
vt 0.624135 0.278166
vt 0.635031 0.331847
vt 0.781753 0.331509
vt 0.781804 0.353825
vt 0.635083 0.354163
vt 0.624135 0.335609
vt 0.787431 0.335609
vt 0.787431 0.360445
vt 0.624135 0.360445
vt 0.942848 0.273686
vt 0.796127 0.274132
vt 0.796059 0.251817
vt 0.942780 0.251370
vt 0.107542 0.869904
vt 0.107542 0.984670
vt 0.787431 0.217877
vt 0.624135 0.217877
vt 0.634231 0.055037
vt 0.637824 0.071045
vt 0.629954 0.079973
vt 0.619191 0.061659
vt 0.180420 0.984670
vt 0.180420 0.869904
vt 0.781694 0.305704
vt 0.634972 0.306042
vt 0.704679 0.086533
vt 0.682416 0.081038
vt 0.690305 0.066436
vt 0.709798 0.067652
vt 0.275950 0.869904
vt 0.275950 0.984670
vt 0.796204 0.299387
vt 0.942925 0.298941
vt 0.674857 0.160903
vt 0.678092 0.141104
vt 0.694960 0.132337
vt 0.700895 0.159935
vt 0.332563 0.984670
vt 0.332563 0.869904
vt 0.787431 0.304388
vt 0.624135 0.304388
vt 0.638389 0.373331
vt 0.638389 0.299303
vt 0.697278 0.299303
vt 0.697278 0.373331
vt 0.140312 0.869904
vt 0.140312 0.984670
vt 0.797757 0.289633
vt 0.924562 0.289106
vt 0.924057 0.305962
vt 0.797891 0.308153
vt 0.151072 0.869904
vt 0.151072 0.984670
vt 0.787431 0.125707
vt 0.787431 0.168639
vt 0.624135 0.168639
vt 0.624135 0.125707
vt 0.900560 0.374392
vt 0.936792 0.373930
vt 0.935261 0.392173
vt 0.901348 0.392032
vt 0.797002 0.394662
vt 0.795521 0.375156
vt 0.301225 0.869904
vt 0.301225 0.984670
vt 0.628136 0.296350
vt 0.782217 0.294742
vt 0.780938 0.313490
vt 0.628445 0.314651
vt 0.308638 0.869904
vt 0.308638 0.984670
vt 0.787431 0.030746
vt 0.787431 0.073678
vt 0.624135 0.073678
vt 0.624135 0.030746
vt 0.744091 0.224360
vt 0.724645 0.182771
vt 0.748342 0.175434
vt 0.765844 0.209048
vt 0.803287 0.251461
vt 0.932279 0.250431
vt 0.932583 0.273522
vt 0.803665 0.273013
vt 0.098945 0.853178
vt 0.012869 0.853178
vt 0.429390 0.289041
vt 0.553653 0.288282
vt 0.553572 0.294881
vt 0.555292 0.319410
vt 0.434286 0.320910
vt 0.433787 0.297554
vt 0.357170 0.853178
vt 0.337955 0.853178
vt 0.642294 0.087604
vt 0.649041 0.075697
vt 0.633262 0.204068
vt 0.790386 0.202131
vt 0.790157 0.228564
vt 0.633581 0.227429
vt 0.899320 0.354327
vt 0.782249 0.332199
vt 0.899114 0.332461
vt 0.684066 0.049897
vt 0.666221 0.062536
vt 0.808410 0.022175
vt 0.950474 0.018652
vt 0.951120 0.037813
vt 0.809018 0.041322
vt 0.697278 0.233627
vt 0.638389 0.233627
vt 0.680446 0.114030
vt 0.663971 0.127530
vt 0.930235 0.114114
vt 0.804024 0.116689
vt 0.804063 0.093884
vt 0.929080 0.092846
vt 0.654090 0.051466
vt 0.631727 0.164011
vt 0.791079 0.163770
vt 0.782201 0.311727
vt 0.899265 0.311106
vt 0.708958 0.042311
vt 0.645057 0.152259
vt 0.929707 0.143986
vt 0.803780 0.147449
vt 0.804024 0.121340
vt 0.930235 0.118765
vt 0.952891 0.060018
vt 0.810420 0.062578
vt 0.831966 0.150926
vt 0.846532 0.106924
vt 0.892297 0.115674
vt 0.884534 0.156277
vt 0.924272 0.271359
vt 0.798529 0.271976
vt 0.937797 0.351976
vt 0.900115 0.352411
vt 0.632763 0.264634
vt 0.790716 0.263558
vt 0.791067 0.284654
vt 0.632776 0.284983
vt 0.797007 0.354481
vt 0.783123 0.277418
vt 0.627551 0.279054
vt 0.696296 0.191607
vt 0.716892 0.243153
vt 0.971767 0.218914
vt 0.798114 0.219907
vt 0.800058 0.199058
vt 0.971986 0.197132
vt 0.803624 0.299730
vt 0.932427 0.300445
vt 0.787431 0.193131
vt 0.624135 0.193131
vt 0.791295 0.307885
vt 0.632747 0.309270
vt 0.624135 0.193385
vt 0.787431 0.193385
vt 0.632458 0.134162
vt 0.791498 0.134153
vt 0.798007 0.256576
vt 0.923721 0.255375
vt 0.624135 0.099900
vt 0.787431 0.099900
vt 0.634919 0.282854
vt 0.781640 0.282516
vt 0.796218 0.333673
vt 0.900295 0.331692
vt 0.633896 0.246140
vt 0.790832 0.245102
vt 0.781412 0.289254
vt 0.899004 0.288526
vt 0.787431 0.099646
vt 0.624135 0.099646
vt 0.942996 0.322273
vt 0.796275 0.322719
vt 0.624135 0.004778
vt 0.787431 0.004778
vt 0.624135 0.278420
vt 0.787431 0.278420
vt 0.626682 0.256932
vt 0.784044 0.254299
vt 0.929337 0.166293
vt 0.803191 0.167453
vt 0.799413 0.180926
vt 0.970589 0.177558
vt 0.932626 0.324281
vt 0.804683 0.323406
vt 0.971905 0.239269
vt 0.799090 0.240602
vt 0.956074 0.079241
vt 0.811956 0.081097
vt 0.518741 0.648585
vt 0.518741 0.702315
vt 0.417174 0.702315
vt 0.417174 0.648585
vt 0.518741 0.756045
vt 0.417174 0.756045
vt 0.518741 0.809775
vt 0.417174 0.809775
vt 0.620307 0.648585
vt 0.620307 0.702315
vt 0.620307 0.756045
vt 0.620307 0.809775
vt 0.721874 0.648585
vt 0.721874 0.702315
vt 0.721874 0.756045
vt 0.721874 0.809775
vt 0.823440 0.648585
vt 0.823440 0.702315
vt 0.823440 0.756045
vt 0.823440 0.809775
vt 0.233248 0.465713
vt 0.233248 0.519820
vt 0.152446 0.519820
vt 0.152446 0.465713
vt 0.314047 0.465713
vt 0.314047 0.519820
vt 0.394849 0.465713
vt 0.394849 0.519820
vt 0.233248 0.573929
vt 0.152446 0.573929
vt 0.314047 0.573929
vt 0.394849 0.573929
vt 0.233248 0.628036
vt 0.152446 0.628036
vt 0.314047 0.628036
vt 0.394849 0.628036
vt 0.153894 0.573605
vt 0.233731 0.573605
vt 0.233731 0.627067
vt 0.153894 0.627067
vt 0.313565 0.573605
vt 0.313565 0.627067
vt 0.393401 0.573605
vt 0.393401 0.627067
vt 0.153894 0.520143
vt 0.233731 0.520143
vt 0.313565 0.520143
vt 0.393401 0.520143
vt 0.153894 0.466682
vt 0.233731 0.466682
vt 0.313565 0.466682
vt 0.393401 0.466682
vt 0.824116 0.875413
vt 0.722989 0.875381
vt 0.723007 0.821580
vt 0.824134 0.821613
vt 0.824099 0.929213
vt 0.722972 0.929180
vt 0.824082 0.983013
vt 0.722955 0.982981
vt 0.621866 0.875348
vt 0.621884 0.821548
vt 0.621849 0.929147
vt 0.621832 0.982948
vt 0.520743 0.875316
vt 0.520760 0.821515
vt 0.520726 0.929115
vt 0.520708 0.982915
vt 0.419616 0.875283
vt 0.419633 0.821482
vt 0.419599 0.929082
vt 0.419581 0.982883
vt 0.722614 0.629543
vt 0.722588 0.575134
vt 0.824861 0.575085
vt 0.824887 0.629494
vt 0.722562 0.520725
vt 0.824835 0.520676
vt 0.722537 0.466315
vt 0.824809 0.466267
vt 0.620346 0.629592
vt 0.620320 0.575182
vt 0.620294 0.520774
vt 0.620268 0.466364
vt 0.518078 0.629641
vt 0.518052 0.575231
vt 0.518026 0.520822
vt 0.518000 0.466413
vt 0.415806 0.629689
vt 0.415780 0.575279
vt 0.415754 0.520871
vt 0.415728 0.466461
s 0
usemtl ___default___
f 2/1/1 6/2/1 5/3/1 1/4/1
f 4/5/1 8/6/1 7/7/1 3/8/1
f 10/9/1 14/10/1 13/11/1 9/12/1
f 12/13/1 16/14/1 15/15/1 11/16/1
f 22/17/1 18/18/1 17/19/1 21/20/1
f 24/21/1 20/22/1 19/23/1 23/24/1
f 28/25/2 25/26/2 5/27/2 6/28/2
f 26/29/3 27/30/3 10/31/3 9/32/3
f 36/33/3 33/34/3 22/35/3 21/36/3
f 34/37/2 35/38/2 13/39/2 14/40/2
f 41/41/1 7/7/1 8/6/1 42/42/1
f 43/43/1 25/26/1 28/25/1 44/44/1
f 46/45/4 32/46/4 7/47/4 41/48/4
f 48/49/1 12/13/1 11/16/1 47/50/1
f 50/51/1 27/30/1 26/29/1 49/52/1
f 47/53/4 11/54/4 31/55/4 52/56/4
f 53/57/1 15/15/1 16/14/1 54/58/1
f 56/59/1 35/38/1 34/37/1 55/60/1
f 57/61/4 38/62/4 15/63/4 53/64/4
f 60/65/1 24/21/1 23/24/1 59/66/1
f 61/67/1 33/34/1 36/33/1 62/68/1
f 59/69/4 23/70/4 37/71/4 63/72/4
f 66/73/1 41/41/1 42/42/1 65/74/1
f 70/75/4 46/76/4 41/77/4 66/78/4
f 71/79/1 66/73/1 65/74/1 72/80/1
f 72/80/1 48/49/1 47/50/1 71/79/1
f 73/81/1 67/82/1 68/83/1 74/84/1
f 76/85/4 70/86/4 66/87/4 71/88/4
f 71/88/4 47/89/4 52/90/4 76/85/4
f 78/91/1 53/57/1 54/58/1 77/92/1
f 81/93/4 57/94/4 53/95/4 78/96/4
f 83/97/1 78/91/1 77/92/1 84/98/1
f 84/98/1 60/65/1 59/66/1 83/97/1
f 86/99/1 80/100/1 79/101/1 85/102/1
f 87/103/4 81/104/4 78/105/4 83/106/4
f 83/107/4 59/108/4 63/109/4 87/110/4
f 89/111/1 6/2/1 2/1/1 90/112/1
f 90/112/1 3/8/1 7/7/1 89/111/1
f 92/113/1 14/10/1 10/9/1 91/114/1
f 91/115/1 11/116/1 15/117/1 92/118/1
f 93/119/1 18/18/1 22/17/1 94/120/1
f 94/120/1 23/24/1 19/23/1 93/119/1
f 89/121/2 7/47/2 32/46/2 95/122/2
f 95/123/2 29/124/2 6/125/2 89/126/2
f 91/127/3 10/31/3 30/128/3 96/129/3
f 96/130/3 31/55/3 11/54/3 91/131/3
f 94/132/3 22/133/3 40/134/3 97/135/3
f 97/136/3 37/71/3 23/70/3 94/137/3
f 92/138/2 15/63/2 38/62/2 98/139/2
f 98/140/2 39/141/2 14/142/2 92/143/2
f 95/122/1 32/46/1 46/45/1 99/144/1
f 99/145/1 45/146/1 29/124/1 95/123/1
f 96/129/1 30/128/1 51/147/1 100/148/1
f 100/149/1 52/56/1 31/55/1 96/130/1
f 98/139/1 38/62/1 57/61/1 101/150/1
f 101/151/1 58/152/1 39/153/1 98/154/1
f 97/135/1 40/134/1 64/155/1 102/156/1
f 102/157/1 63/158/1 37/159/1 97/160/1
f 99/161/1 46/76/1 70/75/1 103/162/1
f 103/163/1 70/86/1 76/85/1 104/164/1
f 104/165/1 75/166/1 69/167/1 103/168/1
f 104/164/1 76/85/1 52/90/1 100/169/1
f 101/170/1 57/94/1 81/93/1 105/171/1
f 105/172/1 81/104/1 87/103/1 106/173/1
f 106/174/1 88/175/1 82/176/1 105/177/1
f 106/178/1 87/110/1 63/109/1 102/179/1
f 67/82/2 107/180/2 108/181/2 68/83/2
f 69/167/2 109/182/2 110/183/2 103/168/2
f 44/44/3 112/184/3 111/185/3 43/43/3
f 99/145/3 114/186/3 113/187/3 45/146/3
f 103/162/5 110/188/5 114/189/5 99/161/5
f 118/190/3 115/191/3 73/81/3 74/84/3
f 116/192/2 117/193/2 50/51/2 49/52/2
f 122/194/5 119/195/5 104/164/5 100/169/5
f 119/196/3 120/197/3 75/166/3 104/165/3
f 121/198/2 122/199/2 100/148/2 51/147/2
f 126/200/2 123/201/2 79/101/2 80/100/2
f 124/202/3 125/203/3 56/59/3 55/60/3
f 130/204/3 127/205/3 86/99/3 85/102/3
f 128/206/2 129/207/2 61/67/2 62/68/2
f 134/208/5 131/209/5 101/170/5 105/171/5
f 131/210/3 132/211/3 58/152/3 101/151/3
f 133/212/2 134/213/2 105/177/2 82/176/2
f 138/214/5 135/215/5 106/178/5 102/179/5
f 135/216/3 136/217/3 88/175/3 106/174/3
f 137/218/2 138/219/2 102/156/2 64/155/2
f 148/220/6 149/221/6 142/222/6 140/223/6
f 149/221/6 150/224/6 144/225/6 142/222/6
f 150/224/6 152/226/6 146/227/6 144/225/6
f 154/228/6 155/229/6 149/221/6 148/220/6
f 155/229/6 156/230/6 150/224/6 149/221/6
f 156/230/6 158/231/6 152/226/6 150/224/6
f 160/232/6 161/233/6 155/229/6 154/228/6
f 161/233/6 162/234/6 156/230/6 155/229/6
f 162/234/6 164/235/6 158/231/6 156/230/6
f 166/236/6 168/237/6 161/233/6 160/232/6
f 168/237/6 170/238/6 162/234/6 161/233/6
f 170/238/6 172/239/6 164/235/6 162/234/6
f 173/240/3 177/241/3 141/242/3 139/243/3
f 175/244/3 179/245/3 177/241/3 173/240/3
f 140/246/3 142/247/3 179/245/3 175/244/3
f 177/241/3 181/248/3 143/249/3 141/242/3
f 179/245/3 183/250/3 181/248/3 177/241/3
f 142/247/3 144/251/3 183/250/3 179/245/3
f 181/248/3 185/252/3 145/253/3 143/249/3
f 183/250/3 187/254/3 185/252/3 181/248/3
f 144/251/3 146/255/3 187/254/3 183/250/3
f 167/256/2 178/257/2 174/258/2 165/259/2
f 178/257/2 180/260/2 176/261/2 174/258/2
f 180/260/2 168/262/2 166/263/2 176/261/2
f 169/264/2 182/265/2 178/257/2 167/256/2
f 182/265/2 184/266/2 180/260/2 178/257/2
f 184/266/2 170/267/2 168/262/2 180/260/2
f 171/268/2 186/269/2 182/265/2 169/264/2
f 186/269/2 188/270/2 184/266/2 182/265/2
f 188/270/2 172/271/2 170/267/2 184/266/2
f 185/272/5 190/273/5 151/274/5 145/275/5
f 187/276/5 192/277/5 190/273/5 185/272/5
f 146/278/5 152/279/5 192/277/5 187/276/5
f 190/273/5 194/280/5 157/281/5 151/274/5
f 192/277/5 196/282/5 194/280/5 190/273/5
f 152/279/5 158/283/5 196/282/5 192/277/5
f 194/280/5 198/284/5 163/285/5 157/281/5
f 196/282/5 200/286/5 198/284/5 194/280/5
f 158/283/5 164/287/5 200/286/5 196/282/5
f 198/284/5 186/288/5 171/289/5 163/285/5
f 200/286/5 188/290/5 186/288/5 198/284/5
f 164/287/5 172/291/5 188/290/5 200/286/5
f 147/292/4 189/293/4 173/294/4 139/295/4
f 189/293/4 191/296/4 175/297/4 173/294/4
f 191/296/4 148/298/4 140/299/4 175/297/4
f 153/300/4 193/301/4 189/293/4 147/292/4
f 193/301/4 195/302/4 191/296/4 189/293/4
f 195/302/4 154/303/4 148/298/4 191/296/4
f 159/304/4 197/305/4 193/301/4 153/300/4
f 197/305/4 199/306/4 195/302/4 193/301/4
f 199/306/4 160/307/4 154/303/4 195/302/4
f 165/308/4 174/309/4 197/305/4 159/304/4
f 174/309/4 176/310/4 199/306/4 197/305/4
f 176/310/4 166/311/4 160/307/4 199/306/4
